<svg xmlns="http://www.w3.org/2000/svg" width="52.886" height="31.883" viewBox="0 0 52.886 31.883">
  <g id="Group_500" data-name="Group 500" transform="translate(-826.521 -1886)">
    <path id="Path_1664" data-name="Path 1664" d="M875.977,1886.151c-.6,1.814-2.525,2.351-3.859,3.43-1.046.846-2,1.682-3,2.573-.868.77-1.609,2.161-3,2.143-1.179-2.292,2.3-3.949,3.859-5.145C871.776,1887.772,873.984,1885.375,875.977,1886.151Z" fill="#504b46" fill-rule="evenodd"/>
    <path id="Path_1665" data-name="Path 1665" d="M861.4,1917.023c-8.206-1.8-16.177-3.833-26.156-3.859-1.479,1.093-1.2,3.95-3,4.716-1.21.067-1.075-1.211-1.715-1.715-1.308.253-1.583-1.6-2.145-2.572A12.757,12.757,0,0,1,827.1,1903.3c3.3-.016,5.068,1.507,7.29,2.573a12.136,12.136,0,0,0,4.288-2.573c.126-.1.311-.805.428-.858.672-.3,2.532-.673,3-1.714a3.932,3.932,0,0,1,1.286-1.716c1.688-1.406,3.918-3.473,6-5.145,1.555-1.248,3.5-2.285,4.288-4.288.608.037,1.214.071,1.286-.429h1.287c.79,1.006,2.378,1.85,3.429,3.43.285.428.428,1.764.858,2.573.338.636,1.094,1.154,1.287,1.715.307.9.171,2.162.428,3.431C863.228,1905.1,865.959,1913.334,861.4,1917.023Zm-4.288-24.869h-1.286a4.046,4.046,0,0,0-.858,1.715c-1.013,5.764.8,11.048,2.144,14.578.955,2.5,1.854,5.152,3.859,5.574C862.847,1907.168,860.1,1897.939,857.111,1892.154ZM839.1,1904.588a27.935,27.935,0,0,1-4.716,3.43,7.035,7.035,0,0,0-5.146-2.143c-1,3.5.556,7.967,3,9.433a9.566,9.566,0,0,1,2.573-4.288c6.527,1.333,14.214,1.508,21.439,2.144-1.535-5.754-3.19-11.389-3-18.867-.1-.333-.359-.5-.858-.428C848.281,1897.921,843.369,1901.215,839.1,1904.588Z" fill="#504b46" fill-rule="evenodd"/>
    <path id="Path_1666" data-name="Path 1666" d="M876.835,1894.3c.055,2.342-2.339,2.235-3.859,3-1.553.448-1.988,2.014-4.288,1.715-1.061-2.319,1.628-3.047,3.859-3.859A8.04,8.04,0,0,1,876.835,1894.3Z" fill="#504b46" fill-rule="evenodd"/>
    <path id="Path_1667" data-name="Path 1667" d="M877.264,1904.16c-3.127.33-4.351,1.334-7.29.428C868.784,1900.815,877.9,1900.911,877.264,1904.16Z" fill="#504b46" fill-rule="evenodd"/>
    <path id="Path_1668" data-name="Path 1668" d="M869.546,1907.161h.857c1.664.59,3.541.711,5.145,1.286.222.08.7.81.858.858.9.272,2.678.063,3,1.286-.089,2.105-3.821,1.284-5.574.858-1.952-.475-3.8-2.014-4.716-2.573C869.062,1908.107,869.642,1907.972,869.546,1907.161Z" fill="#504b46" fill-rule="evenodd"/>
  </g>
</svg>
