<svg id="Component_1_1" data-name="Component 1 – 1" xmlns="http://www.w3.org/2000/svg" width="50" height="50" viewBox="0 0 50 50">
  <path id="Path_1880" data-name="Path 1880" d="M632.5,14322.742a25,25,0,1,1,25-25A25.028,25.028,0,0,1,632.5,14322.742Z" transform="translate(-607.5 -14272.742)" fill="#504b46"/>
  <path id="Path_1881" data-name="Path 1881" d="M628.58,14297.86v14.488a.377.377,0,0,0,.377.378h5.381a.377.377,0,0,0,.377-.378v-14.725h3.9a.378.378,0,0,0,.376-.346l.375-4.437a.377.377,0,0,0-.376-.409h-4.276v-3.147a1.336,1.336,0,0,1,1.336-1.336h3.006a.377.377,0,0,0,.378-.377v-4.437a.377.377,0,0,0-.378-.377h-5.08a5.4,5.4,0,0,0-5.4,5.4v4.276h-2.691a.377.377,0,0,0-.377.378v4.438a.377.377,0,0,0,.377.377h2.691Z" transform="translate(-607.5 -14272.742)" fill="#fff" fill-rule="evenodd"/>
</svg>
