<svg xmlns="http://www.w3.org/2000/svg" width="325.273" height="7.957" viewBox="0 0 325.273 7.957">
  <g id="Group_485" data-name="Group 485" transform="translate(-525.363 -1274.983)">
    <g id="Group_484" data-name="Group 484">
      <g id="Group_483" data-name="Group 483">
        <g id="Group_482" data-name="Group 482">
          <g id="Group_481" data-name="Group 481">
            <path id="Path_1613" data-name="Path 1613" d="M567.155,1276.047a13.644,13.644,0,0,1,3.286.871c.43.209.735,1.583,1.1,2.425-.381.7-.747,1.957-1.147,2.011a33.4,33.4,0,0,1-6.748.313c-.494-.033-.964-1.545-1.445-2.376.513-1.082.953-2.773,1.557-3.108C564.7,1275.658,565.764,1276.046,567.155,1276.047Z" fill="#deb69b"/>
            <path id="Path_1614" data-name="Path 1614" d="M711.614,1282.209a9.1,9.1,0,0,1-2.99-1.02c-.607-.389-1.049-1.943-1.565-2.971.555-.932,1.11-2.643,1.666-2.647a10.1,10.1,0,0,1,4.7,1.208c.633.327,1.11,2.013,1.658,3.081-.7.835-1.385,1.714-2.1,2.472C712.806,1282.519,712.538,1282.313,711.614,1282.209Z" fill="#deb69b"/>
            <path id="Path_1615" data-name="Path 1615" d="M659.678,1282.174c-1.444-1.232-4.144,1.688-4.031-3.647.1-4.6,2.559-2.258,3.974-2.216,1.328.039,3.6-1.228,3.592,2.953C663.2,1284.026,660.84,1280.729,659.678,1282.174Z" fill="#deb69b"/>
            <path id="Path_1616" data-name="Path 1616" d="M529.742,1275.491a35.541,35.541,0,0,1,4.5,2.5c.307.221.5,1.937.494,2.957,0,.4-.712,1.159-1.081,1.114a58.37,58.37,0,0,1-7.075-1.242c-.435-.108-.81-1.3-1.213-2,.429-.954.8-2.509,1.3-2.733.971-.437,2.016-.126,3.03-.125Z" fill="#deb69b"/>
            <path id="Path_1617" data-name="Path 1617" d="M845.646,1275.864a35.593,35.593,0,0,1,4.5,2.5c.307.221.5,1.938.493,2.957,0,.4-.712,1.159-1.081,1.114a58.369,58.369,0,0,1-7.075-1.242c-.435-.108-.81-1.3-1.213-2,.429-.953.8-2.509,1.3-2.733.971-.436,2.016-.126,3.03-.125Z" fill="#deb69b"/>
            <path id="Path_1618" data-name="Path 1618" d="M676.058,1276.065a27.013,27.013,0,0,1,4.192,1.178,2.825,2.825,0,0,1,1.169,1.977c.042.84-.559,2.653-.837,2.616-2.319-.309-4.628-.946-6.939-1.484.083-1.208.01-3.234.28-3.471A4.3,4.3,0,0,1,676.058,1276.065Z" fill="#deb69b"/>
            <path id="Path_1619" data-name="Path 1619" d="M740.649,1282.1c-.906-.163-1.885.079-2.69-.607-.7-.594-1.2-2.24-1.786-3.42.641-.755,1.3-2.214,1.918-2.131a16.117,16.117,0,0,1,5.015,1.816c.389.2.643,1.592.959,2.435-.346.536-.664,1.385-1.044,1.543A8.673,8.673,0,0,1,740.649,1282.1Z" fill="#deb69b"/>
            <path id="Path_1620" data-name="Path 1620" d="M831.719,1275.321l2.972,2.965c-.957,1.327-1.9,2.7-2.88,3.951a1.67,1.67,0,0,1-.983.483c-1.415.45-3.041.57-3.107-3.319-.061-3.558,1.536-3.426,2.8-3.341.338.023.674.094,1.011.143Z" fill="#deb69b"/>
            <path id="Path_1621" data-name="Path 1621" d="M694.029,1275.657c.879.938,2.94,2.214,2.914,3.267-.116,4.735-2.1,3.089-3.414,3.052-1.362-.039-3.675,1.093-3.693-2.734C689.812,1273.93,692.3,1277.33,694.029,1275.657Z" fill="#deb69b"/>
            <path id="Path_1622" data-name="Path 1622" d="M631.736,1282.445a33.437,33.437,0,0,1-4.029-2.3,4.859,4.859,0,0,1-.893-2.435c.32-1.033.936-2.459,1.376-2.369a23.1,23.1,0,0,1,5.352,2.008c.465.227.837,1.311,1.252,2a10.438,10.438,0,0,1-1.131,2.357C633.179,1282.221,632.564,1282.164,631.736,1282.445Z" fill="#deb69b"/>
            <path id="Path_1623" data-name="Path 1623" d="M646.018,1281.9a11.438,11.438,0,0,1-1.652-.225c-1.109-.382-2.953.794-2.693-3.251.218-3.4,1.886-2.612,3.1-2.337a8.235,8.235,0,0,1,2.991,1.036c.558.377.985,1.633,1.471,2.494a10.208,10.208,0,0,1-1.842,2.2A1.726,1.726,0,0,1,646.018,1281.9Z" fill="#deb69b"/>
            <path id="Path_1624" data-name="Path 1624" d="M724.525,1281.9a3.655,3.655,0,0,1-1.957-.576c-.52-.379-.876-1.776-1.3-2.717.546-.962,1.061-2.621,1.645-2.74a5.577,5.577,0,0,1,3.669.674c.616.323,1.1,1.8,1.642,2.761a32.189,32.189,0,0,1-2,2.828C725.973,1282.411,725.565,1282.068,724.525,1281.9Z" fill="#deb69b"/>
            <path id="Path_1625" data-name="Path 1625" d="M620.582,1282.184c-1.622-.487-2.679-.468-3.6-1.2-.583-.463-.968-2.051-1.442-3.135.628-.778,1.235-2.085,1.89-2.209a3.411,3.411,0,0,1,2.976.873c.826.761,1.447,2.532,2.159,3.858Z" fill="#deb69b"/>
            <path id="Path_1626" data-name="Path 1626" d="M542.111,1282.3c-1.5-1.451-3.834-3.135-3.773-3.753.46-4.656,2.44-3.072,3.836-2.79,1.037.209,2,1.985,3,3.064Z" fill="#deb69b"/>
            <path id="Path_1627" data-name="Path 1627" d="M818.42,1281.892c-.56-.062-1.19.2-1.661-.273A12.041,12.041,0,0,1,815.37,1279a16.673,16.673,0,0,1,1.5-3.234,1.212,1.212,0,0,1,1.646-.117,41.448,41.448,0,0,1,3.483,2.891l-3.3,4.3Q818.56,1282.368,818.42,1281.892Z" fill="#deb69b"/>
            <path id="Path_1628" data-name="Path 1628" d="M777.9,1276.489c.225,0,.48-.147.671.026.877.793,1.736,1.675,2.6,2.525-.861,1.1-1.714,2.224-2.59,3.264-.178.212-.444.125-.669.119-1.175-.032-2.861,1.228-3.008-2.354-.054-1.339,1.7-3.022,2.632-4.548Z" fill="#deb69b"/>
            <path id="Path_1629" data-name="Path 1629" d="M593.328,1281.57c-.565-.087-1.218.176-1.674-.344a19.839,19.839,0,0,1-1.818-3.188,15.253,15.253,0,0,1,2.128-2.621,1.32,1.32,0,0,1,1.665.26,36.6,36.6,0,0,1,2.826,3.247l-2.889,3.557C593.486,1282.177,593.407,1281.874,593.328,1281.57Z" fill="#deb69b"/>
            <path id="Path_1630" data-name="Path 1630" d="M805.168,1281.958c-.558-.1-1.22.175-1.649-.377a17.83,17.83,0,0,1-1.5-3.257,13.113,13.113,0,0,1,1.707-2.7,1.27,1.27,0,0,1,1.651.134,41.269,41.269,0,0,1,3.135,3.19l-3.1,3.882Q805.291,1282.393,805.168,1281.958Z" fill="#deb69b"/>
            <path id="Path_1631" data-name="Path 1631" d="M605.814,1275.053c1.23,1.932,3.259,4,3.15,5.151-.387,4.051-2.134,1.935-3.4,1.826a.849.849,0,0,1-.337-.1c-1-.542-2.683.3-2.373-3.286C602.971,1277.3,604.53,1276.527,605.814,1275.053Z" fill="#deb69b"/>
            <path id="Path_1632" data-name="Path 1632" d="M766.511,1282.2c-1.082-.256-1.612-.081-1.962-.536a16.842,16.842,0,0,1-1.336-2.716,17.22,17.22,0,0,1,1.659-2.9c.326-.363.9.043,1.32.357,1.091.815,2.159,1.771,3.237,2.671Z" fill="#deb69b"/>
            <path id="Path_1633" data-name="Path 1633" d="M552.466,1274.983c1.166,2.008,2.967,3.892,2.878,5.192-.243,3.543-1.879,2.283-3.085,1.992-.114-.028-.252.024-.336-.1-.677-.956-1.344-1.944-2.014-2.922Z" fill="#deb69b"/>
            <path id="Path_1634" data-name="Path 1634" d="M792.575,1281.8c-.735-.107-1.224.052-1.615-.294-.475-.42-1.261-1.431-1.218-1.9.113-1.218.595-3.223.945-3.238a13.38,13.38,0,0,1,4.586.918,12.381,12.381,0,0,1-.066,3.072A10.372,10.372,0,0,1,792.575,1281.8Z" fill="#deb69b"/>
            <path id="Path_1635" data-name="Path 1635" d="M578.542,1275.766c.985.288,1.345.249,1.65.51.946.808,2.693,1.864,2.666,2.586-.136,3.715-1.743,2.7-2.9,2.995a.857.857,0,0,1-.989-.293c-.713-1.107-1.357-2.418-2.028-3.649C577.619,1277.008,578.293,1276.1,578.542,1275.766Z" fill="#deb69b"/>
            <path id="Path_1636" data-name="Path 1636" d="M753.092,1282.5c-.94-1.285-2.7-2.66-2.674-3.839.112-4.53,1.872-2.781,3.141-2.583.451.07.995.021,1.32.534a18.8,18.8,0,0,1,1.179,2.972,9.7,9.7,0,0,1-1.338,1.839c-.4.323-.9.143-1.352.186Z" fill="#deb69b"/>
          </g>
        </g>
      </g>
    </g>
  </g>
</svg>
