<svg xmlns="http://www.w3.org/2000/svg" viewBox="0 0 31.2 31.31"><defs><style>.cls-1{fill:#8bc2f0;}.cls-2{fill:none;}</style></defs><g id="Layer_2" data-name="Layer 2"><g id="レイヤー_1" data-name="レイヤー 1"><path class="cls-1" d="M28,24.91C24,30.44,15.89,32,10,29.56,3.06,26.7-1.17,17.37,1.41,9.64,3.33,3.87,9.29.63,14.88.73a16.2,16.2,0,0,1,13.56,7.8C31.34,13.42,31.37,20.37,28,24.91Z"/><path class="cls-1" d="M10.81,30.52Z"/><path class="cls-1" d="M10.81,30.52Z"/><path class="cls-2" d="M14.09,30.22c0,.07.2.21-.06.23l0,0c.26,0,.15-.15.11-.27S14.12,30.13,14.09,30.22Z"/><path class="cls-2" d="M20.91,30.16l-.06,0c-.16.22.18,0,.1.12l.13-.12C21,30.14,20.94,30.29,20.91,30.16Z"/><path class="cls-2" d="M10.91,30.5l0,0h0l0,.06h.08Z"/><path class="cls-2" d="M20.76,29.44h0l0,.06s.11-.06,0-.11,0-.08-.06-.13,0,.1,0,.1,0,.06,0,.08Z"/><path class="cls-2" d="M11.12,29.76l0,0,0,.11s.09,0,.12,0S11.16,29.77,11.12,29.76Z"/><path class="cls-2" d="M24,29.07s.05,0,.05.06,0,.08,0,.09.12,0,.28-.21h0C24,29.22,24,29,24,29.07Z"/><path class="cls-2" d="M11.64,30.51c0-.05,0-.13,0-.15a.42.42,0,0,0-.22-.08s-.06.1-.09.15h0C11.39,30.64,11.54,30.5,11.64,30.51Z"/><path class="cls-2" d="M15,30.57c-.05,0-.13,0-.16.06s-.08.12,0,.17a.36.36,0,0,1,0-.09Z"/><path class="cls-2" d="M27.08,26.15h0a.14.14,0,0,1,0,.07s0,0,0,0a.11.11,0,0,1-.08,0,.1.1,0,0,1,0-.05s0,0,0,.06c0,.24.15.05.23.05h0C27.21,26.18,27.05,26.22,27.08,26.15Z"/><path class="cls-2" d="M21.44,30a.38.38,0,0,0,.15,0s0,0,0-.08a.88.88,0,0,0-.2,0C21.32,29.89,21.46,29.91,21.44,30Z"/><path class="cls-2" d="M27.63,24.85h0s0,0,0,0,.06.06.05.07a.91.91,0,0,1-.11.16s-.05,0-.07,0l0,.11.06-.09.14-.19s.05,0,.07,0,.16,0,.1.13h.06l.12-.13-.21-.16C27.79,24.82,27.74,24.92,27.63,24.85Z"/><path class="cls-2" d="M12.87,30.65v.05c.19.07.39-.13.56.07,0-.06.08-.13.07-.19s-.17.15-.15-.06a.6.6,0,0,0-.08.08v0a.11.11,0,0,1-.08,0s0-.06,0-.07,0,0,0,0-.25-.23-.33,0C12.82,30.59,12.86,30.63,12.87,30.65Z"/><path class="cls-2" d="M12.77,30.05s.08-.06.11-.09l-.08-.06-.08.08c0-.1,0-.08-.07,0s-.1,0-.06.05S12.71,30.06,12.77,30.05Z"/><path class="cls-2" d="M25.65,26.83s0,.07,0,.11h0l.08.1s0,.05,0,.05-.12,0,0,.1.12.09.22,0c-.07-.21.08-.28.25-.35a.25.25,0,0,0,0-.07C26,26.65,25.81,26.73,25.65,26.83Z"/><path class="cls-2" d="M21.94,28.84a2.74,2.74,0,0,1-.36.23v0h0c.08.07.18-.12.26,0l-.2,0c0,.08.06.19.13.23s0-.18.13-.12l0-.13c0-.11,0-.11.08-.09,0-.16.1,0,.16,0l.05,0a.14.14,0,0,1,0-.06C22.14,28.81,22,29,21.94,28.84Z"/><path class="cls-2" d="M23,29l0,.06c.14-.06,0-.19.08-.27h-.06C23.06,28.82,23.18,28.9,23,29Z"/><path class="cls-2" d="M22.68,28.73s.07.09.05.12l.2,0s0-.11,0-.11A1,1,0,0,0,22.68,28.73Z"/><path class="cls-2" d="M26.72,26.56c-.14.07-.17,0-.17-.13a.31.31,0,0,0-.05-.12s0,0,0,0,.07.13,0,.2-.07.12.05.11h.17l0-.08Z"/><path class="cls-2" d="M12.45,30l0,0c0-.09,0-.17,0-.15s-.18.12-.17.16S12.39,29.89,12.45,30Z"/><path class="cls-2" d="M24.12,29s0,0,0,0l.14-.07h0l.05,0s0-.05,0-.08S24.19,29,24.12,29Z"/><rect class="cls-1" x="14.18" y="30.2" transform="translate(-18.99 26.67) rotate(-58.77)"/><polygon class="cls-1" points="11.34 30.43 11.34 30.43 11.34 30.43 11.34 30.43"/><rect class="cls-1" x="14.81" y="30.8" transform="translate(-19.36 30.56) rotate(-63.9)"/><path class="cls-1" d="M11.08,29.74l.09-.27c0,.06.08.13.16,0l.33.15,0,0c.23-.08.43.11.63.09s.33.09.49.13.23,0,.32.09l0,0-.05,0h0l.08.13h0c.05,0,.1-.08.15,0a.07.07,0,0,0,.06,0h.07l0,0a.27.27,0,0,1,.07-.08.14.14,0,0,1,.09,0,.9.9,0,0,0,.54,0,.11.11,0,0,1,.08,0v0h0l-.14,0,.08.05s0-.05,0-.05l.27,0a.86.86,0,0,0-.17,0s0,.05,0,.08h0s-.06-.07-.09,0,.2.21-.06.23l0,0c.26,0,.15-.15.11-.27h0c.16-.07.31-.1.42.1h0s0-.05,0-.08l-.06-.05.12,0v.08c.13-.07.23.15.36,0s0-.05,0-.05l-.11,0,0,0a.51.51,0,0,1,.15-.07s.06,0,.09,0,0,0,0,0c.07-.14.11,0,.17,0a.58.58,0,0,0-.14,0s-.16,0-.09.1.14,0,.21,0a.19.19,0,0,1,.1,0c0,.11-.11,0-.16.08s-.08-.06-.14-.05.16.12.24.12.2.06.19.2,0,0,0,.05a0,0,0,0,0,0,0l0,0,0-.1s.09.08.11,0,0-.06,0,0l.06.11c0-.08,0-.11.06-.14s-.13-.06-.17,0-.13,0-.14-.12a3.38,3.38,0,0,1,.45,0c.08,0,.15,0,.17-.05s-.06-.07-.11-.08a.39.39,0,0,0-.18,0c-.1,0-.25-.05-.32.09l-.07-.05.16-.16s.09,0,0,.05c.08-.08.15,0,.24,0s.2-.09.3-.1,0,.07,0,.11.12.06,0,.12l0,0,.07.18,0-.07h0l0,0c-.07.16,0,.17.15.18l.06,0h-.08s-.12.05-.12.07-.14.1-.2.15l-.1-.07c.08,0,.05,0,.05-.06.2,0,0-.15.12-.19l0-.09s-.06.05-.06.07c0,.34-.23.19-.38.13h-.08l.12.12.06,0,0,.05s0,0,0,0-.31,0-.28-.2l-.14.09,0,0,0,0,0,.23h-.07s0,0,0-.06c-.17.14-.22-.19-.38-.1,0,0,0,0,0,0,0-.28-.14.05-.16-.06h0a.36.36,0,0,1,0-.09l.11-.14c-.05,0-.13,0-.16.06s-.08.12,0,.17h0c0,.1.18,0,.11.1s-.13,0-.13,0c-.06-.22-.18-.06-.27-.05l0,0c.26.12,0,.18,0,.26l-.07,0c.06-.1-.21,0-.08-.16v0l-.1,0,0,0a.14.14,0,0,1,0-.06l.05,0h.15s0,0,0,0-.19,0-.2,0c-.09.21-.22-.05-.3,0s-.19-.18-.24,0c0,0,0,0,0,0s-.15-.07-.22-.11a.4.4,0,0,0-.35,0c-.08,0-.06-.05-.08,0a.34.34,0,0,0-.09.08l-.1-.23s0,0,0,0a.2.2,0,0,0-.08,0s0,0,0,.06l-.11-.08s0,0,.05,0a.49.49,0,0,0,0-.11l-.07,0h0c.09-.2-.13-.06-.19-.15s-.28-.12-.44,0a.11.11,0,0,1-.08,0s0,0,0-.05l0,.18c0,.18-.17.22-.33.15s0-.11-.05-.17h0c.05.21.2.07.3.08s0-.13,0-.15a.42.42,0,0,0-.22-.08s-.06.1-.09.15h0c-.24,0,0-.07,0-.1a1,1,0,0,0,0-.1l-.07,0,0-.23-.06.13a.45.45,0,0,1-.06.12s-.06,0-.09,0l.07-.06-.08-.08s-.08,0-.11,0l.1-.32s.09,0,.12,0,0-.08,0-.09Zm1.75.82s0,.07,0,.09v.05c.19.07.39-.13.56.07,0-.06.08-.13.07-.19s-.17.15-.15-.06a.6.6,0,0,0-.08.08v0a.11.11,0,0,1-.08,0s0-.06,0-.07,0,0,0,0S12.91,30.29,12.83,30.56ZM12.59,30s.12,0,.18,0,.08-.06.11-.09l-.08-.06-.08.08c0-.1,0-.08-.07,0S12.55,30,12.59,30Zm-.33,0c0,.15.13-.1.19,0l0,0h0c0-.09,0-.17,0-.15S12.25,30,12.26,30Z"/><polygon class="cls-1" points="20.76 29.44 20.76 29.44 20.76 29.44 20.76 29.44"/><path class="cls-1" d="M27.61,24.64v0l.23.16c-.06.05-.11.15-.22.08h0s0,0,0,0,.06.06.05.07a.91.91,0,0,1-.11.16s-.05,0-.07,0l0,.11.06-.09.14-.19s.05,0,.07,0,.16,0,.1.13h.06l.12-.13.1.07a.08.08,0,0,1,0,0,.13.13,0,0,1-.1.06c-.12,0-.09.1-.16.12l.12.35c0-.06,0-.16.15-.12l.05,0,0,0c-.12,0,.09.2,0,.17s0,.11-.08.13a.1.1,0,0,0-.11.14S28,26,28,26s0,.2-.18.11,0,0,0,0l-.1.09s0,0,0-.05,0,0,0,0l-.17-.34s-.05-.08-.08-.09-.06,0-.09.05,0,.08.06.09c.32.11,0,.24,0,.34s0,.05,0,.05.09,0,0,.06a.18.18,0,0,1-.08.05.76.76,0,0,1-.09-.09s0,.07,0,.08,0,.1,0,.14h-.07c0-.06,0-.12.05-.14-.08-.14,0-.19.12-.24l-.15,0c.07.1,0,.12-.08.16s0,0,0,0h0c.07-.09-.09-.05-.06-.12h0a.14.14,0,0,1,0,.07s0,0,0,0a.11.11,0,0,1-.08,0,.1.1,0,0,1,0-.05s0,0,0,.06c0,.24.15.05.23.05h0a.16.16,0,0,1-.21.15.29.29,0,0,0-.16,0l.09.07v-.06l.07,0c-.18.15.07.23.06.36v0c-.25-.17-.09.21-.25.19s0-.05,0-.07a.75.75,0,0,1,.06-.13c-.11,0-.19-.22-.34-.09v0s.06,0,.07,0,.1,0,.05.08-.16,0-.07.12.1-.05.14-.08h.05c-.08.07,0,.13,0,.2,0,.24-.23.32-.38.45v-.31a.1.1,0,0,1,0,0,1.21,1.21,0,0,1-.3.22c-.13.06-.13.25-.3.26s-.1.29-.12,0c0,0,0,0,0,0,0,.25-.29.09-.34.25s-.05,0-.08.05h.2l-.05.06a.09.09,0,0,0,0,.05.1.1,0,0,0,0,0V28.2l0,0,0,0a.22.22,0,0,1,0,.11.21.21,0,0,1-.07.11,1.06,1.06,0,0,1-.35.26c-.09,0,.07-.06,0-.09a0,0,0,0,0-.05,0s-.08.08,0,.14,0,.06,0,.09-.12,0-.14,0,.05,0,0,0c-.06-.31.22-.32.38-.44s0,0,0,0h-.56l0,0v0l.12,0c-.06,0-.12-.1-.17-.1s-.06-.1-.1-.14l.13-.06h.09s0-.08-.05-.08-.06.05-.09.05c-.23,0-.06.25-.18.32s-.15,0-.22.06a.2.2,0,0,0-.06.13s.07.06.1.1l.07.09-.07,0-.1.15,0,0v-.13a.18.18,0,0,1-.05.07l-.48.07v0l.13-.05s.05,0,.06,0l.17-.21h-.05l-.26.09a.17.17,0,0,0-.08.23s0,.11,0,.14l-.08,0a0,0,0,0,0-.05,0h.05s0,.12.1.14,0-.07.08-.07.08.15.17.16l-.07.12.25-.05-.05-.14c.06,0,.08-.06.09-.13,0-.22.28,0,.36-.17l0,.13h0c-.13,0-.11.11-.18.13s0,0,0,0l.14-.07c-.22.21-.21,0-.3.06s.05,0,.05.06,0,.08,0,.09.12,0,.28-.21l.05,0s0-.05,0-.08h0c.09,0,.16,0,.17.11s-.07,0-.1.07-.15.19-.31.19-.36.11-.39.09c-.22-.14-.19.17-.32.15s-.09,0-.11,0,0-.13.08-.14,0,0,0,0l-.18,0-.19,0,.08-.06.06,0c0-.19.21,0,.23-.18l0,0a1.25,1.25,0,0,0-.19,0c-.09.05-.18.12-.28.17a.1.1,0,0,1-.09,0s0-.05,0-.08.09-.06.08,0a0,0,0,0,0,0,0,.21.21,0,0,0,0-.07s0,0,0,0l-.29.11h0a.22.22,0,0,1-.32,0,.09.09,0,0,1,0,.07c0,.22-.22.12-.34.14l-.08.05.06,0,.07,0s-.07.08-.12.1-.08,0-.1-.07a.67.67,0,0,0-.08-.17s-.1,0-.14,0v.05l.08,0s0,0,0,0v.15l0-.08h.05l.06.26-.05,0,.15,0s0,0,0-.06,0-.09,0-.11,0,0,.06.05a.27.27,0,0,0,.34-.14c.1-.33.12,0,.18,0s0,.15.11.2v0l-.11,0,0,0s.12,0,.05-.06-.13-.05-.19-.07v.15c0,.14.07,0,.1,0a.88.88,0,0,0,.15.12c-.09,0-.24.12-.25.1-.12-.17-.16,0-.25,0s-.17.24-.29,0v.09c-.11,0-.24,0-.13.14,0,0-.07.05-.11.05s-.05,0-.08-.06-.14-.11-.23,0,0,0-.07,0,0,0,0,0l.07-.06-.12,0h0c0-.06-.14.09-.17,0l-.06,0c-.16.22.18,0,.1.12l.13-.12h0c0,.05-.06.14-.07.13s-.2.11-.27,0a.38.38,0,0,0-.16-.11s0,.07,0,.08a.62.62,0,0,1-.23.14c-.15,0,0-.06,0-.07s-.12,0-.15,0-.18.13-.27,0l-.05,0s-.1.09-.12,0-.08,0-.12,0,0-.12-.09-.16,0,0,0,0c0,.22-.29.23-.28.45a.48.48,0,0,1-.08.18.15.15,0,0,0-.21,0c-.1,0,0,.06,0,.07a1.09,1.09,0,0,0,0,.18h-.26a.72.72,0,0,0,.15-.11s0-.06,0-.09l-.05,0c-.16-.11-.17.08-.25.12s0,0,0,0l0-.11,0,0,.08,0s0,0,0,0l-.13,0s0,.05,0,.07V31c-.14-.07-.27.21-.41,0s-.11.1-.18,0l-.07.08.05-.18,0-.07h0c0,.1-.12.11-.1.12.15.17-.06.17-.1.18a5.45,5.45,0,0,1-.7,0h-.05l.05,0,.11,0-.08,0-.21.06v0s-.07,0-.08,0-.1,0-.15,0l-.06,0,0,0c.12-.09-.1-.21,0-.19s.24,0,.33-.07.2-.17.33,0l0-.08c-.11,0,.09-.15-.06-.12h0s0,0,.05,0a.61.61,0,0,1,.19,0s.05,0,.07,0l.35-.16.05,0c.06,0,.15,0,.16,0s-.08,0-.14,0-.05,0-.05,0,0-.15-.09-.05c0-.06,0-.06-.11,0s-.17.27-.32.07c0,0,0,0-.05,0l-.15,0s.1-.08.1-.1-.05.05-.11,0-.09-.11,0-.14.11.1.19,0,.11,0,.16-.08,0,0,0-.06h0a.27.27,0,0,1-.33-.05c0-.17.09-.07.14-.06.22,0,.44,0,.66.05s-.13.09,0,.14l-.13-.06c0,.07.05.17.1.21s.13,0,.2,0l-.17-.12.32,0s0,0,.05-.06h0l.13-.25s.05,0,.08,0,.07-.06.1,0,0,0,0,0,0,0,0,0a.33.33,0,0,0,0-.1l.08.16,0,0,.06-.05,0,0,0-.11c.08.06.1,0,.15-.08s.14.08,0,.12v.05h.09a2.91,2.91,0,0,1,.48-.21c.07,0,.17.11.25.17a.32.32,0,0,1-.09,0s0-.05-.06-.07-.05,0-.07,0l.08.18,0,0,.11,0s.08,0,.1,0a.13.13,0,0,0,0-.09s-.08-.1-.11,0l0,0s0-.11,0-.12a.48.48,0,0,1,.17-.05c.11,0,.24.06.31-.1l.13,0s-.06,0-.06,0v.26l0,0,.17-.13s0,0,0,0l.1.08-.05,0,0,0h.05c.14-.16.3,0,.46,0h0a0,0,0,0,1,0,0s0-.07.06-.08.27,0,.3-.2a1.06,1.06,0,0,0-.19.06l-.12.07c0-.07-.1-.13,0-.21h0l0,.06s.11-.06,0-.11,0-.08-.06-.13,0,.1,0,.1,0,.06,0,.08h0c-.11,0,0,.27-.2.23s-.18,0-.28.07c0-.13.11,0,.11-.1s-.06-.1-.05-.13-.08-.14,0-.15,0,.1,0,.11l.28.06-.06-.15-.05,0c-.07,0-.1,0-.07-.1s.11,0,.13,0,.22,0,.33,0l.09,0L21,29.21h-.14s.1-.09.14-.08a.32.32,0,0,1,.14.14l.17.27s.08,0,.09,0,0-.12-.08-.16l.25-.12.07-.06L21.49,29l-.06.11,0,0s-.05,0,0,0,0-.13.06-.14a2.88,2.88,0,0,1,.67-.21c.13,0,.21-.11.33-.09-.08-.23.22,0,.19-.18.09.15.18,0,.28,0s.13-.08.09-.18,0,0,0-.07l0,0h0c.08-.2.32-.19.45-.34l.11.05,0,0a0,0,0,0,0,0,0l0,0-.05-.09h0c0,.08.12-.12.15,0l0,0c0-.14.13-.05.17-.1l-.07,0-.1,0a.39.39,0,0,1,.1-.08.53.53,0,0,1,.17,0c.09,0,.12.15.23.1a.08.08,0,0,0,0-.07.2.2,0,0,0,0-.06.17.17,0,0,1-.18-.09s0,0,0,0,.18,0,.22.16.21-.13.31,0,.1,0,.16,0c-.2,0,0-.38-.31-.3,0,0-.05,0-.07-.05l.09-.1v0c.09.08,0-.07.09-.05s0,0,0,0c0-.21.25-.21.36-.33s.23-.11.34-.17,0-.11,0-.14.08-.05.12-.07,0,0,0,.06h-.06v0l.16.1s.08,0,.08-.06.15-.06.21-.11.06,0,.09,0a1.14,1.14,0,0,0-.15-.16s-.09,0-.12.05a.18.18,0,0,1-.25,0,.59.59,0,0,0,.16-.06.46.46,0,0,0,.25-.36,0,0,0,0,1,0,0c.12-.05.3,0,.34-.2.28.14.09-.33.32-.23,0,0,0,.1,0,.14s-.06.17,0,.2.14-.07.21-.12l.05,0,0,0s0,0,0,0,0,.07,0,.07a.67.67,0,0,0,.14.09v0L27,26h0l0-.06.11-.14c-.11.07-.14-.08-.2-.07s-.06-.25-.21-.1v-.09l0,0,.19,0s0,.05.05.05l.09,0c0-.11,0-.24.15-.13a.35.35,0,0,1,0-.11c.06-.07.17-.09.13-.21h.08a.39.39,0,0,0,0-.18s-.09-.05-.14-.07-.06,0-.09,0l.14-.19,0,0s0,.1.08.06C27.43,24.65,27.59,24.7,27.61,24.64Zm-6,5.25a.88.88,0,0,0-.2,0c-.11,0,0,.06,0,.11a.38.38,0,0,0,.15,0S21.62,29.92,21.63,29.89Zm.31-1.05a2.74,2.74,0,0,1-.36.23v0h0c.08.07.18-.12.26,0l-.2,0c0,.08.06.19.13.23s0-.18.13-.12l0-.13c0-.11,0-.11.08-.09,0-.16.1,0,.16,0l.05,0a.14.14,0,0,1,0-.06C22.14,28.81,22,29,21.94,28.84Zm1-.07a1,1,0,0,0-.25,0s.07.09.05.12l.2,0S23,28.77,22.93,28.77Zm.21,0h-.06c0,.09.1.17,0,.22l0,.06C23.2,29,23.09,28.82,23.14,28.74Zm3-1.95c-.19-.14-.35-.06-.51,0s0,.07,0,.11h0l.08.1s0,.05,0,.05-.12,0,0,.1.12.09.22,0c-.07-.21.08-.28.25-.35A.25.25,0,0,0,26.16,26.79Zm.59-.22h0c-.14.07-.17,0-.17-.13a.31.31,0,0,0-.05-.12s0,0,0,0,.07.13,0,.2-.07.12.05.11h.17Z"/><polygon class="cls-1" points="24.25 29.01 24.25 29.01 24.25 29.01 24.25 29.01"/><rect class="cls-1" x="20.76" y="29.44" transform="translate(-14.59 36.35) rotate(-65.87)"/><polygon class="cls-1" points="27.36 25.1 27.36 25.1 27.36 25.09 27.36 25.1"/><polygon class="cls-1" points="20.76 29.44 20.76 29.44 20.76 29.44 20.76 29.44"/><polygon class="cls-1" points="21.08 30.2 21.08 30.2 21.08 30.2 21.08 30.2"/><rect class="cls-1" x="24.3" y="28.89" transform="translate(-9.11 46.49) rotate(-77.71)"/><polygon class="cls-1" points="27.14 26.27 27.14 26.27 27.14 26.27 27.14 26.27"/><path class="cls-1" d="M23.3,28.91h.05A0,0,0,0,0,23.3,28.91Z"/><path class="cls-1" d="M19.85,30.78a.45.45,0,0,1,.4-.09c.07,0,.14-.06.21-.09l.05-.14-.13.05-.46.13-.11,0s0,.06-.07.08S19.83,30.8,19.85,30.78Z"/><path class="cls-1" d="M21.18,30.45l0,0-.26,0-.14.17C21,30.6,21.06,30.51,21.18,30.45Z"/><path class="cls-1" d="M27.11,26.76c0-.19.19,0,.25-.09v0c.1-.21-.1,0-.12-.09l-.22.18s0,0,0,.05S27.1,26.83,27.11,26.76Z"/><path class="cls-1" d="M16.51,30.5l-.05.06H16.4a1.52,1.52,0,0,0,.2.06s0-.05.08-.08h-.09a.11.11,0,0,0-.14-.1s0,0-.05,0,.1,0,0-.06l-.08,0a.56.56,0,0,0,.05.08Z"/><path class="cls-1" d="M22.57,29.23c-.12.07-.06.14,0,.19s.09-.07.12-.11a.2.2,0,0,0,0-.11h0c-.06.11-.08,0-.12,0h0Z"/><path class="cls-1" d="M24.53,28.4c-.06-.08.14,0,.06-.13l-.11-.09c-.06.14,0,.23.15.37Z"/><path class="cls-1" d="M11,30.41l-.1-.06,0,.1h0l0,0h-.08v0C11,30.6,10.9,30.41,11,30.41Z"/><path class="cls-1" d="M15.45,31.23a.55.55,0,0,0,.15.08s.06,0,.09-.06l-.11-.08C15.35,31.09,15.52,31.24,15.45,31.23Z"/><path class="cls-1" d="M16.52,30.16l.08-.11h0l0-.06-.19.07.11.1S16.52,30.17,16.52,30.16Z"/><polygon class="cls-1" points="18.02 30.15 18.02 30.15 18.02 30.15 18.02 30.15"/><polygon class="cls-1" points="18.02 30.15 18.02 30.15 18.02 30.15 18.02 30.15"/><path class="cls-1" d="M18,30c-.11,0,.19-.07,0-.07,0,0-.05,0-.08.06l-.07,0,.14.2,0,0A.88.88,0,0,0,18,30Z"/><polygon class="cls-1" points="18.02 30.15 18.02 30.15 18.02 30.15 18.02 30.15 18.02 30.15 18.02 30.15"/><path class="cls-1" d="M22.83,29.66s-.06,0-.07,0-.07.13-.14.05l.1.11Z"/><path class="cls-1" d="M25.75,28.05c0-.13-.12,0-.17,0s.1.11,0,.09,0,.05,0,.05S25.64,28,25.75,28.05Z"/><path class="cls-1" d="M27.33,24.93s-.07.09-.1.14l.13,0C27.32,25,27.48,25,27.33,24.93Z"/><polygon class="cls-1" points="27.36 25.09 27.36 25.09 27.36 25.1 27.36 25.1 27.36 25.1 27.36 25.09"/><polygon class="cls-1" points="27.36 25.1 27.36 25.1 27.36 25.09 27.36 25.1"/><polygon class="cls-1" points="16.6 30.05 16.75 30.18 16.72 30 16.6 30.05 16.6 30.05"/><path class="cls-1" d="M16.6,30.05Z"/><path class="cls-1" d="M12.78,30.92l0,0,.14.11L13,31C13,30.82,12.8,31,12.78,30.92Z"/><path class="cls-1" d="M28.44,25.41c-.05,0-.11,0-.14,0s0,.08,0,.12l.14-.1Z"/><path class="cls-1" d="M.05,15.42Z"/><path class="cls-1" d="M.05,15.42Z"/><path class="cls-2" d="M1.47,18.39c-.08,0-.14.27-.24,0,0,0,0,0,0,0,.08.24.19.09.3,0S1.56,18.39,1.47,18.39Z"/><path class="cls-2" d="M3.78,24.81l-.06,0c-.26-.08.06.17-.08.13l.15.09C3.84,24.93,3.67,24.88,3.78,24.81Z"/><path class="cls-2" d="M.1,15.51l0,0v0H.06v0Z"/><path class="cls-2" d="M4.42,24.44h0l0,.07s.09.09.11,0,.07-.07.1-.1-.08,0-.09,0-.07,0-.07,0Z"/><path class="cls-2" d="M.87,15.44v0H.76s0,.09,0,.11S.87,15.48.87,15.44Z"/><path class="cls-2" d="M5.77,27.36s0,.06,0,.06-.09,0-.09,0,.06.11.28.21h0C5.65,27.48,5.83,27.43,5.77,27.36Z"/><path class="cls-2" d="M.35,16.19c.05,0,.14,0,.14,0a.36.36,0,0,0,0-.23s-.11,0-.18,0h0C.14,16,.32,16.09.35,16.19Z"/><path class="cls-2" d="M1.45,19.34c0-.05-.06-.12-.1-.14s-.15,0-.16.06l.1,0Z"/><path class="cls-2" d="M9.52,29.4v0l-.06,0s0,0,0,0a.14.14,0,0,1,0-.09l0,0a.09.09,0,0,0-.07,0c-.22.11,0,.16,0,.24h0C9.54,29.54,9.45,29.39,9.52,29.4Z"/><path class="cls-2" d="M4.12,25.26a.37.37,0,0,0,0,.15s0,0,.08,0,0-.16,0-.2S4.17,25.27,4.12,25.26Z"/><path class="cls-2" d="M10.93,29.51s0,0,0,0h0s0,.08,0,.08a.66.66,0,0,1-.2-.06.11.11,0,0,1,0-.06l-.1.07.1,0,.23.07s.05,0,.05.06,0,.15-.09.13,0,.06,0,.06L11,30l.09-.26C11,29.65,10.9,29.64,10.93,29.51Z"/><path class="cls-2" d="M.65,17.39H.59c0,.2.28.32.15.55.07,0,.15,0,.2,0s-.19-.11,0-.17l-.11,0,0,0s0-.05,0-.07a.13.13,0,0,1,.07,0c.1.07,0,0,0,0s.11-.32-.16-.3C.69,17.32.66,17.38.65,17.39Z"/><path class="cls-2" d="M1.16,17.09a.46.46,0,0,0,.14.07l0-.09L1.22,17c.09-.05.07-.07,0-.08s0-.08-.06,0A.2.2,0,0,0,1.16,17.09Z"/><path class="cls-2" d="M8.43,28.26s-.08,0-.12,0v0a.61.61,0,0,1-.07.1H8.18s-.07-.11-.1,0a.16.16,0,0,0,.06.22c.18-.14.29,0,.41.11h.07C8.7,28.51,8.57,28.38,8.43,28.26Z"/><path class="cls-2" d="M5.36,25.37,5,25.11H5l0,0c0,.1.18.14.06.26L5,25.22c-.06.07-.15.13-.17.2s.17-.06.16.09l.11-.09c.09-.05.11,0,.11,0,.16,0,.06.09.08.14s0,0,0,.06a.08.08,0,0,1,0,0C5.45,25.56,5.24,25.44,5.36,25.37Z"/><path class="cls-2" d="M5.6,26.46l-.06,0c.1.1.2-.05.29,0v0C5.73,26.42,5.69,26.56,5.6,26.46Z"/><path class="cls-2" d="M5.68,26.05s-.07.1-.1.09l0,.19.11,0C5.74,26.25,5.72,26.2,5.68,26.05Z"/><path class="cls-2" d="M9,29.2C8.9,29.09,9,29,9.09,29s.06-.06.09-.09h0C9,28.8,9,29,9,29s-.14,0-.09.09l.06.15H9Z"/><path class="cls-2" d="M1.12,16.77h0c.09,0,.17,0,.13-.09s-.17-.13-.21-.1S1.21,16.67,1.12,16.77Z"/><path class="cls-2" d="M5.85,27.51s0,0,0,0l.1.1h0l0,0s.06,0,.08,0S5.9,27.57,5.85,27.51Z"/><rect class="cls-1" x="1.52" y="18.47" transform="translate(-16.81 15.69) rotate(-76.66)"/><polygon class="cls-1" points="0.31 15.89 0.31 15.89 0.31 15.89 0.31 15.89"/><rect class="cls-1" x="1.18" y="19.26" transform="translate(-18.07 17.99) rotate(-82.7)"/><path class="cls-1" d="M.87,15.39l.29,0c0,.07-.1.13.07.15,0,.12,0,.24,0,.36l0,0c.16.19.06.44.15.62s0,.35,0,.52.12.2,0,.32a.07.07,0,0,0,0,.05l0,0,0,0-.09.12s0,0,0,0,.1.07.06.15,0,0,0,.06l0,.05,0,0,.1,0a.14.14,0,0,1,0,.09.92.92,0,0,0,.2.5s0,.05,0,.07h0s0,0,0-.06l-.08-.11,0,.09.05,0a2.41,2.41,0,0,0,.08.25l-.09-.14s-.06,0-.09,0h0s0-.08-.05-.08-.14.27-.24,0c0,0,0,0,0,0,.08.24.19.09.3,0h0c.13.13.22.26.07.43,0,0,0,0,0,0h.08s0,0,0-.06l.09.09-.08,0c.11.09-.07.27.1.35,0,0,0,0,0,0l-.05-.09,0,0a1.14,1.14,0,0,1,.11.11s0,.07,0,.1l0,0c.15,0,0,.1,0,.16a.47.47,0,0,0-.07-.12s0-.16-.12-.06,0,.14.05.21a.2.2,0,0,1,0,.11c-.11,0-.08-.1-.13-.13s0-.1,0-.15-.06.19,0,.27,0,.21-.13.25,0,0,0,.06,0,0,0,0,0,0,0,0l.09-.06s0,.11,0,.11.05,0,0,0l-.07.1c.05-.06.1,0,.15,0s0-.14,0-.17,0-.13.07-.17a3.07,3.07,0,0,1,.17.42c0,.07,0,.15.1.14s.05-.08,0-.13a.35.35,0,0,0-.08-.16c-.08-.08,0-.25-.21-.27l0-.08.2.1s.05.07,0,0c.11.06.07.14.07.24s.16.15.2.25-.06,0-.11,0,0,.13-.11.06,0,0,0,0l-.15.13H2v0a.1.1,0,0,1,0,0c-.17,0-.15.09-.11.2s0,0,0,.06a.25.25,0,0,0,0-.07s-.07-.09-.09-.09-.14-.09-.21-.14,0-.08,0-.11,0,0,.07,0c0,.2.15,0,.22,0l.07-.06s-.06,0-.08,0c-.33.09-.24-.15-.26-.31s0-.05,0-.07h0l-.06.15a.13.13,0,0,0,0,.06H1.4s0-.05,0-.06-.15-.28.09-.33l-.13-.1s0,0,0,0l0,0-.21.1s0,0,0-.07l.06,0c-.19-.12.11-.28,0-.4a0,0,0,0,1,0,0c.28-.06-.09-.13,0-.18h0l.1,0,.16.06c0-.05-.06-.12-.1-.14s-.15,0-.16.06h0c-.1,0,.1.16-.06.14s-.07-.12-.07-.12c.2-.13,0-.19,0-.27H1c0,.28-.16.08-.25,0s0,0,0-.06-.06-.2.12-.12h0a.41.41,0,0,0,0-.11s0,0,0,0l0,0a0,0,0,0,1,0,0l.07.14,0,0c0-.07-.06-.18-.09-.18-.22,0,0-.23-.12-.27s.11-.24-.1-.22h0c.13-.07,0-.16,0-.24a.41.41,0,0,0-.12-.33c-.06-.06,0-.07,0-.09l-.11-.05.18-.17s0,0,0-.05a.16.16,0,0,0-.08-.06s0,0-.05,0l0-.13,0,0H.7l0,0,0,0c.22,0,0-.14.09-.22s0-.3-.13-.42a.13.13,0,0,1,0-.09s0,0,0,0l-.17,0c-.19,0-.27-.09-.27-.26s.09-.07.14-.1h0c-.17.12,0,.2,0,.3s.14,0,.14,0a.36.36,0,0,0,0-.23s-.11,0-.18,0h0c0-.24.07,0,.1,0a.3.3,0,0,0,.08-.08l0,0,.23-.06H.52a.59.59,0,0,1-.13,0s0-.06,0-.09l.08,0,0-.11s-.07-.05-.08-.08l.34,0s0,.09,0,.11.08,0,.08-.07ZM.72,17.32s-.06.06-.07.07H.59c0,.2.28.32.15.55.07,0,.15,0,.2,0s-.19-.11,0-.17l-.11,0,0,0s0-.05,0-.07a.13.13,0,0,1,.07,0c.1.07,0,0,0,0S1,17.3.72,17.32Zm.42-.41a.2.2,0,0,0,0,.18.46.46,0,0,0,.14.07l0-.09L1.22,17c.09-.05.07-.07,0-.08S1.17,16.86,1.14,16.91Zm-.08-.32c-.12.08.15.08.06.18h0c.09,0,.17,0,.13-.09S1.1,16.56,1.06,16.59Z"/><polygon class="cls-1" points="4.42 24.44 4.42 24.44 4.42 24.44 4.42 24.44"/><path class="cls-1" d="M11.13,29.43h0l-.08.26c-.07,0-.18-.05-.15-.18s0,0,0,0h0s0,.08,0,.08a.66.66,0,0,1-.2-.06.11.11,0,0,1,0-.06l-.1.07.1,0,.23.07s.05,0,.05.06,0,.15-.09.13,0,.06,0,.06L11,30l0,.11h-.05a.11.11,0,0,1-.08-.08c0-.13-.13-.05-.17-.11l-.3.23c.07,0,.16,0,.17.09s0,0,.05,0l0,0c-.08-.1-.16.15-.18,0s-.1,0-.14,0a.11.11,0,0,0-.17-.05.42.42,0,0,1-.12,0c0-.12-.21,0-.17-.13h0L9.62,30s0,0,.05,0l0,0c.09-.09.18-.17.26-.26a.18.18,0,0,0,.06-.1s0-.05-.07-.08-.07.06-.07.09c0,.35-.21,0-.32.09s-.05,0,0,0,0,.08,0,.06-.08-.05-.07-.06a.31.31,0,0,1,.05-.12s-.06,0-.07.06-.1,0-.14,0,0-.06,0-.06.1-.07.15,0c.1-.12.18,0,.26,0l0-.16c-.07.1-.12,0-.18,0s0,0,0,0h0c.11,0,0-.11.09-.1v0l-.06,0s0,0,0,0a.14.14,0,0,1,0-.09l0,0a.09.09,0,0,0-.07,0c-.22.11,0,.16,0,.24h0a.16.16,0,0,1-.21-.16.34.34,0,0,0-.05-.14l0,.1h.06v.08c-.21-.12-.21.14-.33.17h0c.09-.29-.23,0-.26-.17s0-.05.06-.05l.14,0c0-.12.15-.25,0-.35h0a.22.22,0,0,1,0,.08s0,.09-.06.07-.08-.14-.13,0,.07.08.12.11,0,0,0,0-.13,0-.19.07c-.22.07-.37-.11-.54-.22l.21-.06.08,0s0,0-.06,0a1.61,1.61,0,0,1-.3-.21c-.1-.11-.28-.05-.35-.21s-.3,0,0-.11h0c-.24.11-.18-.25-.35-.25s0,0-.07-.05a.43.43,0,0,1,0,.07l0,.12-.07,0s0,0,0,0l0,.07h.09s0,0,0,0a.22.22,0,0,1-.11,0,.25.25,0,0,1-.12,0c-.12-.08-.28-.14-.35-.25s.08.05.09,0,0,0,0-.05-.1-.05-.14,0,0,0-.07.06-.06-.1-.05-.13,0,0,.05,0c.28-.15.38.12.54.23,0,0,0,0,0,0a.13.13,0,0,0,0-.06l-.14-.48s0,0,0-.05h0l.07.1c0-.07.06-.15,0-.2s.07-.08.1-.13l.09.1a.2.2,0,0,1,0,.08s.06-.05.06-.07-.06,0-.07-.07c-.08-.21-.26,0-.36-.07s-.08-.13-.13-.19a.19.19,0,0,0-.15,0s0,.08-.06.12l-.06.1v-.09l-.18,0,0,0,0,0,.08,0s-.07,0-.08,0L6,26.82l0,0a.76.76,0,0,1,.08.11s0,.06,0,.06l.25.1s0,0,0,0l-.17-.23a.16.16,0,0,0-.24,0,.17.17,0,0,1-.14,0s0,0,0-.08l0,0,0,0c0,.06-.11.08-.1.15s.06,0,.09.05-.12.13-.11.21l-.13,0,.13.22.11-.09a.14.14,0,0,0,.15.05c.21,0,.1.26.27.3L6,27.64H6c0-.14-.13-.07-.18-.13s0,0,0,0l.1.1c-.26-.14-.08-.19-.14-.26s0,.06,0,.06-.09,0-.09,0,.06.11.28.21l0,0s.06,0,.08,0H6c0,.09,0,.16-.07.2l-.09-.08c-.09-.07-.23-.08-.27-.24s-.21-.31-.2-.34c.07-.26-.22-.13-.25-.25a.27.27,0,0,1,0-.12c.08-.16.12,0,.17,0s0,0,0,0l0-.17,0-.18a.24.24,0,0,1,.08.06s0,0,0,.05c.17-.08.12.18.25.15s0,0,0,0a.86.86,0,0,0-.1-.16c-.08-.08-.18-.13-.26-.21a.1.1,0,0,1,0-.09l.08,0s.08.08,0,.09v0h.09s0-.05,0-.05l-.19-.25h0a.21.21,0,0,1-.08-.31l-.07,0c-.21,0-.17-.18-.24-.29l-.07-.05s0,0,0,.06l0,.07a.71.71,0,0,1-.15-.08s0-.08,0-.11.11-.08.14-.13,0-.09,0-.14l0,0,0,.06s0,0,0,0l-.15,0h.09s0,0,0,.05a1.64,1.64,0,0,1-.22.14l0,0v.16s0-.05,0-.05a.27.27,0,0,1,.12,0c.11.05,0,.05,0,.08,0,.18.19.26.25.26.33,0,0,.13,0,.18s-.13.09-.16.17h0v-.11s0,0,0,0,0,.11.07,0,0-.14,0-.21L4.6,26c-.13,0,0,.05,0,.1a.89.89,0,0,0-.08.17c-.06-.07-.18-.19-.16-.2.12-.17,0-.16-.11-.23s-.29-.07-.14-.25l-.09,0c0-.11,0-.25-.17-.08a.28.28,0,0,1-.07-.09.13.13,0,0,1,0-.1c0-.09.06-.17-.06-.22s0-.05,0-.07h0l.07.06L3.79,25h0c0-.06-.12-.11,0-.18l-.06,0c-.26-.08.06.17-.08.13l.15.09h0s-.14,0-.14,0-.18-.15,0-.27,0-.12,0-.18-.07,0-.09,0a.76.76,0,0,1-.22-.17c-.08-.13.07,0,.07-.05s0-.12-.05-.14-.18-.13-.08-.26,0,0,0-.05-.12-.06,0-.11,0-.07,0-.11.11-.07.12-.14l0,0c-.2.09-.32-.2-.53-.12,0,0-.12,0-.19,0a.16.16,0,0,0,0-.21c-.08-.08-.06,0-.08,0a1,1,0,0,0-.17,0s0-.06,0-.09l-.06-.16a.67.67,0,0,0,.14.11s.06,0,.09,0,0,0,0-.06c.07-.19-.12-.14-.19-.2v0l.09-.06,0,0a.21.21,0,0,1,0,.08s0,0,0,0v-.13H2.32l-.19.06c0-.16-.29-.18-.17-.37s-.12-.08-.09-.16l-.1,0H2v0c-.09.08-.15-.07-.16-.05-.1.2-.17,0-.19,0a3.61,3.61,0,0,1-.24-.65v-.05l0,0,.05.1a.15.15,0,0,0,0-.09l-.13-.17,0,0s0-.07,0-.08,0-.11,0-.15l-.06-.05,0,0c.12.08.17-.16.17-.1s.1.22.17.29.22.13.13.3l.09,0c-.05-.11.17,0,.09-.11H2s.05,0,.05,0a.64.64,0,0,1,.06.18s0,.07,0,.08l.27.28s0,0,0,0,0,.15.1.13,0-.09,0-.13a.06.06,0,0,1,0-.07c.05,0,.15,0,0-.1,0-.05,0-.05,0-.1s-.32-.08-.17-.28c0,0,0,0,0,0l-.08-.14s.1.07.11.06-.06,0,0-.09.07-.12.13,0-.06.14,0,.19.07.09.12.13,0,0,.06,0,0,0,0,0A.26.26,0,0,1,2.5,21c.16-.07.09.06.11.12,0,.21.13.41.16.63s-.12-.09-.13,0l0-.15c-.06.06-.15.1-.17.17s.06.12.09.18l.06-.2.13.29s0,0,.08,0h0l.28.05c.05,0,.06,0,0,.07s.07.06,0,.11,0,0,0,0h0l.09,0-.13.13,0,0,.06.05s0,0,0,0l.1-.08c0,.11.06.09.11.12s0,.16-.11,0h0s0,.06,0,.08a2.55,2.55,0,0,1,.36.38c0,.06,0,.19-.07.3s-.06,0-.06-.08,0-.06,0-.08,0-.05,0-.07l-.14.14,0,0,.08.09a.31.31,0,0,0,.07.09s.06,0,.09,0,.07-.11,0-.11v0s.1-.06.12,0a.76.76,0,0,1,.11.14c0,.1,0,.26.18.28,0,0,0,.09,0,.14s-.05-.05-.07,0l-.24.08h0l.18.11H4l0,.12-.05,0h0s0,.05,0,.05c.2.08.13.27.17.41l0,0h0s.08,0,.1,0,.1.25.28.22c0-.06-.07-.12-.11-.17l-.1-.09s.09-.13.18-.1h0l0,.07s.09.09.11,0,.07-.07.1-.1-.08,0-.09,0-.07,0-.07,0h0c-.06-.1-.25.1-.28-.11S4,24.17,4,24.09s.08.09.13.07.07-.09.1-.09.11-.12.16,0-.1,0-.1,0a2.66,2.66,0,0,0,0,.28l.12-.1,0,0c0-.07,0-.11.07-.1s0,.12,0,.13.08.2.11.3a.18.18,0,0,0,.07.08s0-.05,0-.07l0-.14s.12.07.11.11a.41.41,0,0,1-.09.19l-.2.24s0,.08,0,.09.11-.06.14-.12a1.14,1.14,0,0,0,.19.19l.08,0A1.15,1.15,0,0,0,5.05,25l-.13,0h0s0,0,0,0,.13,0,.16,0a1.92,1.92,0,0,1,.42.56c0,.12.16.16.18.28.19-.14.07.22.22.13-.11.13.06.17.08.27s.12.1.2,0,0,0,.07,0l0,0a.1.1,0,0,0,0,0c.22,0,.28.26.46.33,0,0,0,.08,0,.13a.08.08,0,0,0,0,0l0,0s0,0,0,0l.07-.08v0c-.06.06.15.07,0,.15s0,0,0,.05S6.88,27,7,27V27l0-.09a.6.6,0,0,1,.11.06.4.4,0,0,1,.1.15c0,.08-.11.16,0,.25s0,0,.07,0l.06,0c0-.08,0-.14,0-.21s0,0,0,0,0,.19-.08.27.19.16.07.31,0,.09,0,.14c-.06-.19.35-.14.19-.39,0,0,0,0,0-.08l.12.06h0c0,.11.08,0,.07.07s0,0,0,.05c.2,0,.28.17.43.24s.17.18.27.27.09,0,.13,0,.07.05.1.09,0,0,0,0,0,0,0-.06h0c0,.07,0,.13,0,.19s.06.06.08.06.11.12.18.16,0,.07,0,.11a1,1,0,0,0,.11-.2.2.2,0,0,0-.09-.1.17.17,0,0,1-.08-.23.5.5,0,0,0,.12.13.43.43,0,0,0,.4.13s0,0,0,0,.11.28.29.26c0,.3.34,0,.32.22,0,0-.08.07-.12.08s-.18,0-.18.09.11.11.18.16l.06,0,0,0s0,0-.05,0H9.63a.9.9,0,0,0,0,.16h0v-.13l.07,0,.17.06c-.1-.08,0-.16,0-.22s.21-.13,0-.22l.08,0s0,0,0,0l0,.2s0,.05,0,.06.05.09.06.08.22-.11.17.11a.22.22,0,0,1,.11,0c.08,0,.15.12.25.05a.54.54,0,0,0,0,.08.5.5,0,0,0,.18,0s0-.1,0-.16,0,0-.05-.07l.22.07v0s-.1.05,0,.11C11.06,29.26,11.07,29.43,11.13,29.43Zm-6.89-4c0-.07,0-.16,0-.2s0,.05-.1,0a.37.37,0,0,0,0,.15S4.21,25.42,4.24,25.42Zm1.12-.05L5,25.11H5l0,0c0,.1.18.14.06.26L5,25.22c-.06.07-.15.13-.17.2s.17-.06.16.09l.11-.09c.09-.05.11,0,.11,0,.16,0,.06.09.08.14s0,0,0,.06a.08.08,0,0,1,0,0C5.45,25.56,5.24,25.44,5.36,25.37Zm.37.93c0-.05,0-.1-.05-.25,0,0-.07.1-.1.09l0,.19Zm.1.17v0c-.09,0-.13.14-.22,0l-.06,0C5.64,26.6,5.74,26.45,5.83,26.47Zm2.79,2.26c.08-.22,0-.35-.19-.47s-.08,0-.12,0v0a.61.61,0,0,1-.07.1H8.18s-.07-.11-.1,0a.16.16,0,0,0,.06.22c.18-.14.29,0,.41.11Zm.4.5v0C8.9,29.09,9,29,9.09,29s.06-.06.09-.09h0C9,28.8,9,29,9,29s-.14,0-.09.09l.06.15Z"/><polygon class="cls-1" points="5.91 27.62 5.91 27.63 5.91 27.63 5.91 27.62"/><rect class="cls-1" x="4.42" y="24.44" transform="translate(-20.3 26.81) rotate(-85.24)"/><polygon class="cls-1" points="10.61 29.34 10.61 29.34 10.61 29.34 10.61 29.34"/><polygon class="cls-1" points="4.42 24.44 4.42 24.44 4.42 24.44 4.42 24.44"/><polygon class="cls-1" points="3.79 24.99 3.79 24.99 3.8 24.99 3.79 24.99"/><rect class="cls-1" x="6.03" y="27.64" transform="translate(-2.67 0.72) rotate(-5.6)"/><polygon class="cls-1" points="9.43 29.5 9.43 29.5 9.43 29.5 9.43 29.5"/><path class="cls-1" d="M5.72,26.68l0,0Z"/><path class="cls-1" d="M2.85,24a.49.49,0,0,1,.2.37c0,.07.1.11.15.17h.15l-.09-.11A3.94,3.94,0,0,1,3,24a.31.31,0,0,0-.07-.09l-.1,0S2.83,24,2.85,24Z"/><path class="cls-1" d="M3.59,25.16h0l0-.26-.21-.07C3.37,25,3.5,25.06,3.59,25.16Z"/><path class="cls-1" d="M9,29.63c.19,0,0,.18.17.21h0c.23,0,0-.11,0-.14l-.25-.15,0,0C8.87,29.64,8.88,29.64,9,29.63Z"/><path class="cls-1" d="M2,20.77l-.08,0s0,0,0-.05a1.27,1.27,0,0,0,0,.2s.07,0,.1.06l0-.09a.12.12,0,0,0,.05-.17s0,0,0-.05,0,.08,0,0,0,0,0-.07,0,.05-.06.08S2,20.72,2,20.77Z"/><path class="cls-1" d="M5.18,26.1c-.11-.1-.15,0-.18.07l.14.08s.07,0,.11,0a.13.13,0,0,1,0,0c-.13,0,0-.08,0-.12h0Z"/><path class="cls-1" d="M6.59,27.69c.06-.09.08.13.14,0a.69.69,0,0,0,0-.13c-.15,0-.21.08-.3.26Z"/><path class="cls-1" d="M.21,15.55s0-.09,0-.12H.13v0l0,0,0,0v0H0C0,15.63.18,15.46.21,15.55Z"/><path class="cls-1" d="M1,20a.52.52,0,0,0,0,.17s.05,0,.09.06l0-.12C1.08,19.87,1,20.08,1,20Z"/><path class="cls-1" d="M2.35,20.67l.13,0h0s0,0,0-.05L2.4,20.5l-.06.14A0,0,0,0,0,2.35,20.67Z"/><polygon class="cls-1" points="2.85 22.07 2.85 22.07 2.85 22.07 2.85 22.07"/><polygon class="cls-1" points="2.85 22.07 2.85 22.07 2.85 22.07 2.85 22.07"/><path class="cls-1" d="M3,22c0-.11.12.16.07,0,0,0-.06,0-.09,0s0-.05,0-.08l-.15.2h0S3,22,3,22Z"/><polygon class="cls-1" points="2.85 22.07 2.85 22.07 2.85 22.07 2.85 22.07 2.85 22.07 2.85 22.07"/><path class="cls-1" d="M4.85,26.49a.25.25,0,0,1,0-.09c.07-.11-.14,0-.08-.12l-.07.14Z"/><path class="cls-1" d="M7.3,28.74c.11-.08,0-.1,0-.16s-.07.13-.1,0h0C7.07,28.75,7.28,28.63,7.3,28.74Z"/><path class="cls-1" d="M10.75,29.25s-.1,0-.16-.05l0,.14C10.65,29.29,10.79,29.41,10.75,29.25Z"/><polygon class="cls-1" points="10.61 29.34 10.61 29.34 10.61 29.34 10.61 29.34 10.61 29.34 10.61 29.34"/><polygon class="cls-1" points="10.61 29.34 10.61 29.34 10.61 29.34 10.61 29.34"/><polygon class="cls-1" points="2.48 20.7 2.48 20.7 2.4 20.88 2.56 20.8 2.48 20.7 2.48 20.7"/><path class="cls-1" d="M2.48,20.7Z"/><path class="cls-1" d="M.36,17.4l0,0,0,.17s0,.06.07.06C.54,17.56.26,17.46.36,17.4Z"/><path class="cls-1" d="M10.66,30.46s-.05-.1-.09-.13-.07,0-.12,0l.15.1Z"/><path class="cls-1" d="M10.58.64Z"/><path class="cls-1" d="M10.58.64Z"/><path class="cls-2" d="M8,2.69c0-.08-.29-.08-.08-.23h0c-.21.14,0,.21.06.29S8,2.77,8,2.69Z"/><path class="cls-2" d="M2.53,6.72s0,0,0-.07c0-.28-.13.12-.15,0l0,.18C2.45,6.82,2.43,6.64,2.53,6.72Z"/><path class="cls-2" d="M10.5.72h.08l0-.07h0A.1.1,0,0,0,10.5.72Z"/><path class="cls-2" d="M3.11,7.19h0L3,7.17s0,.12.06.09.09,0,.13.06-.06-.06-.06-.08,0-.06-.05,0Z"/><path class="cls-2" d="M10.73,1.45h0l0-.11s-.09,0-.1.07S10.69,1.47,10.73,1.45Z"/><path class="cls-2" d="M.94,9.56s-.06,0-.08,0,0-.08,0-.08-.06.1,0,.34h0C.78,9.5.9,9.65.94,9.56Z"/><path class="cls-2" d="M9.88,1.11s0,.12.08.12a.34.34,0,0,0,.22,0s0-.12,0-.18h0C10,.86,10,1.06,9.88,1.11Z"/><path class="cls-2" d="M7.07,2.89c0-.05.1-.09.1-.14s0-.14-.1-.14a.38.38,0,0,1,0,.1Z"/><path class="cls-2" d="M.59,13.82h0l-.06,0a.06.06,0,0,1,0,0,.19.19,0,0,1,.08,0l.06,0s0-.05,0-.06c-.18-.17-.15.06-.21.11h0C.48,13.88.58,13.75.59,13.82Z"/><path class="cls-2" d="M2.24,7.21l-.12.09s0,.06,0,.08.15,0,.18-.09S2.25,7.26,2.24,7.21Z"/><path class="cls-2" d="M1,15.17v0l0,0H.93a1.48,1.48,0,0,1,0-.21l0,0-.1-.07v.11a2,2,0,0,1,0,.23.08.08,0,0,1,0,.07c-.06,0-.13.09-.15,0s0,0,0,0v.18l.26,0C.93,15.29.9,15.19,1,15.17Z"/><path class="cls-2" d="M8.77,1.66l0,0c-.19,0-.25.32-.5.26a.59.59,0,0,0,0,.2c.05.06.07-.22.17,0,0,0,0-.08,0-.12s0,0,0,0,.05,0,.07,0,.06,0,.05,0,0,0,0,0c.05-.13.34.05.26-.22C8.85,1.68,8.79,1.67,8.77,1.66Z"/><path class="cls-2" d="M9.19,2.1s0,.1,0,.15h.1l0-.11c.07.08.07,0,.07,0s.07-.06,0-.07A.19.19,0,0,0,9.19,2.1Z"/><path class="cls-2" d="M1.21,12.36s0-.08,0-.12l0,0-.12,0s0,0,0-.05.07-.11,0-.09-.15,0-.18.14c.2.11.13.26.06.43,0,0,0,.06,0,.06C1.09,12.71,1.16,12.54,1.21,12.36Z"/><path class="cls-2" d="M2.6,8.39,2.71,8h0a.1.1,0,0,1,0,0c-.11,0-.05.21-.22.15L2.59,8c-.09,0-.18-.09-.25-.08s.12.13,0,.18l.13.07c.08.07.08.08,0,.11.09.14-.06.1-.1.14l0,0s0,0,0,0S2.49,8.31,2.6,8.39Z"/><path class="cls-2" d="M1.71,9,1.64,9c0,.14.12.16.14.26l.05,0C1.79,9.14,1.64,9.16,1.71,9Z"/><path class="cls-2" d="M2.12,9S2,8.93,2,8.9L1.83,9s.06.09.08.09Z"/><path class="cls-2" d="M.6,13.28c.06-.15.13-.12.21,0s.08,0,.12.06,0,0,0-.05-.14,0-.14-.13,0-.14-.12-.05l-.12.12,0,.09Z"/><path class="cls-2" d="M9.49,2V2c0,.08.07.15.12.1s.08-.2.05-.23S9.6,2.05,9.49,2Z"/><path class="cls-2" d="M.85,9.7l0,0,0,.14h0v.06s0,0,.06.06S.81,9.77.85,9.7Z"/><rect class="cls-1" x="7.92" y="2.75" transform="translate(-0.04 0.13) rotate(-0.96)"/><polygon class="cls-1" points="10.18 1.01 10.18 1.01 10.18 1.01 10.18 1.01"/><rect class="cls-1" x="7.07" y="2.61" transform="translate(-0.27 0.89) rotate(-7.08)"/><path class="cls-1" d="M10.78,1.44l.07.28c-.07,0-.14-.06-.12.11l-.36,0s0,0,0,0c-.15.2-.42.14-.58.27s-.33.1-.49.16-.17.14-.31.09,0,0-.05,0l0,0,0,0-.13-.07s0,0,0,0,0,.12-.13.09l-.06,0,0,.05h0s0,.08,0,.11a.17.17,0,0,1-.08.06c-.19,0-.3.18-.43.31L8,3l0,0,.05,0,.09-.11H8.06s0,0,0,0L7.83,3,8,2.84s0-.06,0-.09h0s.1,0,.07-.06-.29-.08-.08-.23h0c-.21.14,0,.21.06.29h0c-.09.15-.19.27-.4.17v0a.15.15,0,0,0,0,.09H7.6l-.07.1,0-.07c-.06.13-.28,0-.31.18l0,0,.08-.08h0s-.05.1-.08.14-.07,0-.1,0h0c0,.14-.09.06-.14.07a.76.76,0,0,0,.09-.09s.14-.09,0-.14S7,3.26,6.9,3.3s-.1,0-.1,0,.07-.1.08-.16.11,0,.15,0-.2,0-.27,0-.19.07-.26-.06,0,0-.07,0,0,0,0,0l0,0,.08.07c-.06,0-.12,0-.1.07s0,.05,0,0L6.3,3.28c.07,0,0,.09,0,.15s.14,0,.16-.07.12,0,.18,0a3.09,3.09,0,0,1-.37.26c-.06,0-.13.07-.11.14s.1,0,.13,0a.28.28,0,0,0,.14-.12c.06-.09.23-.1.21-.26h.09l0,.22s-.06.07-.06,0c0,.12-.12.1-.21.12s-.11.19-.19.24-.06,0-.06-.09-.13,0-.09-.09a0,0,0,0,0,0,0L6,3.64,6,3.7v0h0c0-.18-.13-.13-.22-.06l-.06,0s0,0,0-.07.07-.1.06-.12.06-.15.09-.23.08,0,.12,0,0,0,0,.07c-.19.07,0,.14,0,.22l.07.05s0-.06,0-.08c-.18-.3.08-.27.24-.32l.06,0v0l-.16,0a.07.07,0,0,0-.06,0V3.09h.06c.11.09.23-.21.34,0l.06-.16h0V3l-.16-.17.07,0s0,0,0,0c.07-.21.3,0,.38-.12l0,0c.12.26.1-.12.18,0h0a.38.38,0,0,1,0,.1v.18c0-.05.1-.09.1-.14s0-.14-.1-.14h0c0-.09-.14.13-.15,0s.09-.1.09-.1c.18.16.18-.05.26-.11v0c-.27,0-.12-.13-.11-.23s0,0,0-.06.19-.1.15.08v0l.1,0s0,0,0,0l0,0a.11.11,0,0,1,0,.05l-.13.09,0,0c.06,0,.17-.09.16-.12,0-.22.22-.07.24-.19S8.09,2,8,1.83c0,0,0,0,0,0s.16,0,.24,0a.45.45,0,0,0,.3-.19c0-.07.07,0,.08,0a.53.53,0,0,0,0-.12l.21.14a0,0,0,0,0,0,0,.12.12,0,0,0,0-.08s0,0,0-.06l.14,0s0,0,0,.06a.49.49,0,0,0,0,.11l0,0,0,0c0,.22.14,0,.24,0s.29-.07.38-.22l.08,0s0,0,.06,0L9.85,1.2c-.06-.18,0-.28.2-.31s.08.08.13.12h0c-.16-.15-.2.05-.3.1s0,.12.08.12a.34.34,0,0,0,.22,0s0-.12,0-.18h0c.22-.09,0,.06.05.09l.09.06,0,0,.1.2,0-.14a.29.29,0,0,1,0-.13s.05,0,.08,0l0,.09h.11s0-.07.07-.09l.09.32s-.09,0-.1.07,0,.07.08.05Zm-1.92.27s-.07,0-.09-.05l0,0c-.19,0-.25.32-.5.26a.59.59,0,0,0,0,.2c.05.06.07-.22.17,0,0,0,0-.08,0-.12s0,0,0,0,.05,0,.07,0,.06,0,.05,0,0,0,0,0C8.65,1.8,8.94,2,8.86,1.71Zm.5.33a.19.19,0,0,0-.17.06s0,.1,0,.15h.1l0-.11c.07.08.07,0,.07,0S9.41,2.05,9.36,2Zm.29-.16c-.11-.1-.05.17-.16.1V2h0c0,.08.07.15.12.1S9.68,1.91,9.65,1.88Z"/><polygon class="cls-1" points="3.11 7.19 3.11 7.19 3.11 7.19 3.11 7.19"/><path class="cls-1" d="M1.18,15.32v0H.91c0-.08,0-.18.12-.2v0l0,0H.93a1.48,1.48,0,0,1,0-.21l0,0-.1-.07v.11a2,2,0,0,1,0,.23.08.08,0,0,1,0,.07c-.06,0-.13.09-.15,0s0,0,0,0v.18H.53a.05.05,0,0,1,0,0,.12.12,0,0,1,0-.1c.12-.06,0-.14,0-.2l-.32-.2c0,.07.08.14,0,.19s0,.05,0,.07h0C.26,15,0,15,.1,14.94s-.07-.08,0-.14.08-.12,0-.18,0-.06-.08-.1-.1-.18.06-.2v0l0-.14s0,0,0,0,0,.05,0,.05l.35.14s.08,0,.11,0,0-.06,0-.1-.07,0-.1,0c-.31.13-.15-.18-.22-.26s0-.05,0,0-.07,0-.07,0,0-.09,0-.09a.3.3,0,0,1,.13,0s0-.05-.08-.05-.06-.08-.06-.13,0,0,0,0,.1.07,0,.14c.15.05.11.15.06.25L.49,14c-.12,0,0-.11,0-.17s0,0,0,0h0c0,.11.11,0,.12.05h0l-.06,0a.06.06,0,0,1,0,0,.19.19,0,0,1,.08,0l.06,0s0-.05,0-.06c-.18-.17-.15.06-.21.11h0a.16.16,0,0,1,.07-.25,1.06,1.06,0,0,0,.12-.1H.54l0,.05-.08,0c0-.23-.2-.13-.28-.23h0c.3,0-.07-.22.06-.31s.06,0,.07,0a.57.57,0,0,1,0,.14c.11,0,.29,0,.31-.16v0s-.06,0-.08,0-.07.07-.09,0,.1-.13,0-.13,0,.1,0,.15l0,0c0-.1-.09-.09-.14-.14s-.07-.39,0-.58l.14.16.06.06v-.06a2.09,2.09,0,0,1,.08-.36c.07-.13-.06-.27.06-.4s-.12-.27.1-.06c0,0,0,0,0,0-.19-.17.14-.26.06-.42s0-.06,0-.09,0,0-.05.06l-.09.08a.19.19,0,0,0,0-.08l0,0H.48s0,0,0,0a.06.06,0,0,1,0,0h0a.73.73,0,0,1-.09-.08.3.3,0,0,1,0-.13.93.93,0,0,1,.1-.42c.05-.08,0,.09.05.07a0,0,0,0,0,0,0c0-.06,0-.12-.08-.12l-.08,0s.07-.1.1-.1,0,0,0,.06c.25.19,0,.38,0,.58l0,0,.06,0L1,10.63H1v0l-.06.1c.06,0,.15,0,.19,0s.11,0,.16,0,0,.09-.05.13l-.06.07s.07,0,.08,0,0-.07,0-.09-.12-.22-.07-.35.09-.12.12-.2a.18.18,0,0,0-.05-.13s-.09,0-.14,0H1.07l.08,0,0-.18v0l0,0,.07.05s0-.06,0-.08a3.68,3.68,0,0,1,.31-.38l0,0a.75.75,0,0,1-.07.12s-.05,0-.05,0l0,.27,0,0,.12-.25a.14.14,0,0,0-.09-.21s-.06-.09-.05-.13a.1.1,0,0,1,.05-.07l0,0,0,0c-.06,0-.11-.07-.17,0s0,0,0,.1-.16-.06-.23,0l0-.13-.16.21L1,9.47c0,.06,0,.1,0,.16S.87,9.84.91,10l-.1-.08h0c.12-.05,0-.15,0-.22l0,0,0,.14c0-.3.13-.15.17-.24s-.06,0-.08,0,0-.08,0-.08-.06.1,0,.34v.06s0,0,.06.06h0C.75,10,.69,10,.62,10s0-.07,0-.11,0-.25.08-.36.21-.32.24-.33c.27,0,0-.25.14-.33s.06-.06.1-.06.08.1,0,.17a.1.1,0,0,1,0,0l.15-.12.14-.12s0,.08,0,.11l-.05,0c.15.13-.12.18,0,.29h0A.57.57,0,0,0,1.55,9c0-.1.06-.21.09-.31a.1.1,0,0,1,.07-.06s0,0,.06.06,0,.11-.08,0h0l0,.09h.06a2.29,2.29,0,0,1,.14-.27h0a.21.21,0,0,1,.25-.19l-.06-.05c-.1-.19.1-.23.17-.33s0-.06,0-.09l-.06,0-.06,0a.88.88,0,0,1,0-.16s.08,0,.12,0,.11.07.17.08.07-.06.11-.1l0,0s0,0,0,.06h0l-.1-.13a.32.32,0,0,1,0,.09l0,0L2.13,7.6l0-.06L2,7.61s.06,0,.07,0a.18.18,0,0,1,.06.1c0,.13,0,0-.08,0s-.17.27-.15.33c.13.3-.11.07-.15.11s-.14-.09-.22-.08v0L1.62,8h0s-.09.08,0,.08A.56.56,0,0,0,1.85,8l-.11-.1c-.09-.11,0,.06-.09.05a.41.41,0,0,0-.19,0c0-.09.11-.25.13-.24.2,0,.13-.1.16-.19s0-.29.19-.22l-.05-.07c.09-.06.22-.12,0-.19A.46.46,0,0,1,2,7a.17.17,0,0,1,.1,0c.11,0,.19,0,.19-.14s0,0,.06,0a.05.05,0,0,1,0,0l0,.08.08-.1h0c.08,0,.06-.16.16-.08s0,0,0-.07c0-.28-.13.12-.15,0l0,.18h0a.7.7,0,0,1,0-.14c.08,0,.08-.23.23-.15s.13,0,.19,0a.47.47,0,0,1,0-.09.76.76,0,0,1,.11-.26c.1-.11,0,.07.06,0S3,6.15,3,6.11s.06-.22.21-.18,0,0,0,0,0-.13.09-.09.06,0,.09-.07.1.07.17.07h.05c-.15-.16.1-.36-.05-.53a.49.49,0,0,1,0-.19c.09,0,.14,0,.2-.1s0-.06,0-.08a.45.45,0,0,0-.1-.14l.08,0,.13-.11a1.09,1.09,0,0,0,0,.17s0,0,.06.07,0,0,0,0c.2,0,.09-.17.13-.25h0l.09.07a.08.08,0,0,1,0,0H4l0,0,.13,0a.16.16,0,0,0,0-.07l-.11-.17c.16,0,.09-.33.31-.27S4.4,4,4.5,4V3.92l.07.18,0,.07,0,0c-.1-.07,0-.17,0-.17-.22,0,0-.17,0-.2s.38-.27.57-.41h0s0,0,0,0l-.08.09s.07,0,.08,0a1.09,1.09,0,0,0,.13-.17l0,0s.06,0,.08,0,.1,0,.13-.09l0-.06h0c0,.13.2.12.14.14s-.18.16-.23.24-.06.26-.25.22v.09c.09-.08,0,.18.12.06h0s0,0,0,.07A.91.91,0,0,1,5.23,4s-.07,0-.08,0a3.45,3.45,0,0,0-.2.32l0,.05c-.06,0-.14.06-.1.12s.09,0,.12,0H5s.08.13.1,0c.06,0,.06,0,.09,0s0-.32.23-.24c0,0,0,0,0,0L5.57,4s0,.12,0,.13,0-.06.08-.07.13,0,.07.12-.15,0-.17.08a.75.75,0,0,1-.09.15l0,.06h0a.28.28,0,0,1,.29-.16c.11.14,0,.11-.08.14l-.56.33c-.12.06,0-.15-.08-.12l.14,0c-.06-.05-.13-.12-.2-.12s-.1.09-.14.14h.2l-.24.21s0,0,0,.08h0l0,.28s0,.07-.07,0,0,.09-.09,0h0v0l.06.07-.16-.08h0l0,.07h0l.1.07c-.1,0-.06.09-.07.14s-.16,0-.07-.09l0,0s0,0-.06.06A2.51,2.51,0,0,1,4.15,6S4,6,3.85,6s0-.07.06-.08S4,6,4,6s0,0,0,0l-.17-.1s0,0,0,0l0,.1s-.06.06-.06.09,0,.06,0,.09.12,0,.08-.08h0s.09.08.08.1a.46.46,0,0,1-.09.15c-.08.08-.23.1-.18.27l-.14,0s0-.06,0-.08l-.16-.2v0l0,.19s0,0,0,0H3.27v-.1s0,0,0,0c0,.21-.22.2-.34.3a0,0,0,0,0,0,0v0s0,.08,0,.11-.2.19-.11.34l.12-.16a.57.57,0,0,0,0-.14c.06,0,.16,0,.17.14h0L3,7.17s0,.12.06.09.09,0,.13.06-.06-.06-.06-.08,0-.06-.05,0h0c.06-.09-.19-.2,0-.3a.81.81,0,0,0,.17-.23c.11.08,0,.1,0,.14s.11,0,.12.07.16.06.06.14-.05-.08-.06-.08a1.19,1.19,0,0,0-.25.13l.14.07a.08.08,0,0,1,0,0,.06.06,0,0,1,.11,0s-.1.06-.1.08c0,.18-.15.15-.24.22A.56.56,0,0,0,3,7.49h.08a.37.37,0,0,0,.12-.07c0,.06,0,.14-.06.15a.39.39,0,0,1-.21,0l-.3-.1s-.07,0-.07,0,.1.08.16.08-.08.16-.11.24,0,.1,0,.1A1.66,1.66,0,0,0,2.82,8l0-.12v0s0,0,0,0,.06.11.05.15a2.3,2.3,0,0,1-.35.59c-.1.09-.1.21-.2.28.21.11-.15.15,0,.25-.16-.05-.13.13-.21.17s0,.15.05.2,0,0,0,.07H2.11c.06.2-.14.34-.11.54,0,0-.07,0-.11,0h0a0,0,0,0,0,0,0l0,0,.1,0v0c-.09,0,0,.17-.13.08s0,0-.05,0-.06.12,0,.19l.06,0,.08-.05a.59.59,0,0,1,0,.13.36.36,0,0,1-.1.15c-.06.05-.19,0-.24.07a.11.11,0,0,0,0,.08l.06,0a.19.19,0,0,1,.2-.06s0,0,0,0-.17.1-.29,0-.07.24-.25.19-.08.07-.11.11c.14-.13.29.27.43,0,0,0,.05,0,.08,0s0,.1,0,.14,0,0,0,0,0,.08,0,.1H1.54c.13.18,0,.33,0,.49a1.84,1.84,0,0,1-.15.36s.08.07.09.11,0,.08-.05.12,0,0,0-.05l.05,0v0l-.19,0s0,.08,0,.09-.07.15-.07.23l-.11,0a.86.86,0,0,0,.22,0s.05-.07.05-.12a.19.19,0,0,1,.19-.17.79.79,0,0,0-.08.16.47.47,0,0,0,.07.43s0,0,0,0-.22.21-.13.38c-.31.07.15.3-.09.38,0,0-.1-.05-.13-.08s-.06-.17-.14-.13-.06.14-.08.22A.15.15,0,0,0,.9,14h0a.43.43,0,0,0,0,0s0-.06,0-.06a.76.76,0,0,0-.16,0v0l.09,0,0,0v.25c0-.12.16,0,.2-.07s.21.14.22-.06l.06.07s0,0,0,0l-.18.09H1.05s-.05.08,0,.09.19.16,0,.19c0,0,.05.07.05.11s-.06.18,0,.25l-.07,0a.48.48,0,0,0,.09.16s.1,0,.15,0,0,0,.05-.07l0,.24h0s-.08-.08-.11,0C1.31,15.2,1.16,15.27,1.18,15.32Zm1-7.94c.06,0,.15,0,.18-.09s-.07,0-.08-.08l-.12.09S2.13,7.36,2.14,7.38Zm.46,1L2.71,8h0a.1.1,0,0,1,0,0c-.11,0-.05.21-.22.15L2.59,8c-.09,0-.18-.09-.25-.08s.12.13,0,.18l.13.07c.08.07.08.08,0,.11.09.14-.06.1-.1.14l0,0s0,0,0,0S2.49,8.31,2.6,8.39Zm-.69.71L2.12,9S2,8.93,2,8.9L1.83,9S1.89,9.1,1.91,9.1Zm-.13.16.05,0c0-.09-.19-.07-.12-.19L1.64,9C1.59,9.14,1.76,9.16,1.78,9.26ZM.86,12.73c.23,0,.3-.19.35-.37,0,0,0-.08,0-.12l0,0-.12,0s0,0,0-.05.07-.11,0-.09-.15,0-.18.14c.2.11.13.26.06.43C.82,12.68.85,12.73.86,12.73Zm-.29.57,0,0c.06-.15.13-.12.21,0s.08,0,.12.06,0,0,0-.05-.14,0-.14-.13,0-.14-.12-.05l-.12.12Z"/><polygon class="cls-1" points="0.77 9.8 0.77 9.8 0.77 9.81 0.77 9.8"/><rect class="cls-1" x="3.11" y="7.19" transform="translate(-1.68 0.99) rotate(-14.32)"/><polygon class="cls-1" points="1.07 14.81 1.07 14.81 1.07 14.81 1.07 14.81"/><polygon class="cls-1" points="3.11 7.19 3.1 7.19 3.1 7.19 3.11 7.19"/><polygon class="cls-1" points="2.37 6.8 2.37 6.8 2.37 6.8 2.37 6.8"/><rect class="cls-1" x="0.81" y="9.92" transform="translate(-5.1 1.91) rotate(-31.73)"/><polygon class="cls-1" points="0.47 13.77 0.47 13.78 0.47 13.78 0.47 13.77"/><path class="cls-1" d="M1.55,9.24l0,0Z"/><path class="cls-1" d="M3,5.57a.48.48,0,0,1-.27.32c-.06,0-.08.13-.12.2l.05.14.08-.12L3,5.72a.36.36,0,0,0,.07-.1.4.4,0,0,0,0-.11S3,5.54,3,5.57Z"/><path class="cls-1" d="M2.14,6.67a.06.06,0,0,0,0,0l.22-.14V6.35C2.21,6.4,2.19,6.55,2.14,6.67Z"/><path class="cls-1" d="M.17,13.39c.11.16-.15.11-.13.23h0c.06.22.09,0,.14,0l0-.28,0,0C.13,13.31.13,13.33.17,13.39Z"/><path class="cls-1" d="M5.83,3.81a.28.28,0,0,1,0-.09l0,0a1.39,1.39,0,0,0-.19.06s0,.08,0,.12l.07,0a.11.11,0,0,0,.17,0s0,0,.06,0-.06.08,0,0,0,0,0-.06a.32.32,0,0,0-.09,0A.36.36,0,0,0,5.83,3.81Z"/><path class="cls-1" d="M1.85,8.51c0-.14,0-.15-.13-.14a.54.54,0,0,0,0,.17s0,.05.06.08l0,0c0-.13.07,0,.11-.06h0Z"/><path class="cls-1" d="M1,10.45c.1,0-.08.12,0,.13h.14c0-.15-.16-.16-.36-.17Z"/><path class="cls-1" d="M10.49.83h.12l0-.09H10.5a.1.1,0,0,1,0,0h0C10.37.68,10.56.78,10.49.83Z"/><path class="cls-1" d="M6.3,2.6a.47.47,0,0,0-.17,0s0,.07,0,.11h.13C6.45,2.66,6.23,2.64,6.3,2.6Z"/><path class="cls-1" d="M6,4.09v.13H6s.06,0,.07,0l.11-.16L6,4.07Z"/><polygon class="cls-1" points="4.82 4.96 4.82 4.96 4.82 4.96 4.82 4.96"/><polygon class="cls-1" points="4.82 4.96 4.82 4.96 4.82 4.96 4.82 4.96"/><path class="cls-1" d="M4.91,5.06c.11,0-.11.17,0,.06S5,5.06,5,5s0,0,.07,0l-.23-.08V5S4.9,5.07,4.91,5.06Z"/><polygon class="cls-1" points="4.82 4.96 4.82 4.96 4.82 4.96 4.82 4.96 4.82 4.96 4.82 4.96"/><path class="cls-1" d="M1.37,8.36s.06,0,.08,0,0-.14.09-.13H1.38Z"/><path class="cls-1" d="M.33,11.53c.12.07.08-.09.14-.1s-.15,0,0-.1,0,0,0,0C.23,11.32.43,11.47.33,11.53Z"/><path class="cls-1" d="M1.2,14.91s0-.11,0-.17l-.12.07C1.13,14.83,1.07,15,1.2,14.91Z"/><rect class="cls-1" x="1.07" y="14.81" transform="translate(-7.14 2.44) rotate(-29.42)"/><path class="cls-1" d="M1.07,14.81Z"/><polygon class="cls-1" points="6.01 4.22 6.01 4.22 5.83 4.2 5.95 4.33 6.01 4.22 6.01 4.22"/><path class="cls-1" d="M6,4.22Z"/><path class="cls-1" d="M8.7,1.38l0,0-.18,0s0,.06,0,.08C8.58,1.58,8.62,1.3,8.7,1.38Z"/><path class="cls-1" d="M.05,15.26a.42.42,0,0,0,.08-.12s0-.06-.08-.1l0,.17Z"/><path class="cls-1" d="M28.05,6.81Z"/><path class="cls-1" d="M28.05,6.81Z"/><path class="cls-2" d="M25.21,5.14c.06,0,0-.29.18-.16a.08.08,0,0,0,0,0c-.2-.15-.21,0-.25.16S25.14,5.2,25.21,5.14Z"/><path class="cls-2" d="M19.61,1.26h.07c.26-.09-.14-.09,0-.15l-.18,0C19.49,1.2,19.66,1.14,19.61,1.26Z"/><path class="cls-2" d="M28,6.77s0,0,0,.05v0l.06,0,0,0Z"/><path class="cls-2" d="M19.32,1.94h0V1.85s-.12,0-.07.09,0,.09,0,.14,0-.08.06-.08.06,0,0-.06Z"/><path class="cls-2" d="M27.35,7.25l0,0,.09-.07s-.06-.07-.1-.07S27.33,7.21,27.35,7.25Z"/><path class="cls-2" d="M16.5.37s0-.06,0-.07a.19.19,0,0,1,.08,0c0-.09-.11,0-.35,0h0C16.53.21,16.41.35,16.5.37Z"/><path class="cls-2" d="M27.37,6.33s-.1.09-.09.11a.46.46,0,0,0,.13.2s.11,0,.17-.08h0C27.66,6.36,27.45,6.4,27.37,6.33Z"/><path class="cls-2" d="M24.69,4.35c.06,0,.12.06.17.05s.14-.05.09-.15a.26.26,0,0,1-.09,0Z"/><path class="cls-2" d="M12.26.86v0l0-.07s0,0,0,0a.35.35,0,0,1,.05.08s0,0,0,.06,0,0,.06,0c.12-.22-.09-.13-.16-.18h0C12.17.76,12.32.83,12.26.86Z"/><path class="cls-2" d="M19.07,1.1,19,1s-.05,0-.08,0,.09.13.15.15S19,1.13,19.07,1.1Z"/><path class="cls-2" d="M11,1.56h0s0,0,0,0,0-.09,0-.09a1.39,1.39,0,0,1,.19-.06s0,0,.06,0l0-.11-.1,0L11,1.43s-.06,0-.07,0-.11-.11,0-.16,0,0,0,0l-.18,0,.07.26C10.88,1.48,11,1.43,11,1.56Z"/><path class="cls-2" d="M26.45,5.5l0,0c-.11-.16-.4-.12-.42-.38-.05,0-.13.06-.16.11s.22,0,.08.15a.53.53,0,0,0,.12,0s0,0,0,0,.05,0,.05.06,0,.06,0,.06,0,0,0,.05.08.33.29.16C26.46,5.58,26.45,5.52,26.45,5.5Z"/><path class="cls-2" d="M26.19,6.05s-.1,0-.15,0l0,.1.1,0c0,.09,0,.09.06,0s.08.05.08,0S26.25,6.07,26.19,6.05Z"/><path class="cls-2" d="M13.81,1.17s.07,0,.11,0,0,0,0,0V1s0,0,0,0,.12,0,.09-.06a.18.18,0,0,0-.18-.15c-.06.22-.23.2-.4.16a.1.1,0,0,0-.06.05C13.45,1.14,13.63,1.16,13.81,1.17Z"/><path class="cls-2" d="M18,1.74h.44l0,0c0-.1-.22,0-.2-.17l.19.08c0-.08.06-.19,0-.26s-.1.15-.18,0l0,.14c-.05.09-.06.09-.12,0-.1.11-.1,0-.15-.07l0-.05s0,0,0,.06S18.06,1.61,18,1.74Z"/><path class="cls-2" d="M17.17,1l0-.07c-.14,0-.13.15-.22.19l0,0C17.09,1.11,17,1,17.17,1Z"/><path class="cls-2" d="M17.34,1.4s0-.12,0-.13l-.14-.14a.51.51,0,0,0-.08.09A1.85,1.85,0,0,0,17.34,1.4Z"/><path class="cls-2" d="M12.79.74c.16,0,.15.11.06.21s0,.08,0,.12,0,0,0,0,0-.15.1-.16.13-.05,0-.12l-.14-.1-.08,0A0,0,0,0,0,12.79.74Z"/><path class="cls-2" d="M26.41,6.28h0c-.07.06-.12.12-.05.15s.21,0,.22,0S26.4,6.41,26.41,6.28Z"/><path class="cls-2" d="M16.35.31s0,0,0,0l-.15,0h-.05s0,0-.06.07S16.27.28,16.35.31Z"/><rect class="cls-1" x="25.12" y="5.1" transform="translate(0.04 10.38) rotate(-23.36)"/><polygon class="cls-1" points="27.57 6.56 27.58 6.56 27.58 6.56 27.57 6.56"/><rect class="cls-1" x="24.95" y="4.25" transform="translate(0.88 12.09) rotate(-27.71)"/><path class="cls-1" d="M27.38,7.29l-.23.17c0-.08,0-.16-.15-.07l-.17-.33V7c-.24-.07-.29-.33-.47-.43s-.2-.28-.32-.4-.2-.11-.2-.26,0,0,0,0h.09V5.77h0c-.06,0-.12,0-.13-.09a.07.07,0,0,0,0,0l0,0v0s-.07,0-.1,0a.11.11,0,0,1-.08,0A.87.87,0,0,0,25,5.32L25,5.27l0,0,0,0,.13,0,0-.08,0,0-.21-.17.15.07s.05,0,.07-.06h0s0,.1.09,0,0-.29.18-.16a.08.08,0,0,0,0,0c-.2-.15-.21,0-.25.16h0c-.18,0-.31-.1-.29-.32,0,0,0,0,0,0a.2.2,0,0,0-.08,0s0,0,0,.07l-.13,0,.05-.07c-.15,0-.1-.27-.28-.23,0,0,0,0,0,0l.1,0v0a.9.9,0,0,1-.16,0,.16.16,0,0,1-.05-.08.06.06,0,0,1,0,0c-.14.07-.1-.06-.13-.11a.75.75,0,0,0,.13.06s.13.1.13,0-.11-.08-.16-.13a.27.27,0,0,1-.06-.09c.07-.09.11,0,.18,0s0,.1.08.13-.06-.19-.12-.24-.13-.17,0-.28,0,0,0-.06h0v.05l0,.09s0-.11-.1-.06,0,0,0,0V3.77a.12.12,0,0,1-.13.08S24,4,24.05,4c.2,0,.09.1.05.18a2.49,2.49,0,0,1-.38-.25s-.11-.1-.17-.06,0,.1.05.13a.32.32,0,0,0,.16.09c.11,0,.17.18.32.1l0,.09-.23,0s-.08,0,0,0c-.12,0-.13-.08-.19-.15s-.21,0-.3-.1,0-.07.07-.09-.06-.11.06-.11l0,0,0-.19-.05.05h0a.23.23,0,0,0,0,0c.15-.09.08-.16,0-.23s0,0,0-.05l.07,0s.12,0,.13,0,.17,0,.25,0,0,.08,0,.11-.05,0-.07,0c-.14-.15-.12.1-.2.08l0,.1s.07,0,.08,0c.22-.27.29,0,.39.11l.06,0h0l0-.16,0-.05.05,0s0,0,0,0,.29.14.12.32h.17l0,0h0l.11-.2s0,0,0,.05,0,0,0,0c.21,0,.06.29.25.31l0,0c-.21.2.14.05.1.15h0a.26.26,0,0,1-.09,0l-.17,0c.06,0,.12.06.17.05s.14-.05.09-.15h0c.07-.07-.17-.08,0-.15s.13.05.13.05c-.09.22.11.15.19.2h0c-.14-.24.09-.16.18-.19l.07,0c-.1,0,.16.15,0,.17,0,0,0,0,0,0l.07.08h0a.14.14,0,0,1,0,.06h0l-.12-.09a.43.43,0,0,1,0,.05c.06,0,.14.12.17.11.19-.12.15.17.26.14s.05.26.21.11h0c-.06.13.07.14.11.22a.35.35,0,0,0,.27.21c.09,0,0,.08.05.08l.12,0-.05.25s0,0,0,0a.14.14,0,0,0,.09,0s0,0,0,0l0,.13h-.06l-.1.07.07,0h0c-.19.11.07.13.06.24s.16.25.34.28c0,0,.05,0,.06.06s0,0,0,.06l.13-.13c.14-.12.27-.07.37.07s0,.1-.06.16h0c.08-.2-.13-.16-.21-.23s-.1.09-.09.11a.46.46,0,0,0,.13.2s.11,0,.17-.08h0c.15.19-.06.05-.07.08a.61.61,0,0,0,0,.11l.07,0-.16.17.12-.07.12-.06s0,0,.07.06h-.09l0,.11s.08,0,.11,0l-.27.2s-.06-.07-.1-.07,0,.06,0,.1ZM26.43,5.6s0-.08,0-.1l0,0c-.11-.16-.4-.12-.42-.38-.05,0-.13.06-.16.11s.22,0,.08.15a.53.53,0,0,0,.12,0s0,0,0,0,.05,0,.05.06,0,.06,0,.06,0,0,0,.05S26.22,5.77,26.43,5.6Zm-.11.57s-.07-.1-.13-.12-.1,0-.15,0l0,.1.1,0c0,.09,0,.09.06,0S26.32,6.23,26.32,6.17Zm.24.23c.06-.14-.16,0-.15-.12h0c-.07.06-.12.12-.05.15S26.55,6.43,26.56,6.4Z"/><polygon class="cls-1" points="19.32 1.94 19.32 1.94 19.32 1.94 19.32 1.94"/><path class="cls-1" d="M10.91,1.73l0,0-.08-.27c.08,0,.18-.05.23.08h0s0,0,0,0,0-.09,0-.09a1.39,1.39,0,0,1,.19-.06s0,0,.06,0l0-.11-.1,0L11,1.43s-.06,0-.07,0-.11-.11,0-.16,0,0,0,0l-.18,0,0-.11,0,0s.1,0,.11,0,.14,0,.21,0l.12-.35c-.06,0-.12.11-.19,0h-.07v0c.13,0,.06-.21.14-.12s.06-.09.14,0a.11.11,0,0,0,.17,0s.05-.07.08-.1.16-.13.21,0l0,0h.14s0,.05,0,.05h-.06l-.07.36a.16.16,0,0,0,0,.12s.06,0,.1,0,0-.08,0-.11C11.62.56,12,.69,12,.6s.05,0,0,0S12,.49,12,.47s.09,0,.09,0a.3.3,0,0,1,0,.13s0-.06,0-.09.07-.08.12-.08a.16.16,0,0,1,.06,0c0,.06,0,.11-.13.09,0,.16-.13.14-.24.12l.11.11c0-.12.09-.07.15-.09s0,0,0,0h0c-.11,0,0,.1,0,.13v0l0-.07s0,0,0,0a.35.35,0,0,1,.05.08s0,0,0,.06,0,0,.06,0c.12-.22-.09-.13-.16-.18h0a.16.16,0,0,1,.26,0,.54.54,0,0,0,.12.09l0-.11,0,0,0-.08c.24,0,.09-.23.17-.32v0c.1.3.2-.1.32,0s0,.06,0,.07l-.13.06c.06.1,0,.29.22.28h0s0-.05,0-.08S13,.63,13.13.6s.14.07.12,0-.11,0-.16,0l0,0c.11,0,.08-.11.11-.16s.37-.14.57-.15L13.6.37l0,.07.06,0a1.15,1.15,0,0,1,.37,0c.14,0,.25-.11.4,0s.24-.17.08.08c0,0,0,0,0,0,.13-.22.29.08.43,0a.15.15,0,0,1,.09,0l-.07,0L14.85.36l.07,0s0,0,0-.05,0,0,0-.07l0,0h0a.06.06,0,0,1,0,0s0-.08.06-.1a.28.28,0,0,1,.13,0,1,1,0,0,1,.42,0c.1,0-.09,0-.06.07s0,0,0,0,.12,0,.11-.1,0-.06,0-.09.11.05.11.08,0,0-.05,0c-.14.29-.37.12-.57.13,0,0,0,0,0,0a.1.1,0,0,0,0,0l.4.31s0,0,0,.05,0,0,0,0l-.11,0c0,.07,0,.15.08.19s0,.11,0,.16l-.14,0s0,0-.08,0,0,.08,0,.09.07,0,.09,0c.19.13.2-.17.33-.15s.15.07.22.08A.16.16,0,0,0,16,.85s0-.09,0-.13V.6l0,.08.16-.07h.05l0,.05,0,.07s.07,0,.08,0l.44.23,0,0a.31.31,0,0,1-.13,0s0,0-.05,0L16.2,1l0,0,.27.09a.17.17,0,0,0,.2-.14s.07-.08.11-.09a.13.13,0,0,1,.08,0l0,0,0,0s0-.12,0-.17,0,.06-.11,0,0-.17,0-.23L16.88.4,16.64.3l0,.14c-.06,0-.09,0-.14.06s-.25-.15-.4-.07l.06-.12h0c.08.12.15,0,.23,0s0,0,0,0l-.15,0c.3,0,.18.1.27.12s0-.06,0-.07a.19.19,0,0,1,.08,0c0-.09-.11,0-.35,0h-.05s0,0-.06.07h0c-.07,0-.11-.11-.06-.19s.07,0,.11,0,.24-.07.36,0A2.81,2.81,0,0,0,16.9.3c.1.25.25,0,.35.07s.07,0,.08.09-.07.1-.15.06l0,0,.14.12.15.12h-.11s0,0,0-.05c-.09.17-.2-.08-.29,0s0,0,0,0a1.34,1.34,0,0,0,.18.07c.11,0,.22,0,.33,0s.06,0,.07.06a.23.23,0,0,1-.05.07s-.11,0,0-.08h0s-.06,0-.07,0,0,.06,0,.06l.3.07h0a.21.21,0,0,1,.25.2.25.25,0,0,1,0-.07c.16-.14.24.05.36.09h.09l0-.05-.06-.05a.47.47,0,0,1,.16,0s0,.07,0,.11,0,.13,0,.19.08.05.12.08V1.53l-.07,0s0,0,0-.05l.1-.12-.08,0s0,0,0,0l.1-.25h.06L18.62,1s0,.05,0,.07a.2.2,0,0,1-.08.08c-.13,0,0,0,0-.08s-.3-.1-.35-.07c-.27.19-.09-.09-.14-.12s.05-.15,0-.23h0l.07.08s0,0,0,0-.09-.08-.07,0a.45.45,0,0,0,.11.17l.08-.13c.07-.11-.07,0-.07-.07a.67.67,0,0,0-.05-.19A1,1,0,0,1,18.4.6c0,.21.12.11.22.12s.27-.1.25.13l.06-.07c.09.07.17.18.19,0,0,0,.08,0,.11,0a.15.15,0,0,1,0,.1c0,.1,0,.18.18.14s0,0,.06.05l0,0h-.09l.11,0h0c0,.07.17,0,.12.13h.07c.26-.09-.14-.09,0-.15l-.18,0h0c.05,0,.13-.08.14-.07s.23,0,.2.18,0,.12.06.18.05,0,.07,0a.84.84,0,0,1,.28,0c.14.06-.06,0,0,.08s.09.09.13.09.22,0,.22.15,0,0,.05,0,.13,0,.11.06.06,0,.09.06,0,.12,0,.19v0c.11-.2.37,0,.5-.21s.1-.07.16-.1,0,.13.16.15,0,0,.06-.05a1.71,1.71,0,0,0,.11-.14s0,.05.07.06l.14.1a.55.55,0,0,0-.18,0,.16.16,0,0,0-.05.08s0,0,0,.05c.07.19.18,0,.27,0l0,0,0,.11,0,0s0,0,0-.06,0,0,0,0l.09.1s0,0,.05,0L22.22,2c.08.14.34,0,.36.21s.15,0,.17.07l.1,0-.14.12-.06,0,0,0c0-.11.16,0,.15,0,0-.23.14-.1.18-.08.2.12.38.26.57.4,0,0,0,0,0,0h-.06l-.1,0s0,.07.05.08l.21.05,0,0s0,0,0,.08.07.08.12.1H24v.05c-.14,0,0,.22-.08.17s-.21-.12-.3-.14-.26,0-.29-.16l-.08,0c.11,0-.16.07,0,.14h-.07A1,1,0,0,1,23,3s0-.07,0-.07l-.37-.09h-.05s-.1-.11-.15,0,0,.08.09.09a.06.06,0,0,1,0,.07s-.09.12.05.09c0,.07,0,.08.07.08s.3-.11.31.13l0,0,.15,0c-.05,0-.13,0-.13,0s.06,0,.09,0,0,.14-.09.11,0-.14-.13-.13l-.18,0s0,0,0,0v0c.15,0,.21.1.26.22s-.12,0-.16,0l-.5-.42c-.1-.1.16,0,.08-.12l.08.13c0-.08.06-.16,0-.23s-.12-.06-.18-.09l.07.19-.28-.15s-.05,0-.07,0h0l-.25.14s-.07,0-.06-.05-.09,0-.07-.08v0l0,0A.56.56,0,0,0,21.5,3l0-.18V2.76h-.08s0,0,0,0l0,.12c0-.1-.1,0-.16,0s-.07-.15.07-.1l0,0-.08,0a2.21,2.21,0,0,1-.51-.11c-.06,0-.08-.18-.11-.28a.38.38,0,0,1,.1,0s0,.06,0,.09,0,0,.05,0l0-.19h-.05l-.12,0-.1,0s-.05,0-.07.07,0,.12.09.06l0,0s-.05.11-.07.11l-.18,0c-.1,0-.16-.2-.31-.1L20,2.24s.07,0,.08,0A1.91,1.91,0,0,0,20.23,2H20l0,0,0-.12H20s0,0,0,0c-.2.05-.26-.15-.38-.24l0,0s0,0,0,0-.07,0-.1,0-.23-.13-.36,0l.19.07h.14c0,.07,0,.16-.09.2h0V1.85s-.12,0-.07.09,0,.09,0,.14,0-.08.06-.08.06,0,0-.06h0c.11,0,.14-.24.3-.09a.67.67,0,0,0,.26.1c0,.12-.11,0-.14,0s0,.12,0,.13,0,.17-.13.1.08-.07.07-.08l-.19-.21,0,.16h0c.06,0,.05.1,0,.12s-.08-.08-.11-.07S19.18,2,19.09,2s-.06,0-.1,0A.24.24,0,0,0,19,2l.1.1c-.05,0-.13,0-.15,0a.36.36,0,0,1,0-.21l0-.31s-.05-.06-.07-.05-.05.11,0,.17l-.26,0h-.1a1.7,1.7,0,0,0,0,.22l.11-.05,0,0s0,.05,0,.05-.1.09-.14.08a1.83,1.83,0,0,1-.66-.21c-.11-.08-.23,0-.32-.11-.07.23-.19-.12-.26,0,0-.17-.15-.11-.22-.18s-.15,0-.18.09,0,0-.06,0v0a.1.1,0,0,0,0,0c-.19.12-.38,0-.57,0,0,0,0-.07-.06-.1s0,0,0,0,0,0,0,0a.06.06,0,0,0,0,0v.1h0c0-.08-.16,0-.09-.11a.17.17,0,0,0,0,0c-.07.12-.13,0-.2,0l0,.06.07.06s-.09,0-.13,0l-.17-.07c-.07,0,0-.2-.12-.22s0,0-.07,0,0,.06,0,.06a.17.17,0,0,1,.09.18s0,0,0,0-.13-.14-.08-.26-.25,0-.24-.21c0,0-.08-.06-.13-.09.16.12-.2.32.07.43,0,0,0,.05,0,.08l-.14,0s0,0,0,0-.08,0-.11,0,0,0,0-.05c-.15.15-.33,0-.49.06s-.25-.06-.38-.08,0,.09-.09.11-.08,0-.13,0,0,0,0,0,0,0,0,0h0a.58.58,0,0,0-.08-.18s-.07,0-.09,0-.15,0-.24,0,0-.07,0-.1a.83.83,0,0,0,0,.22s.08,0,.12,0,.18,0,.21.13l-.18,0a.5.5,0,0,0-.41.14s0,0,0,0-.25-.18-.4-.06c-.13-.28-.26.22-.38,0,0,0,0-.1.05-.14s.15-.1.1-.17-.16,0-.24,0h-.06v0h.05s.06,0,.06,0L12.23.94l0,0,.05.08,0,0-.07,0-.17,0c.13,0,.06.15.11.18s-.1.24.11.2l-.06.08h0A1,1,0,0,1,12,1.45s0-.05,0-.06-.09,0-.1,0-.12.21-.2,0c0,0-.05.06-.09.07s-.19,0-.24.09l-.05-.06a.55.55,0,0,0-.14.12s0,.1.07.14.05,0,.08,0l-.23.07,0,0s.07-.09,0-.1C11.05,1.84,11,1.7,10.91,1.73Zm8-.68c.05.05.09.13.15.15s0-.07.05-.1L19,1S18.9,1,18.87,1.05ZM18,1.74h.44l0,0c0-.1-.22,0-.2-.17l.19.08c0-.08.06-.19,0-.26s-.1.15-.18,0l0,.14c-.05.09-.06.09-.12,0-.1.11-.1,0-.15-.07l0-.05s0,0,0,.06S18.06,1.61,18,1.74Zm-.86-.52a1.85,1.85,0,0,0,.19.18s0-.12,0-.13l-.14-.14A.51.51,0,0,0,17.15,1.22ZM17,1.13l0,0c.08-.06,0-.2.16-.16l0-.07C17.05.92,17.06,1.09,17,1.13ZM13.38.92c.07.22.25.24.43.25,0,0,.07,0,.11,0s0,0,0,0V1s0,0,0,0,.12,0,.09-.06a.18.18,0,0,0-.18-.15c-.06.22-.23.2-.4.16A.1.1,0,0,0,13.38.92Zm-.61-.2a0,0,0,0,0,0,0c.16,0,.15.11.06.21s0,.08,0,.12,0,0,0,0,0-.15.1-.16.13-.05,0-.12l-.14-.1Z"/><polygon class="cls-1" points="16.23 0.25 16.23 0.25 16.23 0.25 16.23 0.25"/><rect class="cls-1" x="19.32" y="1.94" transform="translate(1.63 9.93) rotate(-30.04)"/><polygon class="cls-1" points="11.39 1.52 11.38 1.52 11.38 1.52 11.39 1.52"/><polygon class="cls-1" points="19.32 1.94 19.32 1.94 19.32 1.93 19.32 1.94"/><polygon class="cls-1" points="19.49 1.13 19.49 1.13 19.49 1.13 19.49 1.13"/><rect class="cls-1" x="16.12" y="0.31" transform="translate(3.88 10.81) rotate(-41.71)"/><polygon class="cls-1" points="12.28 0.73 12.28 0.73 12.28 0.73 12.28 0.73"/><path class="cls-1" d="M16.94.89l0,0Z"/><path class="cls-1" d="M20.84,1.36a.49.49,0,0,1-.39-.16c-.05-.05-.14,0-.22-.06l-.12.09.14,0,.45.16a.35.35,0,0,0,.11,0l.1,0S20.86,1.36,20.84,1.36Z"/><path class="cls-1" d="M19.56.87h0l.2.18.2-.07C19.83.86,19.69.89,19.56.87Z"/><path class="cls-1" d="M12.6.35c-.14.14-.15-.12-.26-.07h0c-.2.11.05.09,0,.14l.28,0s0,0,0,0S12.65.3,12.6.35Z"/><path class="cls-1" d="M23.4,3.5h.08s0,0,0,0a1,1,0,0,0-.12-.17s-.07,0-.11,0l.07.06a.11.11,0,0,0,.05.16.11.11,0,0,1,0,.06s-.09,0,0,0,.05,0,.08,0a.27.27,0,0,0,0-.09A.91.91,0,0,0,23.4,3.5Z"/><path class="cls-1" d="M17.72,1c.14,0,.13-.08.1-.16a.41.41,0,0,0-.16,0s-.05,0-.08.07l0,0c.11-.06.06.05.08.08h0Z"/><path class="cls-1" d="M15.65.58c0,.11-.14,0-.13.07l0,.14c.14-.07.13-.19.1-.39Z"/><path class="cls-1" d="M27.84,6.8s0,.08.05.1L28,6.84v0s0,0,0-.05H28l0,0h0C27.94,6.63,27.91,6.85,27.84,6.8Z"/><path class="cls-1" d="M24.7,3.52a.71.71,0,0,0-.08-.15s-.08,0-.11,0l0,.13C24.69,3.69,24.64,3.47,24.7,3.52Z"/><path class="cls-1" d="M23.2,3.77l-.13,0h0s0,.07,0,.07l.19.06,0-.15A0,0,0,0,0,23.2,3.77Z"/><polygon class="cls-1" points="21.98 2.92 21.98 2.92 21.97 2.92 21.98 2.92"/><polygon class="cls-1" points="21.97 2.92 21.97 2.92 21.98 2.92 21.97 2.92"/><path class="cls-1" d="M21.91,3.05c.07.08-.2,0,0,.06,0,0,.06,0,.09,0a.15.15,0,0,1,.05.06V2.92h0C22,3,21.9,3,21.91,3.05Z"/><polygon class="cls-1" points="21.97 2.92 21.98 2.92 21.97 2.92 21.98 2.92 21.98 2.92 21.97 2.92"/><path class="cls-1" d="M17.76.54s0,0,0,.08.12-.07.14,0l0-.15Z"/><path class="cls-1" d="M14.46.15c-.05.13.1.06.12.12s0-.15.09-.06l0,0C14.65,0,14.54.24,14.46.15Z"/><path class="cls-1" d="M11.32,1.67s.1,0,.16,0l-.09-.1C11.38,1.58,11.2,1.56,11.32,1.67Z"/><polygon class="cls-1" points="11.38 1.52 11.39 1.52 11.39 1.52 11.39 1.52 11.39 1.52 11.38 1.52"/><polygon class="cls-1" points="11.39 1.52 11.39 1.52 11.38 1.52 11.39 1.52"/><polygon class="cls-1" points="23.07 3.81 23.07 3.81 23.03 3.63 22.95 3.79 23.07 3.81 23.07 3.81"/><path class="cls-1" d="M23.07,3.81Z"/><path class="cls-1" d="M26.68,5.33h0l0-.18s-.08,0-.09,0S26.73,5.22,26.68,5.33Z"/><path class="cls-1" d="M10.73.61s.1.06.14.06.05-.06.08-.1h-.17Z"/><path class="cls-1" d="M28.55,25.29Z"/><path class="cls-1" d="M28.55,25.29Z"/><path class="cls-2" d="M29.22,22.05c.07.05.27-.13.21.12l0,0c.06-.25-.12-.19-.24-.18S29.15,22,29.22,22.05Z"/><path class="cls-2" d="M30.8,15.44s0,0,0,.06c.18.21,0-.17.14-.07l-.09-.15C30.81,15.31,30.93,15.44,30.8,15.44Z"/><path class="cls-2" d="M28.56,25.18l0,0,0,0,.06,0v-.08Z"/><path class="cls-2" d="M30.06,15.41h0l.08,0s0-.13-.11,0-.09,0-.14,0l.09,0c0,.11.05,0,.08,0Z"/><path class="cls-2" d="M27.92,24.74l0,0,.09.07s.05-.08,0-.11S27.94,24.71,27.92,24.74Z"/><path class="cls-2" d="M30.48,12.22l.07,0s.07.06.08.05,0-.12-.14-.32h0C30.64,12.19,30.46,12.13,30.48,12.22Z"/><path class="cls-2" d="M28.8,24.48c-.05,0-.12-.07-.14-.05a.44.44,0,0,0-.15.18s.08.09.12.13h0C28.84,24.76,28.76,24.58,28.8,24.48Z"/><path class="cls-2" d="M29.78,21.29c0,.06,0,.13,0,.18s.09.11.17,0a.23.23,0,0,1-.07-.07Z"/><path class="cls-2" d="M28.48,8.45v0h.07s0,0,0,0a.2.2,0,0,1-.06.07l-.06,0s0,0,0,0c.24,0,.1-.13.12-.21h0C28.54,8.33,28.53,8.49,28.48,8.45Z"/><path class="cls-2" d="M30.74,14.87a.58.58,0,0,0,.05-.14s0,0-.07-.06-.09.13-.09.19S30.7,14.84,30.74,14.87Z"/><path class="cls-2" d="M27.37,7.56v0h0s.07,0,.08,0l.13.15s0,0,0,.07h.12l-.08-.08-.15-.18a.11.11,0,0,1,0-.08c0-.06.07-.14.15-.06s0,0,0,0l-.09-.15-.22.16C27.39,7.4,27.47,7.47,27.37,7.56Z"/><path class="cls-2" d="M29.3,23.34l.05,0c.12-.16,0-.42.21-.53-.06,0-.11-.11-.17-.12s.1.2-.1.13a.61.61,0,0,0,.07.1s0,0,.05,0,0,.06,0,.07-.07,0-.07,0,0,0-.05,0c.05.13-.28.19-.05.34C29.22,23.37,29.28,23.35,29.3,23.34Z"/><path class="cls-2" d="M28.69,23.27s0-.09-.05-.14l-.08.07.05.09c-.11,0-.09,0,0,.07s0,.09,0,.07A.24.24,0,0,0,28.69,23.27Z"/><path class="cls-2" d="M28.74,10s.06.05.09.08,0,0,0,0L29,10s0,0,.05,0,0,.12.09.05a.17.17,0,0,0,.07-.21c-.23,0-.26-.15-.28-.33,0,0-.06,0-.06,0C28.65,9.66,28.69,9.83,28.74,10Z"/><path class="cls-2" d="M29.76,14.12l.15.41h0s0,0,0,0-.09-.21.08-.25v.2a.66.66,0,0,0,.25-.07s-.18,0-.09-.16H30c-.1,0-.11,0-.06-.09-.15-.06,0-.11,0-.17s0,0,0-.05h-.06C29.79,13.92,29.9,14.12,29.76,14.12Z"/><path class="cls-2" d="M30.13,13.08h.07c0-.14-.19-.07-.26-.14l0,.06C30,13,30.11,12.94,30.13,13.08Z"/><path class="cls-2" d="M29.84,13.38s.1-.05.12,0l.08-.18s-.1,0-.11,0S29.89,13.23,29.84,13.38Z"/><path class="cls-2" d="M28.77,8.91c0,.15,0,.17-.17.12a.3.3,0,0,0-.13,0l0,0c0,.15.14,0,.19,0s.1.1.12,0l0-.16-.07-.06Z"/><path class="cls-2" d="M28.54,23.55v0c-.08,0-.16-.07-.15,0s.06.2.1.21S28.41,23.58,28.54,23.55Z"/><path class="cls-2" d="M30.48,12.05l0,0,0-.14h0v-.05s-.06,0-.09,0S30.47,12,30.48,12.05Z"/><rect class="cls-1" x="29.23" y="21.96" transform="translate(-6.92 27.39) rotate(-45.47)"/><polygon class="cls-1" points="28.63 24.74 28.63 24.74 28.63 24.74 28.63 24.74"/><rect class="cls-1" x="29.96" y="21.5" transform="translate(-6.09 29.26) rotate(-47.82)"/><path class="cls-1" d="M27.89,24.78l-.23-.17c.07,0,.15,0,0-.16l.25-.26,0,0c0-.24.25-.36.27-.56s.18-.29.27-.43,0-.23.18-.27l0,0V23l.14,0s0,0,0,0,0-.12,0-.15a.33.33,0,0,0,0-.06v-.06l0,0s0,0,0-.08a.12.12,0,0,1,0-.1A.78.78,0,0,0,29,22l0-.08,0,0s0,0,0,.05v.14l.07-.06s0,0,0,0l.08-.25a1,1,0,0,0,0,.17s.05,0,.08.05h0s-.08.05,0,.09.27-.13.21.12l0,0c.06-.25-.12-.19-.24-.18h0c0-.18,0-.34.18-.39,0,0,0,0,0,0s0-.05-.07-.06l-.06,0,0-.12h.09c0-.13.21-.18.12-.33s0,0,0,0v.11h0a.8.8,0,0,1,0-.15s0,0,.07-.08h0c-.12-.1,0-.11.05-.16a.65.65,0,0,0,0,.14c0,.05-.05.16.07.11s0-.13.06-.19.05-.1.06-.09,0,.12,0,.17-.08.07-.09.13a.7.7,0,0,0,.18-.21c0-.14.1-.18.24-.13s0,0,.05,0a.08.08,0,0,0,0,0H30c.05,0,.1-.07,0-.11s-.05,0,0,0l.12,0c-.08,0-.1,0-.12-.09s-.09.11-.08.15c.05.19-.07.12-.15.11a3.13,3.13,0,0,1,.1-.44c0-.07.06-.14,0-.18s-.09.05-.11.09a.36.36,0,0,0,0,.18c0,.11-.11.22,0,.33l-.07.06-.11-.2s0-.09.05,0c-.05-.11,0-.15.08-.23s0-.21,0-.31.07,0,.11,0,.07-.1.12,0a0,0,0,0,0,0,0l.19,0-.06,0s0,0,0,0,0,0,0,0,.18,0,.21-.1,0,0,0-.06v.08c0,.05,0,.13,0,.13s.08.16.1.24l-.1.07c.07-.07,0-.05,0-.06.1-.18-.13-.07-.14-.16h-.1s0,.07.05.07c.32.11.11.26,0,.4a.1.1,0,0,0,0,.07h0l.14-.09a.1.1,0,0,0,0-.05l0,0s0,0,0,0,0,.32-.26.23l.06.16,0,0v0l.23,0s0,0,0,.07h0c.09.2-.24.17-.2.34,0,0,0,0,0,0-.26-.12,0,.15-.11.14h0a.23.23,0,0,1-.07-.07l-.11-.14c0,.06,0,.13,0,.18s.09.11.17,0h0c.09.05,0-.18.14-.08s0,.14,0,.14c-.24,0-.1.15-.12.24l0,0c.18-.22.18,0,.24.1s0,.05,0,.08-.08.2-.17,0h0l-.05.1s0,0,0,0h-.06s0,0,0-.05l0-.15h-.05c0,.07-.06.18,0,.2s-.12.2-.06.29-.23.13,0,.24v0c-.14,0-.12.12-.17.18a.38.38,0,0,0-.1.34c0,.09-.07,0-.06.07a.6.6,0,0,0,.06.11l-.26,0,0,0a.28.28,0,0,0,0,.09l.06,0-.12.08s0-.05,0-.06l-.09-.06v.1c-.16-.14-.09.11-.2.13s-.17.25-.15.42c0,0,0,.05,0,.08h-.06l.16.09c.15.1.15.23,0,.36s-.11,0-.17,0h0c.21,0,.13-.16.17-.26s-.12-.07-.14-.05a.44.44,0,0,0-.15.18s.08.09.12.13h0c-.12.22-.06,0-.1,0a.4.4,0,0,0-.11,0v.07l-.21-.1.1.1a.43.43,0,0,1,.09.1s0,.05,0,.08l0-.09-.11.06s0,.09,0,.12l-.28-.2s.05-.08,0-.11-.08,0-.1,0Zm1.31-1.42s.08,0,.1,0l.05,0c.12-.16,0-.42.21-.53-.06,0-.11-.11-.17-.12s.1.2-.1.13a.61.61,0,0,0,.07.1s0,0,.05,0,0,.06,0,.07-.07,0-.07,0,0,0-.05,0C29.3,23.15,29,23.21,29.2,23.36Zm-.59.07a.24.24,0,0,0,.08-.16s0-.09-.05-.14l-.08.07.05.09c-.11,0-.09,0,0,.07S28.55,23.45,28.61,23.43Zm-.13.31c.15,0-.07-.16.06-.19v0h0c-.08,0-.16-.07-.15,0S28.44,23.73,28.48,23.74Z"/><polygon class="cls-1" points="30.06 15.41 30.06 15.41 30.06 15.41 30.06 15.41"/><path class="cls-1" d="M27.16,7.51l0,0,.22-.16c0,.07.12.14,0,.23v0h0s.07,0,.08,0l.13.15s0,0,0,.07h.12l-.08-.08-.15-.18a.11.11,0,0,1,0-.08c0-.06.07-.14.15-.06s0,0,0,0l-.09-.15.09-.07,0,0a.15.15,0,0,1,0,.11c-.07.11.08.12.08.19l.37,0c-.05,0-.14-.07-.08-.17s0,0,0-.06h0c0,.12.22,0,.17.07s.11,0,.09.11,0,.15.1.15a.31.31,0,0,1,.12,0c-.08.09.17.1.05.2l0,0,.06.12h-.06s0,0,0,0l-.37.06s-.09,0-.1,0,0,.07,0,.1.09,0,.11,0c.19-.28.21.08.32.1s0,0,.05,0,0-.08.07,0,0,.07,0,.08a.41.41,0,0,1-.11.07s.07,0,.09,0,.1,0,.12.08,0,.07,0,.07-.12,0-.12-.09c-.16,0-.18-.07-.2-.17l-.07.13c.11,0,.1.07.14.11s0,0,0,0h0c-.07-.09-.08.07-.13,0v0h.07s0,0,0,0a.2.2,0,0,1-.06.07l-.06,0s0,0,0,0c.24,0,.1-.13.12-.21h0a.16.16,0,0,1,.08.25.66.66,0,0,0-.05.15l.1-.06-.06,0,.06-.06c.1.22.25,0,.36,0h0c-.24.19.18.14.11.29s-.05,0-.07,0l-.11-.1c-.07.1-.26.12-.18.31v0l.06-.06s0-.09.09,0,0,.16.1.1,0-.11,0-.16,0,0,0,0,.13,0,.2,0c.24.07.26.3.34.48l-.21-.07h-.09l0,.05a1.25,1.25,0,0,1,.13.35c0,.14.2.19.17.36s.24.16-.05.1c0,0,0,0,0,0,.24,0,0,.3.16.39a.13.13,0,0,1,0,.09s0,0,0-.08l0-.11.05.06s0,0,0,0l.06,0H30l0,0s0,0,0,0a.25.25,0,0,1,.12,0,.2.2,0,0,1,.08.1,1.11,1.11,0,0,1,.17.39c0,.1,0-.08-.09,0a.11.11,0,0,0,0,.05c0,.05.07.1.14.06h.09s0,.12,0,.13,0,0,0,0c-.31,0-.26-.3-.34-.48h0l0,0-.13.48,0,0h0v-.12s-.13.08-.14.14-.1,0-.15,0l0-.13s0-.06,0-.09-.08,0-.08,0,0,.06,0,.09c-.05.23.23.12.26.26a1.77,1.77,0,0,0,0,.23s.07.08.11.09.08-.05.12-.07l.11-.05-.06.06.12.14,0,0h0L30,12s.06.05.06.07,0,.32,0,.48h0s0-.09,0-.13,0,0,0-.06l-.16-.22a.09.09,0,0,0,0,0l0,.28a.16.16,0,0,0,.2.13s.1,0,.12.08a.12.12,0,0,1,0,.08.43.43,0,0,0,0,.05v-.05s.13,0,.16-.07-.06,0,0-.09.17,0,.2-.12l.1.09a2.28,2.28,0,0,0,0-.26l-.15,0c0-.06,0-.09-.11-.11s.05-.29-.08-.4h.13c-.07.11.08.12.09.2l0,0,0-.14c.15.26,0,.2,0,.29l.07,0s.07.06.08.05,0-.12-.14-.32v-.05s-.06,0-.09,0h0c0-.08.06-.14.15-.13s0,.08.05.11.15.19.11.35,0,.38,0,.4c-.21.18.11.22.06.34s0,.09-.05.11-.12,0-.12-.12a0,0,0,0,0,0,0l-.06.17-.06.18a1,1,0,0,1,0-.1s0,0,0-.05c-.19,0,0-.21-.12-.26h0a.61.61,0,0,0,0,.19c0,.11.07.21.1.31a.1.1,0,0,1,0,.09s-.06,0-.09,0,0-.1.06-.07v0a.18.18,0,0,0-.07-.05s-.05,0,0,0l0,.3h0a.22.22,0,0,1-.1.31h.08c.19.1.05.25.05.37a.32.32,0,0,0,0,.09l0,0,0-.07a.5.5,0,0,1,.08.14s-.05.07-.09.08-.14,0-.18,0,0,.09,0,.14h.05v-.08s0,0,0,0l.15,0-.08-.05s0,0,0,0h.26s0,0,0,.06l.09-.14-.07,0s-.09,0-.11,0,.05,0,.07-.05a.28.28,0,0,0-.07-.36c-.28-.17.05-.11.06-.17s.16,0,.23-.06v0l-.05.09a0,0,0,0,1,0,0s0-.12-.05-.06-.08.11-.12.16l.15,0c.13,0,0-.07.05-.09l.15-.11c0,.09.05.25,0,.26-.19.07-.05.15,0,.25s.2.21,0,.28l.09,0c0,.1-.11.22.1.16,0,0,0,.08,0,.11s-.05,0-.08.06-.14.12-.07.22,0,.05,0,.07l0,0a.2.2,0,0,1,0-.08v.13h0c-.07,0,.05.16-.08.16s0,0,0,.06c.18.21,0-.17.14-.07l-.09-.15h0s.12.09.11.1.07.22-.09.25-.1.08-.15.13.07,0,.08,0a.92.92,0,0,1,.08.27c0,.15-.06,0-.08,0s-.06.11,0,.15.09.21-.06.26,0,0,0,.06.07.12,0,.12,0,.07,0,.11-.12,0-.17.06l-.05,0c.23,0,.16.34.38.38,0,0,.1.08.15.12a.17.17,0,0,0-.09.2c0,.11.06,0,.08,0a1,1,0,0,0,.16.06.94.94,0,0,0,0,.09l0,.16a.87.87,0,0,0-.07-.17.13.13,0,0,0-.09,0s0,0,0,0,0,.19.06.28v0h-.11s0,0,0,0l.05-.06h0l-.07.12.07,0,.2,0c-.11.13.14.31-.07.41s.07.13,0,.19l.07.08-.16-.09-.07,0v.05c.12,0,.08.14.1.13.2-.12.15.09.15.13,0,.23-.11.46-.17.68,0,0,0,0,0,0l0,0v-.12s-.05.05-.05.08,0,.14,0,.21h.05s0,.07-.05.07-.05.1,0,.15a.19.19,0,0,0,0,.07l0,0c-.06-.14-.23,0-.19,0s0-.24,0-.34-.12-.23,0-.33l-.06-.06c0,.12-.13-.12-.13,0h0s0-.05,0-.07a.61.61,0,0,1,.05-.18s.06,0,.06-.06a2.41,2.41,0,0,0-.07-.37s0-.05,0-.06.08-.14,0-.16-.06.07-.06.12a.06.06,0,0,1-.05.05c-.06,0-.15-.05-.07.07s-.07,0,0,.1.22.24,0,.33c0,0,0,0,0,.05v.16s-.05-.12-.07-.12,0,.06,0,.11-.12.06-.13-.05.12-.08.08-.17a1,1,0,0,1,0-.17L30,19h0a.27.27,0,0,1-.12.32c-.17,0,0-.1,0-.16s.13-.41.22-.62.05.15.13,0l-.09.11c.07,0,.17,0,.22,0s0-.14,0-.21l-.16.14.05-.32s0,0-.05-.05h0l-.22-.19s0-.06,0-.08,0-.08,0-.09h0s0,0,0,0l-.1,0,.18,0,0,0,0-.07,0,0h-.13c.08-.07,0-.11,0-.16s.12-.12.12,0h.05s0-.05,0-.08A3.15,3.15,0,0,1,30,17c0-.07.15-.13.22-.21s0,.08,0,.11-.05,0-.08,0,0,0,0,.06l.2,0s0,0,0-.05l0-.12s0-.07,0-.1-.06,0-.09,0-.12,0,0,.11l0,0c-.05,0-.12,0-.12,0a.36.36,0,0,1,0-.18c0-.1.13-.22,0-.32l.08-.12s0,.07,0,.07a1.83,1.83,0,0,0,.25.06l0,0-.09-.18s0,0,0,0l.1-.07,0,0,0,0s0,0,0-.05c-.12-.17,0-.3.08-.44v0h0s-.07,0-.07-.08,0-.27-.12-.33a1.21,1.21,0,0,0,0,.19.37.37,0,0,0,0,.14c-.07,0-.15.06-.22,0h0l.08,0s0-.13-.11,0-.09,0-.14,0l.09,0c0,.11.05,0,.08,0h0c0,.11.27,0,.19.24s0,.19,0,.29,0-.12-.07-.14-.11,0-.14,0-.16,0-.14-.08.1,0,.11,0l.12-.25-.16,0v0c0,.07-.06.08-.11,0s.05-.1,0-.12,0-.22.07-.32a.36.36,0,0,0,0-.1l-.05.05-.06.13s-.05-.12,0-.15A.37.37,0,0,1,30,15l.3-.1a.13.13,0,0,0,0-.09c-.07-.07-.12,0-.18,0s0-.17-.06-.26,0-.09,0-.08l-.21.07.09.08,0,0-.05,0s-.12-.06-.13-.1a1.81,1.81,0,0,1-.05-.69c0-.13,0-.23,0-.35-.24,0,0-.21-.13-.22.16-.05.05-.18.09-.27s0-.15-.15-.13,0,0-.06-.05h0l0,0c-.16-.14-.09-.37-.21-.52s.05-.07.07-.1l0,0,0,0h0l-.09,0v0c.09,0-.09-.14.07-.13,0,0,0,0,0,0s0-.13-.06-.18l0,.06,0,.09s-.06-.07-.06-.11a.41.41,0,0,1,0-.19c0-.08.18-.07.16-.19a.12.12,0,0,0-.06-.06s-.06,0-.06,0-.06.12-.14.15,0,0,0,0,.08-.17.22-.18-.08-.23.1-.29,0-.1,0-.15c-.05.19-.38-.07-.37.22,0,0,0,0-.06.05l-.08-.11a.07.07,0,0,1,0,0c.1-.07-.06-.05,0-.1l0,0c-.19-.08-.13-.29-.22-.43a1.23,1.23,0,0,1-.08-.38s-.1,0-.13,0a.19.19,0,0,1,0-.13l0,0a.14.14,0,0,1,0,.06h0l.14-.14s0-.08,0-.08,0-.17,0-.24,0-.05.07-.08a1.18,1.18,0,0,0-.19.11s0,.09,0,.13a.17.17,0,0,1,0,.24,1.13,1.13,0,0,0,0-.18.45.45,0,0,0-.28-.32.05.05,0,0,1,0,0c0-.13.07-.29-.09-.38.21-.23-.28-.18-.13-.37,0,0,.1,0,.15,0s.14.1.19,0,0-.16-.06-.23a.09.09,0,0,0,0-.05l0,0a.08.08,0,0,0,0,0s.06,0,.07,0l.12-.11,0,0-.06.08v0l-.05,0-.12-.14c0,.12-.12.11-.12.17s-.26,0-.15.16l-.09,0a0,0,0,0,1,0,0,.56.56,0,0,1,.09-.17s.05,0,.06,0a.28.28,0,0,0,0-.1c-.11,0-.24,0-.08-.18,0,0-.08,0-.09-.06s0-.19-.16-.2l0-.06a.47.47,0,0,0-.17-.09s-.07.07-.1.11,0,.06,0,.09l-.16-.18,0,0s.1,0,.08-.07S27.21,7.55,27.16,7.51Zm3.56,7.16c0,.07-.09.13-.09.19s.07,0,.11,0a.58.58,0,0,0,.05-.14S30.75,14.69,30.72,14.67Zm-1-.55.15.41h0s0,0,0,0-.09-.21.08-.25v.2a.66.66,0,0,0,.25-.07s-.18,0-.09-.16H30c-.1,0-.11,0-.06-.09-.15-.06,0-.11,0-.17s0,0,0-.05h-.06C29.79,13.92,29.9,14.12,29.76,14.12Zm.17-1s0,.09-.09.24c0,0,.1-.05.12,0l.08-.18S29.94,13.13,29.93,13.14Zm0-.21,0,.06c.08,0,.19-.05.21.09h.07C30.17,12.93,30,13,29.94,12.93Zm-1.1-3.42c-.19.15-.15.32-.1.5,0,0,.06.05.09.08s0,0,0,0L29,10s0,0,.05,0,0,.12.09.05a.17.17,0,0,0,.07-.21c-.23,0-.26-.15-.28-.33C28.89,9.53,28.84,9.51,28.84,9.51Zm-.06-.63v0c0,.15,0,.17-.17.12a.3.3,0,0,0-.13,0l0,0c0,.15.14,0,.19,0s.1.1.12,0l0-.16Z"/><polygon class="cls-1" points="30.49 11.93 30.49 11.92 30.49 11.92 30.49 11.93"/><rect class="cls-1" x="30.06" y="15.41" transform="translate(-1.09 28.48) rotate(-49.9)"/><polygon class="cls-1" points="27.54 7.88 27.55 7.87 27.54 7.87 27.54 7.88"/><polygon class="cls-1" points="30.06 15.41 30.06 15.41 30.06 15.41 30.06 15.41"/><polygon class="cls-1" points="30.88 15.28 30.88 15.28 30.88 15.28 30.88 15.28"/><rect class="cls-1" x="30.39" y="11.85" transform="translate(6.29 33.83) rotate(-63.67)"/><polygon class="cls-1" points="28.61 8.42 28.61 8.42 28.61 8.42 28.61 8.42"/><path class="cls-1" d="M30.15,12.82v-.05A.43.43,0,0,0,30.15,12.82Z"/><path class="cls-1" d="M31.16,16.61a.46.46,0,0,1,0-.41c0-.07,0-.15,0-.23L31,15.89v.62a.49.49,0,0,0,0,.12l.07.08S31.17,16.63,31.16,16.61Z"/><path class="cls-1" d="M31.14,15.24l0,0-.1.25.14.17C31.25,15.5,31.17,15.37,31.14,15.24Z"/><path class="cls-1" d="M29.06,8.58c-.17-.08.07-.18,0-.27h0c-.17-.15-.06.09-.12.09l.11.26h.06C29.14,8.63,29.13,8.61,29.06,8.58Z"/><path class="cls-1" d="M30.1,19.79a.18.18,0,0,1,0,.07.17.17,0,0,1,0,.05,1.62,1.62,0,0,0,.1-.18s0-.06-.05-.1l0,.09s-.13,0-.13.11,0,0-.05,0,0-.1,0,0,0,0,0,.08.07,0,.09,0Z"/><path class="cls-1" d="M30.31,13.6c0,.14.11.09.18,0a.34.34,0,0,0-.08-.14.3.3,0,0,0-.1,0s0,0,0,0,0,.08-.05.11h.06Z"/><path class="cls-1" d="M30,11.5c-.1,0,0-.15-.11-.09l-.11.08c.11.1.22,0,.39-.05Z"/><path class="cls-1" d="M28.5,25.08a.73.73,0,0,0-.09.08l.08.06,0,0,0,0v.08h0C28.68,25.12,28.47,25.16,28.5,25.08Z"/><path class="cls-1" d="M30.55,21a.45.45,0,0,0,.11-.13s0-.07,0-.1l-.1.09C30.39,21.06,30.57,20.93,30.55,21Z"/><path class="cls-1" d="M29.78,19.69l-.09-.1h0l-.06,0,0,.2.12-.09S29.78,19.7,29.78,19.69Z"/><polygon class="cls-1" points="30.13 18.25 30.13 18.25 30.13 18.25 30.13 18.25"/><polygon class="cls-1" points="30.13 18.25 30.13 18.25 30.13 18.25 30.13 18.25"/><path class="cls-1" d="M30,18.23c-.05.1,0-.2-.07,0,0,0,0,.05,0,.08s0,0,0,.07l.23-.09,0,0C30.08,18.24,30,18.21,30,18.23Z"/><polygon class="cls-1" points="30.13 18.25 30.13 18.25 30.13 18.25 30.13 18.25 30.13 18.25 30.13 18.25"/><path class="cls-1" d="M30.78,13.45a.15.15,0,0,1-.05.06c-.12.06.11.1,0,.15l.14-.08Z"/><path class="cls-1" d="M29.94,10.24c-.13,0,0,.11-.07.15s.14-.06.09.07l0,0C30.13,10.36,29.89,10.34,29.94,10.24Z"/><path class="cls-1" d="M27.38,7.87s.06.08.1.13l.06-.12C27.48,7.9,27.44,7.72,27.38,7.87Z"/><polygon class="cls-1" points="27.54 7.87 27.54 7.88 27.54 7.88 27.54 7.88 27.54 7.88 27.54 7.87"/><polygon class="cls-1" points="27.54 7.88 27.54 7.88 27.54 7.87 27.54 7.88"/><polygon class="cls-1" points="29.69 19.59 29.69 19.59 29.85 19.48 29.67 19.47 29.69 19.59 29.69 19.59"/><path class="cls-1" d="M29.69,19.59Z"/><path class="cls-1" d="M29.53,23.5v0l.15-.1a.2.2,0,0,0,0-.09C29.5,23.28,29.65,23.52,29.53,23.5Z"/><path class="cls-1" d="M28.14,6.94s0,.11,0,.15.08,0,.12,0L28.2,7Z"/></g></g></svg>