<svg xmlns="http://www.w3.org/2000/svg" width="501.406" height="367.905" viewBox="0 0 501.406 367.905">
  <g id="Group_480" data-name="Group 480" transform="translate(-445.501 -1158.633)">
    <path id="Path_1607" data-name="Path 1607" d="M453.169,1176.825a29.9,29.9,0,0,0-4.368,5.05c-3.65,4.95-1.891,16.706-2.052,22.837q-.325,12.36-.475,24.723c-.155,11.26-.29,22.524-.272,33.785.048,29.99.955,59.969,1.942,89.939.84,25.54,1.731,51.079,2.221,76.628q.378,19.694.394,39.39c0,11.857-2.187,24.1,1.444,35.546,1.54,4.854,4.116,9.507,8.068,12.719,5.023,4.083,14.678,2.34,20.773,2.475q11.345.25,22.69.472,21,.408,42,.695,37.516.5,75.038.484c50.317-.05,100.627-.937,150.932-1.964q11.98-.244,23.962-.5c16.654-.351,33.361.515,50,1.016,22.7.683,45.419,1.423,68.13,1.15,10.066-.122,19.836,1.34,25.922-8.351,5.41-8.617,3.879-19.812,3.674-29.462-.3-13.907-.436-27.817-.525-41.727-.2-31.179-1.442-62.805.416-93.951,1.161-19.456,1.588-38.961,2-58.444q.707-33.273.989-66.555.138-13.922.232-27.844c.063-9.2,1.456-17.238-6.666-23.694-7.2-5.725-18.34-3.571-27.034-3.6q-16.407-.057-32.812-.174c-18.959-.142-37.954-.147-56.9-.96-56.693-2.435-122.112-.156-178.865-.614q-2.32-.018-4.641-.028c-31.406-.128-62.8.969-94.174,2.324-15.769.681-31.534,1.433-47.3,2.142-13.859.623-28.57-.483-41.512,4.508A11.128,11.128,0,0,0,453.169,1176.825Z" fill="none" stroke="#504b46" stroke-miterlimit="10" stroke-width="1"/>
    <path id="Path_1608" data-name="Path 1608" d="M935.528,1176.9l.043.037c6.445,5.644,5.142,15.891,5.433,23.647.346,9.236.587,18.476.793,27.717.294,13.188.534,26.38.648,39.572.274,31.7-.286,63.405-1.142,95.094-.713,26.361-1.63,52.716-2.44,79.074q-.618,20.109-1.116,40.221c-.215,9.071,1.936,24.757-8.555,29.561-5.5,2.52-15.474.861-21.577,1q-11.151.246-22.3.464-39.516.769-79.04,1.051c-48,.293-96-.239-143.995-1.118q-29.208-.535-58.415-1.169c-15.739-.332-31.5.022-47.241.128-22.136.149-44.295.294-66.422-.477-8.34-.29-20.107,1.589-25.223-6.318-5.4-8.341-2.771-19.659-2.635-28.941.192-13.053.23-26.109.223-39.164-.019-30.051.776-60.44-1.014-90.456-2.55-42.749-3.118-85.653-3.946-128.462-.207-10.7-3.348-23.045,1.561-33.146,5.895-12.127,24.225-8.242,35.612-8.933,27.531-1.67,73.738-1.922,101.3-3.106,54.654-2.348,91.276-3.2,145.987-3.643,58.549-.472,117.106,1.2,175.621,2.993C924.579,1172.731,930.031,1172.111,935.528,1176.9Z" fill="none" stroke="#f08e8b" stroke-miterlimit="10" stroke-width="1"/>
    <path id="Path_1609" data-name="Path 1609" d="M922.724,1513.822q.15-.156.3-.321c3.925-4.292,3.972-10.948,4.31-16.393q.675-10.908,1.247-21.824,1.126-21.581,1.854-43.18c.955-28.091,1.439-56.2,1.6-84.3q.011-1.969.013-3.939.133-49.136-.171-98.273c-.092-18.415-.206-36.832-.474-55.245-.1-7.107,1.026-16.882-2.655-23.225-4.288-7.391-15.934-5.991-23.117-6.164-52.065-1.259-104.141-2.024-156.223-1.781-50.794.237-101.58,1.345-152.361,2.49-5.024.113-10.051.1-15.076.09-21.544-.061-43.086-.4-64.631-.314-11.074.045-22.151.171-33.218.569-10.283.37-21.718-.309-28.822,8.63-3.4,4.276-2.1,12.082-2.111,17.265q-.017,9.18.057,18.358.147,21.4.484,42.8c.419,29.521,2.652,59.62,1.005,89.121-2.227,39.9-1.658,80.039-1.43,119.987q.108,18.768.317,37.535c.079,7.119-3.172,20.253,2.63,25.93,2.863,2.8,8.921,1.736,12.864,1.93q10.441.513,20.874,1.2c27.53,1.784,53.052-1.079,80.612.187,54.654,2.508,117.721.16,172.432.632,31.61.272,63.185-1.484,94.715-3.546,15.722-1.028,31.44-2.13,47.168-3.078,7.908-.477,15.819-.938,23.734-1.29C914.485,1517.4,918.4,1518.322,922.724,1513.822Z" fill="none" stroke="#504b46" stroke-miterlimit="10" stroke-width="1"/>
  </g>
</svg>
