<svg xmlns="http://www.w3.org/2000/svg" viewBox="0 0 266.83 86.99"><defs><style>.cls-1{fill:#504b46;}.cls-2{fill:#fff;}</style></defs><g id="レイヤー_2" data-name="レイヤー 2"><g id="bg"><path class="cls-1" d="M260.07,54.87c-3.28.83-6.48,2.05-9.71,3s-6.48,1.92-9.73,2.83a14.76,14.76,0,0,1-2.89.46c-2,.15-3.93.24-5.9.31-2.86.1-5.73.2-8.59.23-1.23,0-2.45-.17-3.67-.17a33.61,33.61,0,0,1-4.62-.38c-.88-.12-1.79-.14-2.66-.29-1.44-.25-2.86-.57-4.29-.84-2-.4-4-.77-6-1.17-1.67-.32-3.32-.68-5-1s-3.26-.62-4.88-1c-2.77-.6-5.53-1.23-8.29-1.85l-2.26-.49c-2.35-.53-4.76-.84-7.09-1.48a51.47,51.47,0,0,0-6-1.13c-2.24-.33-4.52-.53-6.77-.83-3.93-.51-7.84-1.07-11.77-1.56-2.42-.3-4.87-.43-7.29-.75s-4.71-.52-7.07-.74a91.26,91.26,0,0,0-9.5-.15c-4.19.07-8.37.39-12.55.79-4.35.41-8.65,1.06-12.94,1.76-2.79.46-5.53,1.14-8.28,1.8-4,1-7.94,1.94-11.88,3q-7.52,2-15,4.05c-2.24.63-4.44,1.35-6.64,2.06-3.48,1.12-6.95,2.25-10.39,3.42-1.31.44-1.39.76-.73,1.93a4.72,4.72,0,0,0,.77-.13l4-1.46c2.25-.83,4.46-1.72,6.75-2.45l1.27-.4a.49.49,0,0,1,0,.12,32.8,32.8,0,0,0,.87,6.46c.15.61.42,1.2.53,1.82.34,1.85.7,3.7.9,5.57a29.49,29.49,0,0,1,0,3.64.89.89,0,0,1-.15.4,5.08,5.08,0,0,1-3.08,2.28,46.09,46.09,0,0,1-8.94,1.34,2.16,2.16,0,0,0-2.66-.4A9,9,0,0,1,46,84a22.58,22.58,0,0,1-3.71.57c-1.17,0-2.34.36-3.51.44-2.21.16-4.43.24-6.64.33-.77,0-1.54,0-2.3,0-1.68-.09-3.35-.21-5-.34-1.42-.11-2.85-.22-4.27-.4-1.17-.15-2.31-.45-3.48-.61a55.38,55.38,0,0,1-8.75-1.91c2.36-1.4,5.23-5.34,6.15-6.36s2.09-2.18,3-3.36c2.14-2.85,4.21-5.73,6.24-8.64A5.3,5.3,0,0,0,24.34,62c.09-.37-.17-.64-.56-.85A12.91,12.91,0,0,1,21.9,60c-1.64-1.28-3.29-2.57-4.83-3.93-1.14-1-2.13-2.14-3.16-3.23-1.45-1.52-2.82-3.09-4.3-4.58A45.78,45.78,0,0,1,3.9,40.46a10.84,10.84,0,0,1-.76-2.08c.55.13.87.19,1.17.28,1.63.51,3.25,1.08,4.91,1.54a53.53,53.53,0,0,0,17,1.74C30,41.73,35.48,42,38.73,40a1.13,1.13,0,0,0,.23-.17c0,.49.09,1,.14,1.46.2,2.07.41,4.12.58,6.19s.3,4.38.51,6.57c.15,1.51.46,3,.61,4.52.23,2.25.38,4.5.59,6.76a3.13,3.13,0,0,0,.29,1,6.25,6.25,0,0,1,.67,1.31,5.66,5.66,0,0,0,1.91,2.93,25.83,25.83,0,0,0,5.31,3.93,32.92,32.92,0,0,0,6.68,3,2.9,2.9,0,0,0,3.24-1.35.85.85,0,0,0,0-.68,2.8,2.8,0,0,0-2.49-.8,4,4,0,0,1-2.93,0,16.28,16.28,0,0,1-6.5-3.38c-1.39-1.18-2.87-2.39-2.86-4.3,0-.2-.33-.52-.57-.57a.8.8,0,0,1-.74-.92,2.66,2.66,0,0,0-.2-.82,38.35,38.35,0,0,1-1.39-7.25c-.35-2.94-.64-5.87-.94-8.81-.24-2.42-.5-4.84-.67-7.26-.13-1.84-.14-3.68-.21-5.52s-.16-3.55-.21-5.33c0-1.22,0-2.43,0-3.65h0l-.09-1.56a7.25,7.25,0,0,0,1.42-.71c1.44-.9,2.83-1.1,4.29-1.79s2.62-1.35,4-1.91c3.69-1.51,7.36-3.07,11.14-4.41,4.84-1.73,9.76-3.31,14.69-4.85,4-1.25,8-2.4,12-3.5a153.3,153.3,0,0,1,15.53-3.56c3.32-.54,6.63-1.16,10-1.61,3.73-.5,7.49-.91,11.24-1.23,3.32-.29,6.65-.42,10-.58a83,83,0,0,1,10.46,0c3.17.23,6.36.41,9.54.61,1,.07,2,.08,2.95.17,1.82.16,3.66.3,5.47.54,2.38.3,4.73.69,7.1,1,1.41.2,2.85.3,4.24.57,2.7.51,5.38,1.11,8.06,1.67,2.41.52,4.83,1,7.23,1.56s4.78,1.11,7.14,1.76,4.76.92,7,1.73a7.53,7.53,0,0,0,1.07.23,21.92,21.92,0,0,1,2.73.49,45,45,0,0,0,7,1.28c2.91.4,5.83.69,8.76,1a17.07,17.07,0,0,0,4,.13c1.24-.17,2.41.12,3.63,0,1.51-.14,3.06,0,4.59,0,1.23,0,2.47-.11,3.7-.18a91.12,91.12,0,0,0,9.18-.9l1.45-.24,8.6-1.37c.31,0,.62-.07,1-.11a2.94,2.94,0,0,1-.19.37c-1.16,1.62-2.36,3.23-3.49,4.86-.88,1.26-1.66,2.58-2.54,3.84-1.81,2.61-3.66,5.2-5.48,7.8-1,1.45-2.05,2.9-3,4.36a13.36,13.36,0,0,0-1,1.81c-.15.3-.33.7.16.93a1.13,1.13,0,0,0,1.23-.28c.37-.32.69-.69,1.1-1.1a18,18,0,0,1,1.54,1.14,87.51,87.51,0,0,1,6.45,6.32c1.34,1.51,2.72,3,4.1,4.48s2.75,2.9,4.11,4.36c.43.45.79,1,1.24,1.37a11.5,11.5,0,0,0,1.32,1.08c-.63.46-1.25,1.22-1.61,1.46A6.87,6.87,0,0,1,260.07,54.87Z"/><path class="cls-1" d="M0,36.08c.25-.18.5-.37.76-.54a1.51,1.51,0,0,1,1.4-.15c1.65.68,3.27,1.43,5,2a36.23,36.23,0,0,0,5,1.45c2.47.5,5,.87,7.49,1.17a33.58,33.58,0,0,0,7,.18c2.82-.26,5.65-.4,8.47-.65a20.57,20.57,0,0,0,2.13-.51c.42-.08,1-.22,1.22.23a.76.76,0,0,1-.32,1.05,3.69,3.69,0,0,1-1.53.63c-3.46.37-6.93.78-10.41,1a53,53,0,0,1-17-1.74c-1.66-.45-3.28-1-4.91-1.53-.3-.09-.62-.15-1.17-.28a11,11,0,0,0,.76,2.07,45.38,45.38,0,0,0,5.71,7.79c1.48,1.5,2.85,3.06,4.3,4.59,1,1.09,2,2.22,3.16,3.22,1.54,1.37,3.19,2.65,4.83,3.93a12.12,12.12,0,0,0,1.88,1.12c.39.2.65.47.56.84a5.27,5.27,0,0,1-.64,1.78c-2,2.9-4.1,5.79-6.24,8.64-.88,1.17-2,2.24-3,3.36-1.38,1.54-2.73,3.1-4.15,4.62a4.33,4.33,0,0,1-1.44.94,1.36,1.36,0,0,1-1.11-.1.93.93,0,0,1-.15-1A3.46,3.46,0,0,1,8.66,79a22.44,22.44,0,0,0,4.27-3.82c2-2.23,3.79-4.62,5.6-7,1-1.32,1.89-2.72,2.79-4a2.6,2.6,0,0,0-1.24-1.54,16,16,0,0,1-2.3-2.12q-2.07-2.22-4.05-4.5c-1.72-2-3.39-4-5.11-6-.71-.83-1.54-1.59-2.22-2.44C5,45.71,3.55,43.85,2.14,42c-.22-.29-.4-.6-.61-.9a2.48,2.48,0,0,1,.12-3.32l-1.6-.87Z"/><path class="cls-1" d="M260.54,10.82c.22.46-.07.91-.46,1.41-1.77,2.34-3.47,4.71-5.23,7.05a128.84,128.84,0,0,0-7.32,10.9c-.23.37-.52.71-.69.95l1.47,1.68c.34.37.69.75,1.07,1.1,1.85,1.75,3.75,3.46,5.56,5.24,1.43,1.4,2.74,2.9,4.14,4.32,1.25,1.26,2.56,2.48,3.83,3.73.53.52,1,1.1,1.54,1.6s1.25,1,1.81,1.53a1.34,1.34,0,0,1,.05,2.16,1.27,1.27,0,0,1-1.64.19A10.29,10.29,0,0,1,263,51.36c-.45-.43-.81-.93-1.24-1.38-1.36-1.45-2.75-2.9-4.11-4.36s-2.76-3-4.1-4.48a89.56,89.56,0,0,0-6.45-6.32,18,18,0,0,0-1.54-1.13c-.41.41-.73.77-1.1,1.09a1.12,1.12,0,0,1-1.23.28c-.49-.22-.31-.62-.16-.93a13.36,13.36,0,0,1,1-1.81c1-1.46,2-2.9,3-4.35,1.82-2.6,3.67-5.19,5.48-7.8.88-1.27,1.66-2.58,2.54-3.84,1.13-1.64,2.33-3.25,3.49-4.87a2.65,2.65,0,0,0,.19-.36c-.39,0-.7.06-1,.11l-8.6,1.36-1.45.24a85.65,85.65,0,0,1-9.18.9c-1.23.07-2.47.16-3.7.18-1.53,0-3.08-.14-4.59,0-1.22.11-2.39-.18-3.63,0a17.63,17.63,0,0,1-4-.14c-2.93-.28-5.86-.57-8.76-1a43.86,43.86,0,0,1-6.95-1.28,23.92,23.92,0,0,0-2.73-.48,7.55,7.55,0,0,1-1.07-.24c-2.26-.8-4.7-1.08-7-1.72s-4.75-1.22-7.14-1.77-4.82-1-7.23-1.55c-2.68-.57-5.36-1.17-8.06-1.68-1.39-.26-2.83-.36-4.24-.56-2.37-.34-4.72-.73-7.1-1-1.81-.23-3.65-.38-5.47-.54-1-.08-2-.1-3-.16-3.18-.2-6.37-.38-9.54-.62a84.9,84.9,0,0,0-10.46,0c-3.33.16-6.66.3-10,.58-3.75.32-7.51.73-11.24,1.23-3.34.45-6.65,1.07-10,1.62A150.61,150.61,0,0,0,87.17,8.1q-6,1.65-12,3.5c-4.93,1.55-9.85,3.13-14.69,4.85-3.78,1.34-7.45,2.9-11.14,4.42-1.37.56-2.66,1.27-4,1.9-.54.26-1.1.51-1.66.72a1.2,1.2,0,0,1-1.45-.21c-.26-.32,0-.78.59-1.14A8.55,8.55,0,0,1,44,21.57c2.72-1.13,5.42-2.31,8.18-3.35s5.58-2,8.4-2.91c4.51-1.48,9-3,13.57-4.34,5.65-1.7,11.26-3.5,17-4.82,4.66-1.06,9.36-2,14.07-2.92,3.58-.67,7.2-1.21,10.83-1.67S123.41.81,127.05.5c2.4-.2,4.8-.34,7.21-.44C136,0,137.7,0,139.42,0q5.84.14,11.65.35c1.48,0,2.94.24,4.41.36,2,.15,3.91.25,5.85.45s4.13.49,6.2.75c1.86.24,3.73.45,5.58.75,2.8.45,5.59,1,8.37,1.49s5.45,1.08,8.17,1.65c1.46.31,2.9.69,4.36,1s3.1.61,4.65.92c.6.12,1.18.29,1.77.43,2.43.56,4.86,1.15,7.31,1.65,1.58.33,3.19.57,4.8.77,2.18.26,4.34.62,6.56.71,2,.07,3.9.33,5.86.49.61,0,1.23,0,1.85,0s1,0,1.46,0a2.74,2.74,0,0,0,.48.06,31.36,31.36,0,0,1,5.73-.12,24.22,24.22,0,0,0,2.93-.22c2.58-.19,5.19-.28,7.76-.58,2.23-.27,4.43-.77,6.64-1.18l6.42-1.22c.72-.14,1.44-.33,2.17-.41,1.12-.12,1.63.45,1.18,1.33A9.7,9.7,0,0,1,260.54,10.82Z"/><path class="cls-1" d="M47.59,66.69c-.66-1.16-.58-1.48.73-1.93,3.44-1.17,6.91-2.3,10.39-3.42,2.2-.71,4.4-1.43,6.64-2.05q7.49-2.09,15-4.06c3.94-1,7.91-2,11.88-3,2.75-.65,5.49-1.34,8.28-1.79,4.29-.7,8.59-1.36,12.94-1.77,4.18-.39,8.36-.72,12.55-.78a88.58,88.58,0,0,1,9.5.15c2.36.21,4.72.42,7.07.73s4.87.46,7.29.76c3.93.48,7.84,1.05,11.77,1.56,2.25.29,4.53.49,6.77.83a51.47,51.47,0,0,1,6,1.13c2.33.64,4.74,1,7.09,1.48l2.26.49c2.76.61,5.52,1.24,8.29,1.84,1.62.35,3.25.65,4.88,1s3.31.69,5,1c2,.4,4,.77,6,1.16,1.43.28,2.85.6,4.29.84.87.15,1.78.17,2.66.3a32.11,32.11,0,0,0,4.62.37c1.22,0,2.44.19,3.67.18,2.86,0,5.73-.13,8.59-.24,2-.07,3.93-.16,5.9-.31a14.76,14.76,0,0,0,2.89-.46c3.25-.9,6.49-1.85,9.73-2.82,2.48-.75,4.95-1.55,7.42-2.34,1.24-.39,2.46-.82,3.71-1.18a6.93,6.93,0,0,1,1.58-.23c.72,0,1,.33.91,1a2.34,2.34,0,0,1-1.36,1.57,6.42,6.42,0,0,1-1.13.43c-2,.5-4.05.94-6.06,1.48s-3.81,1.15-5.73,1.69c-2.15.61-4.32,1.18-6.49,1.75-1,.26-2,.45-3,.75a28.56,28.56,0,0,1-7.31.86c-1.93.07-3.85.13-5.78.18-2.1,0-4.2.15-6.29,0a70.77,70.77,0,0,1-7.29-.67,83.69,83.69,0,0,1-9.07-1.67c-1.94-.51-4-.77-6-1.2-2.44-.54-4.86-1.16-7.29-1.72-.94-.22-1.9-.39-2.84-.59-2-.44-4-.87-6-1.32l-5.67-1.28c-4.65-1.07-9.39-1.83-14.15-2.54-2.21-.33-4.45-.53-6.67-.8-1.91-.23-3.81-.49-5.72-.73l-4.7-.55c-3.52-.39-7-.82-10.55-1.15a53.35,53.35,0,0,0-5.66-.23c-4.4.08-8.8.19-13.2.42-2.58.13-5.15.51-7.72.82-2.28.27-4.56.56-6.83.9-1.21.18-2.4.46-3.59.73-3.51.77-7,1.52-10.53,2.36-3.06.74-6.09,1.57-9.12,2.4-2.87.78-5.73,1.6-8.58,2.44-3.52,1-7,2.06-10.52,3.17-2.29.74-4.5,1.63-6.75,2.45-1.33.49-2.65,1-4,1.47A4.81,4.81,0,0,1,47.59,66.69Z"/><path class="cls-1" d="M63.22,80.54a11.59,11.59,0,0,1-.17,1.27A3.36,3.36,0,0,1,60.71,84a28.85,28.85,0,0,1-6.48,1.68,22.53,22.53,0,0,1-2.77.46c-2.31,0-4.52.77-6.82.81-.72,0-1.45-.13-2.18-.12S40.84,87,40,87c-3.08,0-6.16,0-9.23-.1-2,0-4.07-.15-6.09-.31-1.63-.13-3.25-.36-4.86-.57-2.71-.35-5.44-.66-8.12-1.11-2.08-.36-4.11-.9-6.15-1.39-.67-.16-.81-.54-.51-1.06a1.62,1.62,0,0,1,2.13-.68A55.43,55.43,0,0,0,17,84c1.17.15,2.31.45,3.48.6,1.42.18,2.85.29,4.27.41,1.68.13,3.35.25,5,.34.76,0,1.53,0,2.3,0,2.21-.1,4.43-.18,6.64-.33,1.17-.09,2.34-.45,3.51-.45A21.56,21.56,0,0,0,46,84a9,9,0,0,0,1.86-.52,2.15,2.15,0,0,1,2.66.41,46.89,46.89,0,0,0,8.94-1.35,5.08,5.08,0,0,0,3.08-2.28.86.86,0,0,0,.15-.39,29.51,29.51,0,0,0,0-3.64c-.2-1.87-.56-3.73-.9-5.58-.11-.61-.38-1.2-.53-1.81-.39-1.49-.75-3-1.13-4.46a1.61,1.61,0,0,1,1.54-1.72c.42,0,.7.14.76.52.35,2.1.68,4.2,1.05,6.29.32,1.78.71,3.55,1,5.33.18,1.07.31,2.14.41,3.21A2.07,2.07,0,0,1,63.22,80.54Z"/><path class="cls-2" d="M39.72,26.84c0,1.21,0,2.43,0,3.64.05,1.78.15,3.56.21,5.33s.08,3.69.21,5.52c.17,2.43.43,4.84.67,7.26.3,2.94.59,5.88.94,8.81a38.45,38.45,0,0,0,1.39,7.26,2.6,2.6,0,0,1,.2.81.8.8,0,0,0,.74.92c.24.06.57.37.57.57,0,1.92,1.47,3.12,2.86,4.3A16.16,16.16,0,0,0,54,74.64a3.91,3.91,0,0,0,2.93,0,2.83,2.83,0,0,1,2.49.8.87.87,0,0,1,0,.69,2.89,2.89,0,0,1-3.24,1.34,33.46,33.46,0,0,1-6.68-3,25.51,25.51,0,0,1-5.31-3.94,5.62,5.62,0,0,1-1.91-2.93,6,6,0,0,0-.67-1.3,3.27,3.27,0,0,1-.29-1c-.21-2.25-.36-4.51-.59-6.76-.15-1.51-.46-3-.61-4.52-.21-2.19-.32-4.38-.51-6.57s-.38-4.12-.58-6.18-.41-4.37-.64-6.56c-.3-2.92-.63-5.85-.94-8.78a4.41,4.41,0,0,1-.08-1.35,2.43,2.43,0,0,1,.64-1.2,1.48,1.48,0,0,1,1.1-.25c.23.05.44.47.47.74.1,1,.13,2,.19,2.93Z"/><path class="cls-2" d="M105.07,41.48a.55.55,0,0,1-.66-.3.6.6,0,0,1,0-.3c.18-1.12.6-3.28,1.15-5.76l.21-.94c.24-1.06.51-2.22.8-3.4,1.24-5.11,3-10.89,2.83-11.65s-1.64-.59-1.93-.53c-1.74.33-4.51,1.92-4.28,2.89,0,.25-.19.5-.56.59a.63.63,0,0,1-.76-.51c-.38-1.57,3.37-3.65,5.39-4s3.21.14,3.44,1.42a15.61,15.61,0,0,1-.89,4.21c1.51-2.73,4.38-7,8-7.52,3-.39,3.89,1.84,4.11,3.75a13.55,13.55,0,0,1-10.62,14c-1,.19-3.42.51-3.73-1a.6.6,0,0,1,.5-.67.58.58,0,0,1,.7.42c.08.44,1.64.29,2.33.16a12,12,0,0,0,7.29-4.86,12.22,12.22,0,0,0,2.23-8.07c-.24-2-1.14-2.9-2.75-2.68-4.16.53-9.26,9.82-10.63,16.16Q106.32,37,105.53,41A.6.6,0,0,1,105.07,41.48Z"/><path class="cls-2" d="M128.54,37.58a1.6,1.6,0,0,1-1.8-1.38c-.11-1.07.81-2.86,1.53-4.1,0,0,.81-1.48,1.25-2.44a2,2,0,0,0,.2-.78c0-.13,0-.25-.46-.22l-.83.07a1.34,1.34,0,0,1-1.31-.46c-1.27,1.55-6.26,8.22-7.44,10a.57.57,0,0,1-1-.2.66.66,0,0,1,.07-.38c1.18-1.8,6.5-9,7.54-10.17.3-.42.56-.75.78-1l.37-.46a.78.78,0,0,1,.51-.29c.42,0,.66.19.68.43a1.18,1.18,0,0,1-.17.55,2,2,0,0,0-.27.92,1.08,1.08,0,0,0,.41,0l.83-.07a1.32,1.32,0,0,1,1.52,1.08c.06.94-1,2.73-1.61,3.93l-.12.21c-.65,1.2-1.36,2.57-1.29,3.3a.47.47,0,0,0,.53.42.84.84,0,0,0,.42-.16,35,35,0,0,0,3.7-3.79c.49-.55.95-1.06,1.37-1.47a.64.64,0,0,1,.42-.19.62.62,0,0,1,.64.48.57.57,0,0,1-.17.4l-.53.58a46.75,46.75,0,0,1-4.7,4.83A2.45,2.45,0,0,1,128.54,37.58Z"/><path class="cls-2" d="M136.29,37a2.79,2.79,0,0,1-2.89-2.9c-.14-2.38,1.39-6,4.78-8a.76.76,0,0,1,.3-.1.62.62,0,0,1,.65.51.57.57,0,0,1-.28.47c-2.86,1.76-4.38,5-4.27,7.09,0,.91.51,1.94,1.66,1.89a5.76,5.76,0,0,0,3.52-2,3.65,3.65,0,0,1-1.42-3.06c-.06-1.75,1.13-5.21,3.51-5.24,1.4,0,1.88,1.39,1.88,2.58a9.07,9.07,0,0,1-2.13,5.3,1.71,1.71,0,0,0,.39,0c1.21,0,2.59-.87,4.43-2.7a.71.71,0,0,1,.48-.17.53.53,0,0,1,.53.57.5.5,0,0,1-.16.35c-1.55,1.48-3.34,3-5.31,3a3.71,3.71,0,0,1-1.15-.18C139.22,36.13,137.77,37,136.29,37Zm5.57-10.29c-1.38,0-2.35,2.77-2.32,4.13a2.76,2.76,0,0,0,.92,2.23,7.91,7.91,0,0,0,2-4.82C142.51,27.54,142.34,26.73,141.86,26.74Z"/><path class="cls-2" d="M143.44,47.7a2.07,2.07,0,0,1-2.21-2.12c0-2.35,2-7,4.47-11.9l.22-.45c.23-.45.46-.9.71-1.34a.6.6,0,0,1-.48-.54.47.47,0,0,1,.15-.35l1.52-1.43c.07-.17.17-.36.27-.55s.26-.5.38-.77c1-1.92,1.91-3.66,2.75-5.25.17-.32.35-.64.52-1,1.22-2.31,2.26-4.18,3.19-5.61a3.65,3.65,0,0,1,3.36-1.79A2.21,2.21,0,0,1,160.57,17a5.41,5.41,0,0,1-.18.72c-.92,2.41-5.13,6.39-11.6,12.46-.84,1.58-1.66,3.18-2.46,4.78a1.35,1.35,0,0,1,.52-.06c.32,0,.61,0,.86,0l.51,0a3.56,3.56,0,0,0,1.45-.23c1.41-.49,3.37-2.27,4.58-3.32l.29-.26c.14-.12.34-.31.6-.56s.88-.84,1.51-1.39c.92-.82,1.86-1.63,2.81-2.43a.59.59,0,0,1,.5-.17c.38,0,.58.24.55.54a.75.75,0,0,1-.08.32,42.21,42.21,0,0,0-2.87,4.06,14.1,14.1,0,0,0-1.9,4.14c0,.48,0,.63.26.65a1.81,1.81,0,0,0,1.14-.41c2.26-1.6,4.42-3.34,5.26-4a.6.6,0,0,1,.54-.16.55.55,0,0,1,.52.58.6.6,0,0,1-.23.36c-.63.54-2.37,1.91-5.4,4.06a3.09,3.09,0,0,1-1.95.65,1.41,1.41,0,0,1-1.32-1.67c.09-1.33,1.15-3.33,2.13-4.91l-.48.45a10,10,0,0,1-.78.69l-.38.33c-2.05,1.77-3.36,3-4.87,3.47a6,6,0,0,1-2.18.28c-.23,0-.42,0-.6,0l-.42,0c-.09,0-.12,0-.12.15a11.05,11.05,0,0,0,.11,1.54c0,.21.05.42.07.62a24.79,24.79,0,0,1,.31,4C147.13,45.86,145.19,47.7,143.44,47.7Zm2.18-11.25c-1.55,3-3.31,7.14-3.29,9.12a1,1,0,0,0,1.07,1.06c1,0,2.65-1.16,2.75-4.33a24.28,24.28,0,0,0-.31-3.84A18.53,18.53,0,0,1,145.62,36.45ZM158.21,15.7A2.47,2.47,0,0,0,156.05,17c-.78,1.23-1.78,2.93-3.17,5.52-.46.88-1,1.82-1.48,2.8-.31.58-.62,1.18-.94,1.8,2.9-2.85,7.7-7.27,8.62-9.43a3.48,3.48,0,0,0,.18-.62A1.13,1.13,0,0,0,158.21,15.7Zm4.37,8.82a.83.83,0,0,1-.79-1,1.16,1.16,0,0,1,1.3-1,.85.85,0,0,1,.83,1A1.15,1.15,0,0,1,162.58,24.52Z"/><path class="cls-2" d="M165.37,38.39a2,2,0,0,1-1.56-2.45A10.5,10.5,0,0,1,165,32.52c-1.89,1.6-3.72,3.24-5.51,4.91a.6.6,0,0,1-.44.13.56.56,0,0,1-.55-.57.52.52,0,0,1,.18-.34c.36-.34,6.41-5.79,7.9-7,4.18-7,6.46-9.36,7.16-10.15,2-2.15,3.46-2.39,4.32-2.23a1.54,1.54,0,0,1,1.28,1.92,2.94,2.94,0,0,1-.72,1.4c-2,2.19-7.15,6.39-11.08,9.77a24.57,24.57,0,0,0-2.35,4.76l0,.18a6,6,0,0,0-.15.73c-.11.78,0,1.17.64,1.26s3.06-1.62,4.76-2.83c.66-.48,1.27-.91,1.76-1.22a.73.73,0,0,1,.49-.12.55.55,0,0,1,.48.65.6.6,0,0,1-.25.35c-.46.28-1,.69-1.63,1.13C169.25,36.73,166.86,38.59,165.37,38.39Zm12.44-20c-.46-.09-1.54.34-3,1.83a46.74,46.74,0,0,0-5.18,6.9c3.59-3.09,6.59-5.68,7.89-7.15a2,2,0,0,0,.51-1C178.07,18.83,178.12,18.4,177.81,18.34Z"/><path class="cls-2" d="M173.32,39.69a2.81,2.81,0,0,1-2.45-3.51c.46-3,4.56-7.49,8.07-6.76,1.3.26,2,1.09,1.77,2.08-.34,1.56-3,3-8,3.08a6.19,6.19,0,0,0-.65,1.86,1.66,1.66,0,0,0,1.41,2.18c1.58.29,4.7-.47,9.09-3.26a.57.57,0,0,1,.5-.06.55.55,0,0,1,.41.67.56.56,0,0,1-.23.31C179.19,38.83,175.68,40.12,173.32,39.69Zm5.41-9.22c-1.84-.38-4.14,1.53-5.3,3,4.09-.22,5.92-1.46,6.09-2.27C179.61,30.77,179,30.53,178.73,30.47Z"/></g></g></svg>