<svg xmlns="http://www.w3.org/2000/svg" width="511.556" height="12.834" viewBox="0 0 511.556 12.834">
  <g id="Group_686" data-name="Group 686" transform="translate(-973.107 -11292.75)">
    <path id="Path_2093" data-name="Path 2093" d="M978,11297.754c176.5,11.746,335.5-9.254,500,2.428" fill="none" stroke="#504b46" stroke-miterlimit="10" stroke-width="1"/>
    <g id="Group_684" data-name="Group 684">
      <path id="Path_2094" data-name="Path 2094" d="M985.291,11299.663l-.057-.023c-.02.037-.036.1-.064.11-.234.061-.137.209-.123.344-.187-.163-.377-.312-.568-.447.106-.092-.123-.266.119-.333a.2.2,0,0,0,.1-.179.22.22,0,0,0-.029-.071h-.3c0-.011,0-.021,0-.03l.524,0c-.031-.055-.179-.106-.159-.154l.1-.194.155.092c-.014-.058-.01-.15-.046-.164a.807.807,0,0,0-.26-.023l-.282-.006.449-.117-.1-.085a1.732,1.732,0,0,1,.16-.146c.054-.042.295.374.194-.071.1-.071.271-.15.268-.222a.41.41,0,0,0-.581-.415c-.114.032-.223.078-.335.118.02-.031.059-.067.056-.1,0-.051-.023-.117-.067-.137-.3-.154-.546-.394-.43-.636.1-.2-.387-.287.025-.435l-.063-.035-.1-.055a1.509,1.509,0,0,1,.205-.105c.036-.011.082.016.123.025l-.014-.269c-.031.025-.065.072-.094.072a.441.441,0,0,1-.169-.04.089.089,0,0,1-.026-.089l.181-.455a1.244,1.244,0,0,1-.238.016c-.055-.008.09-.113-.076-.149a.759.759,0,0,1-.521-.4c-.073-.134-.32-.15-.225-.4-.016,0-.037,0-.046.01-.3.329-.2-.241-.419-.159-.2.1-.215-.479-.53-.165-.041.043-.233-.061-.352-.1-.01,0,0-.062,0-.094l.266.085c.027.008.082,0,.089-.012a.361.361,0,0,0,.017-.12c-.027.006-.062.022-.08.013a1.286,1.286,0,0,1-.164-.121s.009-.045.022-.051c.333-.159-.207-.209-.044-.348-.051,0-.118-.021-.151,0-.163.114-.6.12-.212.472-.017.011-.036.035-.05.032-.178-.027-.462.24-.454-.221,0-.006-.218-.042-.249,0-.173.249.233.055.16.242,0-.215-.449.36-.268-.184-.021-.007-.046-.023-.063-.017-.306.162-.33-.522-.673-.264,0-.04.014-.1,0-.116s-.083-.02-.126-.027l.034.459c.013-.01.03-.03.038-.026a.317.317,0,0,1,.062.048l-.24.188c.059-.49-.4-.139-.5-.389-.011-.026-.062-.034-.1-.051l-.035.11a.334.334,0,0,1,.1.045,2.513,2.513,0,0,1,.217.219l-.011.029a.4.4,0,0,1-.118,0c-.241-.079-.607-.306-.6.206-.041.007-.084,0-.125.013-.012-.133-.178-.354.113-.314-.012-.066-.091-.183.069-.123-.064-.041-.173-.132-.192-.112-.107.1-.367.063-.3.352.009.04-.107.113-.168.16a1.081,1.081,0,0,1-.126.063.516.516,0,0,0,.112.019.342.342,0,0,1,.257.021,4.974,4.974,0,0,0-1.734.809,3.6,3.6,0,0,1,.377-.518c.018-.019.1.041.135.031a1.609,1.609,0,0,0,.309-.118c.028-.014.034-.076.051-.115-.008,0-.02-.013-.024-.01-.225.162-.012-.285-.2-.182l.023-.17c.317.176.366-.092.546-.252.136-.112.277-.318.565-.26.124.024-.322-.141-.131-.354-.021-.018-.056-.055-.063-.051-.039.026-.068.071-.108.1-.09.058-.161.174-.294.05-.037-.034-.117-.022-.176-.025a.371.371,0,0,1,.038.086,3.4,3.4,0,0,1-.339.241c-.04.023-.115-.01-.173-.01l.192-.108a.381.381,0,0,0,.07-.073.365.365,0,0,0-.1,0,4.984,4.984,0,0,0-1.276.567c-.068.048-.428.266.005.39.047.014-.223.177-.036.316l-.072.036-.041-.136-.107-.355-.025.207c-.194-.028.044.354-.256.258-.453-.127-.29.479-.59.551l.266.307a1.361,1.361,0,0,1,.083.128l-.217.107c-.016.007-.049-.018-.074-.028a.574.574,0,0,0,.14-.048c.022-.013.036-.082.036-.082a1.658,1.658,0,0,0-.2-.109.049.049,0,0,0-.043.02c-.042.182.215.447-.169.5-.035,0-.076.056-.1.046-.055-.026-.139-.075-.142-.117a1.088,1.088,0,0,1,.052-.343c-.08.078-.15.163-.222.247a1.529,1.529,0,0,1-.141.122,1.894,1.894,0,0,1,.252.243c.022.03.159-.071.1.119a.329.329,0,0,1-.308.284c.061.11.1.256.193.314.313.2.174.545.361.753-.012.04-.025.079-.036.118-.1-.037-.2-.134-.267.008-.027.063.292.242-.1.173-.167-.027-.078.128-.075.207,0,.031,0,.086-.014.088-.309.053-.269.244-.186.446.027.069-.051.176-.1.259s-.123-.285-.155,0a.945.945,0,0,0,.152.487c.019.041.1.056.156.082-.1.078-.181.209-.284.237-.33.088-.088.34-.159.5-.012.022.155.1.246.153h0l.034.232a1.451,1.451,0,0,0-.093-.143c-.013-.017-.048-.019-.073-.026-.009.048-.044.12-.024.14.182.176.088.306-.051.449-.046.047-.117.1-.117.157s.06.138.094.207c.372-.23.3.028.3.243l.179-.006c-.371.271.037.4.145.53.117.156.422.172.144.472-.027.028.191.284.3.427a1.42,1.42,0,0,1,.166-.346c.073-.087-.263-.116-.005-.194.1-.03.189-.071.282-.109a1.655,1.655,0,0,1-.055.385c-.081.177-.078-.086-.147-.04a.071.071,0,0,0-.023.047,1.814,1.814,0,0,0,.014.206l.044.007c.064-.15.459,0,.324-.336-.033-.1.57-.35-.053-.33-.1,0-.492-.166-.377-.506.02-.057.274-.021.08-.133a.39.39,0,0,0-.226.006c-.039.007-.073.057-.109.088a2.965,2.965,0,0,1,.074-.3c.022.03.053.091.066.086.1-.036.2-.082.3-.125.017.03.033.063.051.093-.025.038-.042.072-.032.087a.374.374,0,0,0,.136.1,4.983,4.983,0,0,0,.737.919l0,0c-.184-.146-.275,0-.335.172-.011.024.176.092.277.108.055.009.127-.04.189-.062-.006-.027-.008-.077-.019-.076-.153,0-.121-.057-.079-.117a5.141,5.141,0,0,0,.4.329.107.107,0,0,1-.026.053.405.405,0,0,1-.158.022c-.007,0-.01-.022-.016-.034.178-.076,0-.11.017-.17-.051.028-.136.05-.146.084a.17.17,0,0,0,.049.156l.486.284a1.14,1.14,0,0,1,.228.246.086.086,0,0,1-.026.053c-.226.112-.21-.4-.493-.161-.005-.038,0-.094-.016-.109a.936.936,0,0,0-.17-.082l.126.327c.04.112.092.211.142.319-.025,0-.062.014-.073,0-.116-.117-.208-.338-.326.006-.02.061.036.153.071.22.12.228.587-.158.594.363,0,.062.444.3.625.509.207.262.478.143.712.183.082.016.215.068.239.033.114-.156.038-.273-.084-.392l.143-.213c-.314.1-.373-.5-.707-.261-.112.077-.184.1-.29.047l-.142.252c-.137-.1-.258-.224-.382-.332l.265-.046c-.078-.149.259-.206.078-.457-.1-.138-.152.051-.188-.043-.043-.118.144-.22.117-.325.031.048.063.095.106.1a.291.291,0,0,0,.177-.056c.1.046.194.092.295.132a2.867,2.867,0,0,0,.454.421c.03.022.1-.021.148-.033l-.093.136-.052.087a.475.475,0,0,0,.092-.015l.313-.106a1.3,1.3,0,0,1,.053.161c.005-.076.014-.154.013-.23,0-.05-.012-.105-.018-.157a5.242,5.242,0,0,0,.66.066c-.181.146-.187.378-.135.74l.008-.358c0-.212.248.106.219-.141-.01-.08-.032-.158-.049-.237.071,0,.139.022.211.022l.021,0c.043.077.072.187.111.277-.065-.021-.13-.039-.195-.065-.011-.006-.027.009-.04.015.012.03.018.07.038.088a5.484,5.484,0,0,0,.781.541.251.251,0,0,1,.084.077c.007.009-.018.059-.033.063-.392.075-.834-.216-1.1.338-.035.068-.144-.227-.11.022.008.065.147.113.229.168a.477.477,0,0,0,.044-.186c-.028-.171.091-.182.2-.206.023-.007.071.028.085.057.065.129-.3.085-.115.149a1.749,1.749,0,0,0,.854-.1.478.478,0,0,0,.226-.134.506.506,0,0,0,.083-.218c.006-.021-.018-.051-.028-.077a.335.335,0,0,0-.064.044.773.773,0,0,0-.055.087.882.882,0,0,1-.049-.129c-.008-.033-.016-.087,0-.1a.541.541,0,0,1,.134-.069c-.067-.043-.13-.092-.2-.13a.691.691,0,0,0-.138-.046c.054,0,.132.015.16-.018.2-.229.623.272.739-.208,0-.011.031-.015.048-.021-.133.578.113.09.2.113.329.1.408-.269.661-.3a1.84,1.84,0,0,0,.616-.312.524.524,0,0,0,.079-.089,1.5,1.5,0,0,1,0,.178c-.014.142-.041.279-.069.422.339-.187.78-.35.78-.829,0-.127-.176-.252-.025-.378a.228.228,0,0,0-.087,0c-.087.049-.12.271-.262.133-.176-.172.08-.135.121-.21.077-.142-.084-.094-.114-.149-.023-.04-.091-.061-.139-.091l.028-.028c.266-.215.443.1.667.193-.037.08-.079.161-.11.244-.016.043-.128.11.062.142.335.036-.058-.7.473-.387a.2.2,0,0,1-.006-.034c-.01-.243-.514-.368-.225-.677l-.154-.061,0,.113-.191-.128a.9.9,0,0,1,.292-.021c.211.059.366-.091.328-.324.028,0,.071.009.075,0,.046-.1.228-.182.035-.321l.3-.018c-.152.143-.3.262-.081.488-.136.077-.1.181-.026.285a.169.169,0,0,0,.128-.04c.054-.081.21-.169.012-.274-.048-.025-.07-.1-.1-.149a1.1,1.1,0,0,0,.231.129c.03.008.092-.077.115-.13.052-.122-.021-.113-.108-.1s-.048-.027-.068-.08c-.067-.192.471-.594-.215-.6-.054,0-.116-.083-.175-.125.045-.044.086-.125.136-.125a.4.4,0,0,1,.2.1,6.172,6.172,0,0,1,.555.491s-.057.055-.057.082.035.063.055.093a2.073,2.073,0,0,0,.129-.235.36.36,0,0,0,.015-.093c.311.075.035-.333.258-.331a.681.681,0,0,0-.091-.238c-.149-.16.005-.289.075-.342.133-.1-.359-.172.017-.291C985.648,11299.907,985.132,11299.854,985.291,11299.663Zm-9.125-4.414c0-.066.064-.1.141-.117C976.259,11295.17,976.213,11295.21,976.166,11295.249Zm2.911-1.158c0-.018.007-.03,0-.051l.027.049Zm.325-.024-.013-.058c-.009-.03-.034-.058-.034-.085s.042-.051.053-.045c.036.021.094.06.091.084a1.026,1.026,0,0,0,0,.113C979.467,11294.076,979.436,11294.066,979.4,11294.066Zm4.334,7.408-.015,0,.016-.028C983.737,11301.453,983.737,11301.466,983.736,11301.475Z" fill="#504b46"/>
      <path id="Path_2095" data-name="Path 2095" d="M973.457,11299.21a1.327,1.327,0,0,1-.021-.274,5.681,5.681,0,0,1,.082-.9.987.987,0,0,0,.015-.229.713.713,0,0,0-.086-.187c-.043.055-.131.124-.121.168a1.09,1.09,0,0,1-.147.813c-.054.122.016.3.032.451Z" fill="#504b46"/>
      <path id="Path_2096" data-name="Path 2096" d="M973.17,11299.733c-.151.271,0,.524.117.76.009.021.036.034.054.05a3.567,3.567,0,0,1,.127-.506Z" fill="#504b46"/>
      <path id="Path_2097" data-name="Path 2097" d="M984.343,11302.319c-.112.142-.246.265-.36.4-.013.016.029.081.035.1.126.095.142.064.14-.084-.015-.375.388-.018.461-.252,0-.01-.018-.023-.016-.032C984.7,11302,984.4,11302.422,984.343,11302.319Z" fill="#504b46"/>
      <path id="Path_2098" data-name="Path 2098" d="M985.307,11298.806a1.3,1.3,0,0,0-.036.223h.365C985.647,11298.649,985.365,11298.966,985.307,11298.806Z" fill="#504b46"/>
      <path id="Path_2099" data-name="Path 2099" d="M979.749,11292.91a1.284,1.284,0,0,0-.309-.159c-.046-.014-.115.081-.171.132.117.069.227.161.214.148C979.92,11293.2,979.6,11292.894,979.749,11292.91Z" fill="#504b46"/>
      <path id="Path_2100" data-name="Path 2100" d="M975.121,11303.052l-.142.278c.089.042.194.074.294.109a.414.414,0,0,1,.014-.164C975.412,11303.056,975.008,11303.254,975.121,11303.052Z" fill="#504b46"/>
      <path id="Path_2101" data-name="Path 2101" d="M981,11304.773c-.132-.032.1.277-.145.154,0,0-.057.067-.05.078.2.287.3-.19.484-.076C981.306,11304.657,981.068,11304.879,981,11304.773Z" fill="#504b46"/>
      <path id="Path_2102" data-name="Path 2102" d="M984.228,11295.4l.081.017-.067-.358c-.074-.019-.156-.056-.176-.036C983.793,11295.291,984.355,11295.193,984.228,11295.4Z" fill="#504b46"/>
      <path id="Path_2103" data-name="Path 2103" d="M985.609,11299.378c-.067.076-.166.139-.189.223-.012.053.087.14.131.214a2.78,2.78,0,0,0,.112-.322Z" fill="#504b46"/>
    </g>
    <g id="Group_685" data-name="Group 685">
      <path id="Path_2104" data-name="Path 2104" d="M1484.291,11299.663l-.057-.023c-.02.037-.036.1-.064.11-.234.061-.137.209-.123.344-.187-.163-.377-.312-.568-.447.106-.092-.123-.266.119-.333a.2.2,0,0,0,.1-.179.218.218,0,0,0-.029-.071h-.3c0-.011,0-.021,0-.03l.524,0c-.031-.055-.179-.106-.159-.154l.1-.194.155.092c-.014-.058-.01-.15-.046-.164a.807.807,0,0,0-.26-.023l-.282-.006.449-.117-.1-.085a1.725,1.725,0,0,1,.16-.146c.054-.042.295.374.194-.071.1-.071.271-.15.268-.222-.021-.337-.225-.522-.581-.415-.114.032-.223.078-.335.118.02-.031.059-.067.056-.1,0-.051-.023-.117-.067-.137-.3-.154-.546-.394-.43-.636.1-.2-.387-.287.025-.435l-.063-.035-.1-.055a1.5,1.5,0,0,1,.2-.105c.036-.011.082.016.123.025l-.014-.269c-.031.025-.065.072-.094.072a.442.442,0,0,1-.169-.04.089.089,0,0,1-.026-.089l.181-.455a1.244,1.244,0,0,1-.238.016c-.055-.008.09-.113-.076-.149a.759.759,0,0,1-.521-.4c-.073-.134-.32-.15-.225-.4-.016,0-.037,0-.046.01-.3.329-.2-.241-.419-.159-.2.1-.215-.479-.53-.165-.041.043-.233-.061-.352-.1-.01,0,0-.062,0-.094l.266.085c.027.008.082,0,.089-.012a.362.362,0,0,0,.017-.12c-.027.006-.062.022-.08.013a1.273,1.273,0,0,1-.164-.121s.009-.045.022-.051c.333-.159-.207-.209-.044-.348-.051,0-.118-.021-.151,0-.163.114-.6.12-.212.472-.017.011-.036.035-.05.032-.178-.027-.462.24-.454-.221,0-.006-.218-.042-.249,0-.173.249.233.055.16.242,0-.215-.449.36-.268-.184-.021-.007-.046-.023-.063-.017-.306.162-.33-.522-.673-.264,0-.04.014-.1,0-.116s-.083-.02-.126-.027l.034.459c.013-.01.03-.03.038-.026a.316.316,0,0,1,.062.048l-.24.188c.059-.49-.4-.139-.5-.389-.011-.026-.062-.034-.095-.051l-.035.11a.335.335,0,0,1,.1.045,2.511,2.511,0,0,1,.217.219l-.011.029a.4.4,0,0,1-.118,0c-.241-.079-.607-.306-.605.206-.041.007-.084,0-.125.013-.012-.133-.178-.354.113-.314-.012-.066-.091-.183.069-.123-.064-.041-.173-.132-.192-.112-.107.1-.367.063-.3.352.009.04-.107.113-.168.16a1.076,1.076,0,0,1-.126.063.516.516,0,0,0,.112.019.342.342,0,0,1,.257.021,4.974,4.974,0,0,0-1.734.809,3.6,3.6,0,0,1,.377-.518c.018-.019.1.041.135.031a1.61,1.61,0,0,0,.309-.118c.028-.014.034-.076.051-.115-.008,0-.02-.013-.024-.01-.225.162-.012-.285-.2-.182l.023-.17c.317.176.366-.092.546-.252.136-.112.277-.318.565-.26.124.024-.322-.141-.131-.354-.021-.018-.056-.055-.063-.051-.039.026-.068.071-.108.1-.09.058-.161.174-.294.05-.037-.034-.117-.022-.176-.025a.369.369,0,0,1,.038.086,3.384,3.384,0,0,1-.339.241c-.04.023-.115-.01-.173-.01l.192-.108a.381.381,0,0,0,.07-.073.365.365,0,0,0-.1,0,4.987,4.987,0,0,0-1.276.567c-.068.048-.428.266.005.39.047.014-.223.177-.036.316l-.072.036-.041-.136-.107-.355-.025.207c-.194-.028.044.354-.256.258-.453-.127-.29.479-.59.551l.266.307a1.373,1.373,0,0,1,.083.128l-.217.107c-.016.007-.049-.018-.074-.028a.575.575,0,0,0,.14-.048c.022-.013.036-.082.036-.082a1.663,1.663,0,0,0-.2-.109.049.049,0,0,0-.043.02c-.042.182.215.447-.169.5-.035,0-.076.056-.1.046-.055-.026-.139-.075-.142-.117a1.086,1.086,0,0,1,.052-.343c-.08.078-.15.163-.222.247a1.545,1.545,0,0,1-.141.122,1.886,1.886,0,0,1,.252.243c.022.03.159-.071.1.119a.329.329,0,0,1-.308.284c.061.11.1.256.193.314.313.2.174.545.361.753-.012.04-.025.079-.036.118-.1-.037-.2-.134-.267.008-.027.063.292.242-.1.173-.167-.027-.078.128-.075.207,0,.031,0,.086-.014.088-.309.053-.269.244-.186.446.027.069-.051.176-.1.259s-.123-.285-.155,0a.945.945,0,0,0,.152.487c.019.041.1.056.156.082-.1.078-.181.209-.284.237-.33.088-.088.34-.159.5-.012.022.155.1.246.153h0l.034.232a1.463,1.463,0,0,0-.093-.143c-.013-.017-.048-.019-.073-.026-.009.048-.044.12-.024.14.182.176.088.306-.051.449-.046.047-.117.1-.117.157s.06.138.094.207c.372-.23.3.028.3.243l.179-.006c-.371.271.037.4.145.53.117.156.422.172.144.472-.027.028.191.284.305.427a1.42,1.42,0,0,1,.166-.346c.073-.087-.263-.116-.005-.194.1-.03.189-.071.282-.109a1.652,1.652,0,0,1-.055.385c-.081.177-.078-.086-.147-.04a.071.071,0,0,0-.023.047,1.8,1.8,0,0,0,.014.206l.044.007c.064-.15.459,0,.324-.336-.033-.1.57-.35-.053-.33-.1,0-.492-.166-.377-.506.02-.057.274-.021.08-.133a.39.39,0,0,0-.226.006c-.039.007-.073.057-.109.088a2.932,2.932,0,0,1,.074-.3c.022.03.053.091.066.086.1-.036.2-.082.3-.125.017.03.033.063.051.093-.025.038-.042.072-.032.087a.374.374,0,0,0,.136.1,4.988,4.988,0,0,0,.737.919l0,0c-.184-.146-.275,0-.335.172-.011.024.176.092.277.108.055.009.127-.04.189-.062-.006-.027-.008-.077-.019-.076-.153,0-.121-.057-.079-.117a5.142,5.142,0,0,0,.4.329.107.107,0,0,1-.026.053.405.405,0,0,1-.158.022c-.007,0-.01-.022-.016-.034.178-.076,0-.11.017-.17-.051.028-.136.05-.146.084a.171.171,0,0,0,.049.156l.486.284a1.141,1.141,0,0,1,.228.246.086.086,0,0,1-.026.053c-.226.112-.21-.4-.493-.161-.005-.038,0-.094-.016-.109a.94.94,0,0,0-.17-.082l.126.327c.04.112.092.211.142.319-.025,0-.062.014-.073,0-.116-.117-.208-.338-.326.006-.02.061.036.153.071.22.12.228.587-.158.594.363,0,.062.444.3.625.509.207.262.478.143.712.183.082.016.215.068.239.033.114-.156.038-.273-.084-.392l.143-.213c-.314.1-.373-.5-.707-.261-.112.077-.184.1-.29.047l-.142.252c-.137-.1-.258-.224-.382-.332l.265-.046c-.078-.149.259-.206.078-.457-.1-.138-.152.051-.188-.043-.043-.118.144-.22.117-.325.031.048.063.095.106.1a.291.291,0,0,0,.177-.056c.1.046.194.092.3.132a2.864,2.864,0,0,0,.454.421c.03.022.1-.021.148-.033l-.093.136-.052.087a.475.475,0,0,0,.092-.015l.313-.106a1.268,1.268,0,0,1,.053.161c.005-.076.014-.154.013-.23,0-.05-.012-.105-.018-.157a5.244,5.244,0,0,0,.66.066c-.181.146-.187.378-.135.74l.008-.358c0-.212.248.106.219-.141-.01-.08-.032-.158-.049-.237.071,0,.139.022.211.022l.021,0c.043.077.072.187.111.277-.065-.021-.13-.039-.195-.065-.011-.006-.027.009-.04.015.012.03.018.07.038.088a5.487,5.487,0,0,0,.781.541.25.25,0,0,1,.084.077c.007.009-.018.059-.033.063-.392.075-.834-.216-1.1.338-.035.068-.144-.227-.11.022.008.065.147.113.229.168a.478.478,0,0,0,.044-.186c-.028-.171.091-.182.2-.206.023-.007.071.028.085.057.065.129-.3.085-.115.149a1.749,1.749,0,0,0,.854-.1.477.477,0,0,0,.226-.134.5.5,0,0,0,.083-.218c.006-.021-.018-.051-.028-.077a.333.333,0,0,0-.064.044.757.757,0,0,0-.055.087.882.882,0,0,1-.049-.129c-.008-.033-.016-.087,0-.1a.541.541,0,0,1,.134-.069c-.067-.043-.13-.092-.2-.13a.693.693,0,0,0-.138-.046c.054,0,.132.015.16-.018.2-.229.623.272.739-.208,0-.011.031-.015.048-.021-.133.578.113.09.2.113.329.1.408-.269.661-.3a1.838,1.838,0,0,0,.616-.312.52.52,0,0,0,.079-.089,1.512,1.512,0,0,1,0,.178c-.014.142-.041.279-.069.422.339-.187.78-.35.78-.829,0-.127-.176-.252-.025-.378a.228.228,0,0,0-.087,0c-.087.049-.12.271-.262.133-.176-.172.08-.135.121-.21.077-.142-.084-.094-.114-.149-.023-.04-.091-.061-.139-.091l.028-.028c.266-.215.444.1.667.193-.037.08-.079.161-.11.244-.016.043-.128.11.062.142.335.036-.058-.7.473-.387a.2.2,0,0,1-.006-.034c-.01-.243-.514-.368-.225-.677l-.154-.061,0,.113-.191-.128a.9.9,0,0,1,.292-.021c.211.059.366-.091.328-.324.028,0,.071.009.075,0,.046-.1.228-.182.035-.321l.3-.018c-.152.143-.3.262-.081.488-.136.077-.1.181-.026.285a.17.17,0,0,0,.128-.04c.054-.081.21-.169.012-.274-.048-.025-.07-.1-.1-.149a1.1,1.1,0,0,0,.231.129c.03.008.092-.077.115-.13.052-.122-.021-.113-.108-.1s-.048-.027-.068-.08c-.067-.192.471-.594-.215-.6-.054,0-.116-.083-.175-.125.045-.044.086-.125.136-.125a.4.4,0,0,1,.2.1,6.171,6.171,0,0,1,.555.491s-.057.055-.057.082.035.063.055.093a2.073,2.073,0,0,0,.129-.235.363.363,0,0,0,.015-.093c.311.075.035-.333.258-.331a.681.681,0,0,0-.091-.238c-.149-.16.005-.289.075-.342.133-.1-.359-.172.017-.291C1484.648,11299.907,1484.132,11299.854,1484.291,11299.663Zm-9.125-4.414c0-.066.064-.1.141-.117C1475.259,11295.17,1475.213,11295.21,1475.166,11295.249Zm2.911-1.158c0-.018.007-.03,0-.051l.027.049Zm.325-.024-.013-.058c-.009-.03-.034-.058-.034-.085s.042-.051.053-.045c.036.021.094.06.091.084a1.026,1.026,0,0,0,0,.113C1478.467,11294.076,1478.436,11294.066,1478.4,11294.066Zm4.334,7.408-.015,0,.016-.028A.307.307,0,0,1,1482.736,11301.475Z" fill="#504b46"/>
      <path id="Path_2105" data-name="Path 2105" d="M1472.457,11299.21a1.323,1.323,0,0,1-.021-.274,5.666,5.666,0,0,1,.082-.9.983.983,0,0,0,.015-.229.709.709,0,0,0-.086-.187c-.043.055-.131.124-.121.168a1.09,1.09,0,0,1-.147.813c-.054.122.016.3.032.451Z" fill="#504b46"/>
      <path id="Path_2106" data-name="Path 2106" d="M1472.17,11299.733c-.151.271,0,.524.117.76.009.021.036.034.054.05a3.576,3.576,0,0,1,.127-.506Z" fill="#504b46"/>
      <path id="Path_2107" data-name="Path 2107" d="M1483.343,11302.319c-.112.142-.246.265-.36.4-.013.016.029.081.035.1.126.095.142.064.14-.084-.015-.375.388-.018.461-.252,0-.01-.018-.023-.016-.032C1483.7,11302,1483.4,11302.422,1483.343,11302.319Z" fill="#504b46"/>
      <path id="Path_2108" data-name="Path 2108" d="M1484.307,11298.806a1.3,1.3,0,0,0-.036.223h.365C1484.647,11298.649,1484.365,11298.966,1484.307,11298.806Z" fill="#504b46"/>
      <path id="Path_2109" data-name="Path 2109" d="M1478.749,11292.91a1.282,1.282,0,0,0-.309-.159c-.046-.014-.115.081-.171.132.117.069.227.161.214.148C1478.92,11293.2,1478.6,11292.894,1478.749,11292.91Z" fill="#504b46"/>
      <path id="Path_2110" data-name="Path 2110" d="M1474.121,11303.052l-.142.278c.089.042.194.074.294.109a.414.414,0,0,1,.014-.164C1474.412,11303.056,1474.008,11303.254,1474.121,11303.052Z" fill="#504b46"/>
      <path id="Path_2111" data-name="Path 2111" d="M1480,11304.773c-.132-.032.1.277-.145.154,0,0-.057.067-.05.078.2.287.3-.19.484-.076C1480.306,11304.657,1480.068,11304.879,1480,11304.773Z" fill="#504b46"/>
      <path id="Path_2112" data-name="Path 2112" d="M1483.228,11295.4l.081.017-.067-.358c-.074-.019-.156-.056-.176-.036C1482.793,11295.291,1483.355,11295.193,1483.228,11295.4Z" fill="#504b46"/>
      <path id="Path_2113" data-name="Path 2113" d="M1484.609,11299.378c-.067.076-.166.139-.189.223-.012.053.087.14.131.214a2.78,2.78,0,0,0,.112-.322Z" fill="#504b46"/>
    </g>
  </g>
</svg>
