<svg xmlns="http://www.w3.org/2000/svg" width="1035.556" height="16.834" viewBox="0 0 1035.556 16.834">
  <g id="Group_680" data-name="Group 680" transform="translate(-444.395 -11882.471)">
    <path id="Path_2051" data-name="Path 2051" d="M450.652,11892.671c363.389-10,682.667,7,1024-3.936" fill="none" stroke="#504b46" stroke-miterlimit="10" stroke-width="1"/>
    <g id="Group_678" data-name="Group 678">
      <path id="Path_2052" data-name="Path 2052" d="M456.579,11893.384l-.057-.022c-.02.037-.036.1-.064.109-.234.062-.137.209-.123.345-.187-.163-.377-.312-.568-.448.106-.091-.123-.266.119-.333a.165.165,0,0,0,.069-.25h-.3c0-.01,0-.021,0-.03l.524,0c-.031-.054-.18-.106-.159-.154l.1-.193.155.091c-.014-.058-.01-.15-.046-.164a.807.807,0,0,0-.26-.023l-.282-.006.449-.117-.1-.085a1.733,1.733,0,0,1,.16-.146c.054-.042.295.374.194-.071.1-.071.271-.149.268-.222a.41.41,0,0,0-.581-.415c-.114.033-.223.079-.335.119.02-.032.059-.068.056-.1a.165.165,0,0,0-.067-.136c-.3-.154-.546-.393-.43-.636.1-.2-.387-.287.024-.435l-.062-.034-.1-.056a1.4,1.4,0,0,1,.2-.1c.035-.012.082.015.123.024l-.014-.269c-.031.026-.065.073-.094.073a.46.46,0,0,1-.169-.04.086.086,0,0,1-.026-.089l.181-.456a1.17,1.17,0,0,1-.238.016c-.056-.008.09-.113-.076-.149a.764.764,0,0,1-.522-.4c-.072-.134-.319-.151-.225-.4-.015,0-.036,0-.045.01-.3.329-.2-.24-.42-.158-.2.1-.215-.48-.529-.165-.041.043-.233-.062-.352-.1-.011,0,0-.061,0-.094l.266.085c.027.008.082,0,.089-.011a.361.361,0,0,0,.017-.12c-.027,0-.063.021-.081.012a1.455,1.455,0,0,1-.163-.121s.009-.045.022-.051c.333-.159-.207-.209-.044-.347-.051,0-.118-.022-.151,0-.163.113-.6.119-.212.471-.017.011-.036.036-.05.033-.178-.028-.462.239-.454-.222,0-.006-.218-.042-.249.006-.173.249.233.054.16.241,0-.215-.449.36-.269-.184-.021-.006-.045-.023-.062-.016-.306.161-.33-.523-.673-.265,0-.04.014-.1,0-.116s-.083-.02-.126-.026l.034.459c.013-.01.03-.031.038-.027a.283.283,0,0,1,.062.048l-.24.188c.059-.491-.4-.14-.5-.39-.011-.026-.062-.034-.1-.051l-.036.11a.329.329,0,0,1,.106.045,2.662,2.662,0,0,1,.217.219l-.012.029a.391.391,0,0,1-.117,0c-.241-.079-.607-.3-.6.206-.041.007-.084,0-.125.013-.012-.133-.178-.353.113-.313-.012-.067-.091-.184.069-.123-.064-.041-.174-.133-.192-.113-.107.1-.367.063-.3.352.009.04-.107.113-.168.16a1.258,1.258,0,0,1-.126.064.582.582,0,0,0,.111.018.348.348,0,0,1,.258.021,4.955,4.955,0,0,0-1.734.808,3.569,3.569,0,0,1,.377-.517c.017-.02.1.041.135.03a1.545,1.545,0,0,0,.309-.117c.028-.015.034-.076.051-.116-.008,0-.02-.012-.024-.009-.225.161-.012-.285-.195-.183l.023-.17c.317.176.366-.092.546-.252.136-.112.276-.318.565-.26.124.024-.322-.14-.131-.354-.021-.018-.056-.055-.063-.051-.04.027-.068.071-.108.1-.09.058-.161.175-.294.051-.037-.035-.117-.023-.176-.026a.391.391,0,0,1,.038.086,3.4,3.4,0,0,1-.339.241c-.04.023-.116-.009-.173-.009l.192-.109a.355.355,0,0,0,.07-.073.365.365,0,0,0-.1,0,4.984,4.984,0,0,0-1.276.567c-.068.048-.429.266,0,.39.047.015-.224.178-.036.316l-.073.037-.04-.136-.107-.356-.025.207c-.194-.028.044.354-.256.258-.453-.127-.29.479-.59.551l.266.308a1.355,1.355,0,0,1,.083.128l-.217.106c-.016.008-.049-.018-.074-.027a.671.671,0,0,0,.14-.048c.022-.014.036-.082.036-.082a1.925,1.925,0,0,0-.2-.11c-.01,0-.041.009-.043.02-.042.183.215.446-.169.5-.035.007-.076.058-.1.048-.055-.027-.139-.075-.142-.117a1.092,1.092,0,0,1,.052-.344c-.08.078-.15.163-.222.247a1.545,1.545,0,0,1-.141.122,1.9,1.9,0,0,1,.252.243c.022.03.159-.071.1.119a.329.329,0,0,1-.308.284c.061.11.1.256.193.314.313.2.174.545.361.753-.012.04-.025.079-.037.118-.1-.037-.2-.134-.266.008-.027.063.292.242-.1.174-.167-.028-.078.128-.075.207,0,.03,0,.086-.014.088-.309.052-.269.244-.186.445.027.069-.051.177-.1.26s-.123-.285-.155,0a.939.939,0,0,0,.152.486c.019.041.1.057.156.082-.1.078-.181.209-.284.237-.33.088-.088.34-.159.5-.012.023.155.105.246.154h0l.034.231a1.462,1.462,0,0,0-.093-.143c-.013-.017-.048-.019-.073-.026-.009.048-.044.12-.024.141.182.176.088.3-.051.448-.047.047-.117.1-.117.157s.06.138.094.207c.372-.229.3.029.3.243l.179,0c-.371.27.037.4.145.53.117.155.422.172.144.471-.027.029.191.285.3.427a1.4,1.4,0,0,1,.167-.345c.072-.087-.263-.117-.005-.2.1-.03.189-.072.282-.109a1.666,1.666,0,0,1-.055.386c-.081.176-.078-.086-.147-.04a.063.063,0,0,0-.023.046,1.8,1.8,0,0,0,.014.206l.044.007c.064-.15.459,0,.324-.336-.033-.1.57-.349-.053-.33-.1,0-.492-.166-.377-.506.02-.056.273-.021.08-.132a.382.382,0,0,0-.226,0c-.039.007-.073.057-.109.088a2.693,2.693,0,0,1,.074-.3c.022.029.052.09.066.085.1-.036.2-.082.305-.125.017.031.033.063.051.093-.025.038-.042.073-.032.087a.387.387,0,0,0,.136.105,4.976,4.976,0,0,0,.737.919l0,0c-.184-.146-.276,0-.335.171-.011.024.176.092.277.108.055.01.126-.039.189-.062-.006-.027-.008-.077-.019-.077-.153,0-.121-.055-.079-.116a4.919,4.919,0,0,0,.4.329.117.117,0,0,1-.026.054.427.427,0,0,1-.158.021c-.007,0-.011-.021-.016-.034.178-.077,0-.109.017-.17-.051.028-.136.05-.146.084a.17.17,0,0,0,.049.156l.486.285a1.119,1.119,0,0,1,.228.246.078.078,0,0,1-.026.051c-.226.114-.21-.4-.493-.16-.005-.038,0-.093-.017-.109a.96.96,0,0,0-.169-.082l.126.327c.04.112.092.211.142.319-.025,0-.062.014-.074,0-.115-.117-.207-.338-.325.006-.02.062.036.153.071.22.12.228.587-.157.594.363,0,.063.444.3.625.509.207.263.477.144.712.184.082.015.215.067.239.033.114-.156.038-.274-.084-.393l.143-.213c-.314.105-.373-.5-.707-.26-.112.077-.184.1-.291.046l-.141.252a4.945,4.945,0,0,1-.382-.332l.265-.046c-.078-.149.258-.207.077-.457-.1-.137-.151.051-.187-.043-.043-.118.144-.219.117-.325.031.048.063.095.106.1a.284.284,0,0,0,.177-.056c.1.046.194.092.3.132a2.823,2.823,0,0,0,.454.421c.03.022.1-.021.148-.032l-.093.135-.052.087a.581.581,0,0,0,.092-.014l.313-.107a1.361,1.361,0,0,1,.053.161c0-.076.014-.154.013-.23,0-.05-.012-.105-.018-.156a5.241,5.241,0,0,0,.66.065c-.182.146-.187.378-.135.74l.007-.358c0-.212.248.106.22-.141-.01-.08-.032-.158-.05-.237.072,0,.14.022.212.022l.021,0c.043.077.072.186.111.276-.065-.021-.13-.039-.2-.065-.011,0-.027.009-.04.015.012.03.018.07.038.088a5.427,5.427,0,0,0,.781.541.261.261,0,0,1,.084.077c.007.009-.018.06-.033.063-.392.075-.834-.216-1.1.339-.035.067-.145-.228-.11.021.008.065.147.113.229.168a.5.5,0,0,0,.044-.186c-.028-.17.091-.181.2-.206.023-.006.071.029.085.057.065.129-.3.085-.115.149a1.755,1.755,0,0,0,.853-.1.478.478,0,0,0,.227-.135.506.506,0,0,0,.083-.218c.006-.021-.018-.051-.028-.077a.346.346,0,0,0-.064.044.714.714,0,0,0-.055.087.879.879,0,0,1-.049-.129c-.008-.033-.016-.087,0-.1a.576.576,0,0,1,.134-.069c-.067-.044-.13-.092-.2-.13a.692.692,0,0,0-.138-.046c.054,0,.132.015.16-.017.2-.23.623.271.739-.208,0-.012.031-.016.048-.022-.133.578.113.09.2.114.328.1.408-.27.661-.3a1.822,1.822,0,0,0,.616-.312.489.489,0,0,0,.079-.089,1.509,1.509,0,0,1,0,.178c-.014.143-.041.279-.069.422.339-.186.78-.35.78-.829,0-.127-.177-.252-.025-.378a.228.228,0,0,0-.087,0c-.087.05-.12.271-.262.134-.176-.173.08-.136.121-.21.077-.143-.085-.095-.114-.15-.023-.04-.091-.06-.139-.09l.028-.029c.266-.215.443.1.667.194-.037.08-.079.161-.11.244-.016.043-.129.109.062.141.334.036-.058-.7.473-.386a.237.237,0,0,1-.006-.035c-.01-.243-.514-.368-.225-.676l-.154-.062,0,.112-.191-.127a.956.956,0,0,1,.292-.021c.211.06.366-.091.328-.323.028,0,.071.009.075,0,.046-.1.228-.183.035-.322l.3-.018c-.152.143-.3.263-.081.488-.136.077-.1.181-.026.285a.165.165,0,0,0,.128-.04c.053-.081.21-.169.012-.274-.049-.025-.07-.1-.1-.149a1.079,1.079,0,0,0,.231.129c.03.008.091-.077.115-.13.052-.122-.021-.113-.108-.1s-.048-.028-.068-.08c-.067-.193.471-.595-.215-.6-.054,0-.116-.083-.175-.125.045-.044.086-.125.136-.125a.4.4,0,0,1,.2.1,5.882,5.882,0,0,1,.555.491s-.057.054-.057.082.035.062.054.093a2.027,2.027,0,0,0,.13-.236.4.4,0,0,0,.015-.093c.311.076.035-.333.258-.331a.689.689,0,0,0-.091-.238c-.149-.16,0-.289.075-.342.133-.1-.359-.172.016-.291C456.936,11893.628,456.42,11893.575,456.579,11893.384Zm-9.125-4.414c0-.065.064-.1.141-.117C447.547,11888.891,447.5,11888.931,447.454,11888.97Zm2.911-1.158c0-.018.007-.029,0-.051l.027.049Zm.325-.024-.013-.057c-.009-.03-.034-.059-.034-.086s.042-.051.053-.045c.036.021.094.06.091.084a.831.831,0,0,0,0,.113C450.755,11887.8,450.724,11887.787,450.69,11887.787Zm4.334,7.409-.015,0,.016-.029C455.025,11895.174,455.025,11895.187,455.024,11895.2Z" fill="#504b46"/>
      <path id="Path_2053" data-name="Path 2053" d="M444.745,11892.931a1.321,1.321,0,0,1-.021-.273,5.6,5.6,0,0,1,.082-.9.972.972,0,0,0,.015-.227.752.752,0,0,0-.086-.188c-.043.055-.131.124-.121.168a1.093,1.093,0,0,1-.147.814c-.054.122.016.3.032.451Z" fill="#504b46"/>
      <path id="Path_2054" data-name="Path 2054" d="M444.458,11893.454c-.151.271,0,.524.117.76.009.021.036.034.054.05a3.6,3.6,0,0,1,.127-.506Z" fill="#504b46"/>
      <path id="Path_2055" data-name="Path 2055" d="M455.631,11896.04c-.112.142-.246.265-.36.4-.013.015.029.081.035.1.126.095.142.064.139-.085-.014-.374.389-.017.461-.251,0-.009-.017-.023-.015-.032C455.989,11895.726,455.69,11896.143,455.631,11896.04Z" fill="#504b46"/>
      <path id="Path_2056" data-name="Path 2056" d="M456.6,11892.527a1.189,1.189,0,0,0-.036.222h.365C456.935,11892.37,456.653,11892.687,456.6,11892.527Z" fill="#504b46"/>
      <path id="Path_2057" data-name="Path 2057" d="M451.037,11886.631a1.338,1.338,0,0,0-.309-.159c-.046-.014-.115.081-.171.132.117.069.227.161.214.148C451.208,11886.923,450.885,11886.615,451.037,11886.631Z" fill="#504b46"/>
      <path id="Path_2058" data-name="Path 2058" d="M446.409,11896.773l-.142.277a3.1,3.1,0,0,0,.294.109.413.413,0,0,1,.014-.164C446.7,11896.776,446.3,11896.975,446.409,11896.773Z" fill="#504b46"/>
      <path id="Path_2059" data-name="Path 2059" d="M452.288,11898.494c-.132-.032.1.278-.145.155,0,0-.057.066-.05.077.2.287.3-.19.484-.075C452.594,11898.378,452.356,11898.6,452.288,11898.494Z" fill="#504b46"/>
      <path id="Path_2060" data-name="Path 2060" d="M455.516,11889.122l.081.017-.068-.357c-.073-.02-.155-.058-.175-.037C455.081,11889.012,455.642,11888.914,455.516,11889.122Z" fill="#504b46"/>
      <path id="Path_2061" data-name="Path 2061" d="M456.9,11893.1c-.067.076-.166.14-.189.224-.012.052.087.139.131.213a2.97,2.97,0,0,0,.112-.322Z" fill="#504b46"/>
    </g>
    <g id="Group_679" data-name="Group 679">
      <path id="Path_2062" data-name="Path 2062" d="M1479.579,11889.384l-.057-.022c-.02.037-.036.1-.064.109-.234.062-.137.209-.123.345-.187-.163-.377-.312-.568-.448.106-.091-.123-.266.119-.333a.165.165,0,0,0,.069-.25h-.3c0-.01,0-.021,0-.03l.524,0c-.031-.054-.18-.106-.159-.154l.1-.193.155.091c-.014-.058-.01-.15-.046-.164a.807.807,0,0,0-.26-.023l-.282-.006.449-.117-.1-.085a1.725,1.725,0,0,1,.16-.146c.054-.042.3.374.194-.071.1-.071.271-.149.268-.222a.41.41,0,0,0-.581-.415c-.114.033-.223.079-.335.119.02-.032.059-.068.056-.1a.165.165,0,0,0-.067-.136c-.3-.154-.546-.393-.43-.636.1-.2-.387-.287.024-.435l-.062-.034-.1-.056a1.4,1.4,0,0,1,.2-.1c.035-.012.082.015.123.024l-.014-.269c-.031.026-.065.073-.094.073a.46.46,0,0,1-.169-.04.087.087,0,0,1-.026-.089l.181-.456a1.171,1.171,0,0,1-.238.016c-.056-.008.09-.113-.076-.149a.764.764,0,0,1-.522-.4c-.072-.134-.319-.151-.225-.4-.015,0-.036,0-.045.01-.3.329-.2-.24-.42-.158-.2.1-.215-.48-.529-.165-.041.043-.233-.062-.352-.1-.011,0,0-.061,0-.094l.266.085c.027.008.082,0,.089-.011a.362.362,0,0,0,.017-.12c-.027,0-.063.021-.081.012a1.467,1.467,0,0,1-.163-.121s.009-.045.022-.051c.333-.159-.207-.209-.044-.347-.051,0-.118-.022-.151,0-.163.113-.6.119-.212.471-.017.011-.036.036-.05.033-.178-.028-.462.239-.454-.222,0-.006-.218-.042-.249.006-.173.249.233.054.16.241,0-.215-.449.36-.269-.184-.021-.006-.045-.023-.062-.016-.306.161-.33-.523-.673-.265,0-.04.014-.1,0-.116s-.083-.02-.126-.026l.034.459c.013-.01.03-.031.038-.027a.285.285,0,0,1,.062.048l-.24.188c.059-.491-.4-.14-.5-.39-.011-.026-.062-.034-.095-.051l-.036.11a.329.329,0,0,1,.106.045,2.658,2.658,0,0,1,.217.219l-.012.029a.391.391,0,0,1-.117,0c-.241-.079-.607-.3-.6.206-.041.007-.084,0-.125.013-.012-.133-.178-.353.113-.313-.012-.067-.091-.184.069-.123-.064-.041-.174-.133-.192-.113-.107.1-.367.063-.3.352.009.04-.107.113-.168.16a1.273,1.273,0,0,1-.126.064.582.582,0,0,0,.111.018.348.348,0,0,1,.258.021,4.955,4.955,0,0,0-1.734.808,3.567,3.567,0,0,1,.377-.517c.017-.02.1.041.135.03a1.547,1.547,0,0,0,.309-.117c.028-.015.034-.076.051-.116-.008,0-.02-.012-.024-.009-.225.161-.012-.285-.195-.183l.023-.17c.317.176.366-.092.546-.252.136-.112.276-.318.565-.26.124.024-.322-.14-.131-.354-.021-.018-.056-.055-.063-.051-.04.027-.068.071-.108.1-.09.058-.161.175-.294.051-.037-.035-.117-.023-.176-.026a.387.387,0,0,1,.038.086,3.384,3.384,0,0,1-.339.241c-.04.023-.116-.009-.173-.009l.192-.109a.355.355,0,0,0,.07-.073.365.365,0,0,0-.1,0,4.984,4.984,0,0,0-1.276.567c-.068.048-.429.266.005.39.047.015-.224.178-.036.316l-.073.037-.04-.136-.107-.356-.025.207c-.194-.028.044.354-.256.258-.453-.127-.29.479-.59.551l.266.308a1.349,1.349,0,0,1,.083.128l-.217.106c-.016.008-.049-.018-.074-.027a.667.667,0,0,0,.14-.048c.022-.014.036-.082.036-.082a1.934,1.934,0,0,0-.2-.11c-.01,0-.041.009-.043.02-.042.183.215.446-.169.5-.035.007-.076.058-.1.048-.055-.027-.139-.075-.142-.117a1.091,1.091,0,0,1,.052-.344c-.08.078-.15.163-.222.247a1.513,1.513,0,0,1-.141.122,1.894,1.894,0,0,1,.252.243c.022.03.159-.071.1.119a.329.329,0,0,1-.308.284c.061.11.1.256.193.314.313.2.174.545.361.753-.012.04-.025.079-.037.118-.1-.037-.2-.134-.266.008-.027.063.292.242-.1.174-.167-.028-.078.128-.075.207,0,.03,0,.086-.014.088-.309.052-.269.244-.186.445.027.069-.051.177-.1.26s-.123-.285-.155,0a.938.938,0,0,0,.152.486c.019.041.1.057.156.082-.1.078-.181.209-.284.237-.33.088-.088.34-.159.5-.012.023.155.105.246.154h0l.034.231a1.44,1.44,0,0,0-.093-.143c-.013-.017-.048-.019-.073-.026-.009.048-.044.12-.024.141.182.176.088.3-.051.448-.047.047-.117.1-.117.157s.06.138.094.207c.372-.229.3.029.3.243l.179,0c-.371.27.037.4.145.53.117.155.422.172.144.471-.027.029.191.285.3.427a1.4,1.4,0,0,1,.167-.345c.072-.087-.263-.117-.005-.2.1-.03.189-.072.282-.109a1.667,1.667,0,0,1-.055.386c-.081.176-.078-.086-.147-.04a.062.062,0,0,0-.023.046,1.785,1.785,0,0,0,.014.206l.044.007c.064-.15.459,0,.324-.336-.033-.1.57-.349-.053-.33-.1,0-.492-.166-.377-.506.02-.056.273-.021.08-.132a.381.381,0,0,0-.226,0c-.039.007-.073.057-.109.088a2.706,2.706,0,0,1,.074-.3c.022.029.052.09.066.085.1-.036.2-.082.3-.125.017.031.033.063.051.093-.025.038-.042.073-.032.087a.387.387,0,0,0,.136.105,4.975,4.975,0,0,0,.737.919l0,0c-.184-.146-.276,0-.335.171-.011.024.176.092.277.108.055.01.126-.039.189-.062-.006-.027-.008-.077-.019-.077-.153,0-.121-.055-.079-.116a4.927,4.927,0,0,0,.4.329.117.117,0,0,1-.026.054.427.427,0,0,1-.158.021c-.007,0-.011-.021-.016-.034.178-.077,0-.109.017-.17-.051.028-.136.05-.146.084a.17.17,0,0,0,.049.156l.486.285a1.119,1.119,0,0,1,.228.246.078.078,0,0,1-.026.051c-.226.114-.21-.4-.493-.16-.005-.038,0-.093-.017-.109a.961.961,0,0,0-.169-.082l.126.327c.04.112.092.211.142.319-.025,0-.062.014-.074,0-.115-.117-.207-.338-.325.006-.02.062.036.153.071.22.12.228.587-.157.594.363,0,.063.444.3.625.509.207.263.477.144.712.184.082.015.215.067.239.033.114-.156.038-.274-.084-.393l.143-.213c-.314.105-.373-.5-.707-.26-.112.077-.184.1-.291.046l-.141.252a4.933,4.933,0,0,1-.382-.332l.265-.046c-.078-.149.258-.207.077-.457-.095-.137-.151.051-.187-.043-.043-.118.144-.219.117-.325.031.048.063.095.106.1a.284.284,0,0,0,.177-.056c.1.046.194.092.3.132a2.824,2.824,0,0,0,.454.421c.03.022.1-.021.148-.032l-.093.135-.052.087a.578.578,0,0,0,.092-.014l.313-.107a1.343,1.343,0,0,1,.053.161c.005-.076.014-.154.013-.23,0-.05-.012-.105-.018-.156a5.242,5.242,0,0,0,.66.065c-.182.146-.187.378-.135.74l.007-.358c0-.212.248.106.22-.141-.01-.08-.032-.158-.05-.237.072,0,.14.022.212.022l.021,0c.043.077.072.186.111.276-.065-.021-.13-.039-.2-.065-.011,0-.027.009-.04.015.012.03.018.07.038.088a5.419,5.419,0,0,0,.781.541.261.261,0,0,1,.084.077c.007.009-.018.06-.033.063-.392.075-.834-.216-1.1.339-.035.067-.145-.228-.11.021.008.065.147.113.229.168a.5.5,0,0,0,.044-.186c-.028-.17.091-.181.2-.206.023-.006.071.029.085.057.065.129-.3.085-.115.149a1.755,1.755,0,0,0,.853-.1.478.478,0,0,0,.227-.135.507.507,0,0,0,.083-.218c.006-.021-.018-.051-.028-.077a.347.347,0,0,0-.064.044.726.726,0,0,0-.055.087.882.882,0,0,1-.049-.129c-.008-.033-.016-.087,0-.1a.576.576,0,0,1,.134-.069c-.067-.044-.13-.092-.2-.13a.691.691,0,0,0-.138-.046c.054,0,.132.015.16-.017.2-.23.623.271.739-.208,0-.012.031-.016.048-.022-.133.578.113.09.2.114.328.1.408-.27.661-.3a1.822,1.822,0,0,0,.616-.312.489.489,0,0,0,.079-.089,1.515,1.515,0,0,1,0,.178c-.014.143-.041.279-.069.422.339-.186.78-.35.78-.829,0-.127-.177-.252-.025-.378a.228.228,0,0,0-.087,0c-.087.05-.12.271-.262.134-.176-.173.08-.136.121-.21.077-.143-.085-.095-.114-.15-.023-.04-.091-.06-.139-.09l.028-.029c.266-.215.443.1.667.194-.037.08-.079.161-.11.244-.016.043-.129.109.062.141.334.036-.058-.7.473-.386a.225.225,0,0,1-.006-.035c-.01-.243-.514-.368-.225-.676l-.154-.062,0,.112-.191-.127a.956.956,0,0,1,.292-.021c.211.06.366-.091.328-.323.028,0,.071.009.075,0,.046-.1.228-.183.035-.322l.3-.018c-.152.143-.3.263-.081.488-.136.077-.1.181-.026.285a.166.166,0,0,0,.128-.04c.053-.081.21-.169.012-.274-.049-.025-.07-.1-.1-.149a1.08,1.08,0,0,0,.231.129c.03.008.091-.077.115-.13.052-.122-.021-.113-.108-.1s-.048-.028-.068-.08c-.067-.193.471-.595-.215-.6-.054,0-.116-.083-.175-.125.045-.044.086-.125.136-.125a.4.4,0,0,1,.2.1,5.9,5.9,0,0,1,.555.491s-.057.054-.057.082.035.062.054.093a2.027,2.027,0,0,0,.13-.236.4.4,0,0,0,.015-.093c.311.076.035-.333.258-.331a.688.688,0,0,0-.091-.238c-.149-.16.005-.289.075-.342.133-.1-.359-.172.016-.291C1479.936,11889.628,1479.42,11889.575,1479.579,11889.384Zm-9.125-4.414c0-.065.064-.1.141-.117C1470.547,11884.891,1470.5,11884.931,1470.454,11884.97Zm2.911-1.158c0-.018.007-.029,0-.051l.027.049Zm.325-.024-.013-.057c-.009-.03-.034-.059-.034-.086s.042-.051.053-.045c.036.021.094.06.091.084a.852.852,0,0,0,0,.113C1473.755,11883.8,1473.724,11883.787,1473.69,11883.787Zm4.334,7.409-.015,0,.016-.029C1478.025,11891.174,1478.025,11891.187,1478.024,11891.2Z" fill="#504b46"/>
      <path id="Path_2063" data-name="Path 2063" d="M1467.745,11888.931a1.327,1.327,0,0,1-.021-.273,5.6,5.6,0,0,1,.082-.9.973.973,0,0,0,.015-.227.752.752,0,0,0-.086-.188c-.043.055-.131.124-.121.168a1.093,1.093,0,0,1-.147.814c-.054.122.016.3.032.451Z" fill="#504b46"/>
      <path id="Path_2064" data-name="Path 2064" d="M1467.458,11889.454c-.151.271,0,.524.117.76.009.021.036.034.054.05a3.591,3.591,0,0,1,.127-.506Z" fill="#504b46"/>
      <path id="Path_2065" data-name="Path 2065" d="M1478.631,11892.04c-.112.142-.246.265-.36.4-.013.015.029.081.035.1.126.095.142.064.139-.085-.014-.374.389-.017.461-.251,0-.009-.017-.023-.015-.032C1478.989,11891.726,1478.69,11892.143,1478.631,11892.04Z" fill="#504b46"/>
      <path id="Path_2066" data-name="Path 2066" d="M1479.595,11888.527a1.2,1.2,0,0,0-.036.222h.365C1479.935,11888.37,1479.653,11888.687,1479.595,11888.527Z" fill="#504b46"/>
      <path id="Path_2067" data-name="Path 2067" d="M1474.037,11882.631a1.339,1.339,0,0,0-.309-.159c-.046-.014-.115.081-.171.132.117.069.227.161.214.148C1474.208,11882.923,1473.885,11882.615,1474.037,11882.631Z" fill="#504b46"/>
      <path id="Path_2068" data-name="Path 2068" d="M1469.409,11892.773l-.142.277a3.1,3.1,0,0,0,.294.109.414.414,0,0,1,.014-.164C1469.7,11892.776,1469.3,11892.975,1469.409,11892.773Z" fill="#504b46"/>
      <path id="Path_2069" data-name="Path 2069" d="M1475.288,11894.494c-.132-.032.1.278-.145.155,0,0-.057.066-.05.077.2.287.3-.19.484-.075C1475.594,11894.378,1475.356,11894.6,1475.288,11894.494Z" fill="#504b46"/>
      <path id="Path_2070" data-name="Path 2070" d="M1478.516,11885.122l.081.017-.068-.357c-.073-.02-.155-.058-.175-.037C1478.081,11885.012,1478.642,11884.914,1478.516,11885.122Z" fill="#504b46"/>
      <path id="Path_2071" data-name="Path 2071" d="M1479.9,11889.1c-.067.076-.166.14-.189.224-.012.052.087.139.131.213a2.976,2.976,0,0,0,.112-.322Z" fill="#504b46"/>
    </g>
  </g>
</svg>
