<svg xmlns="http://www.w3.org/2000/svg" width="35.935" height="39.596" viewBox="0 0 35.935 39.596">
  <path id="Path_1521" data-name="Path 1521" d="M465.078,844.8l-13.52-2.592Q448,841.6,448,838.5a5.926,5.926,0,0,1,.915-2.948,4.184,4.184,0,0,1,3.66-2.49,4.811,4.811,0,0,1,3.456,1.575l9.352,9.556.2-.1-3.964-13.317a5.477,5.477,0,0,1-.305-1.728q0-3.914,4.676-3.914t4.676,3.914a5.474,5.474,0,0,1-.3,1.728L466.3,844.092l.254.1,9.454-9.556a4.81,4.81,0,0,1,3.457-1.575q2.184,0,3.761,2.49a5.82,5.82,0,0,1,.711,2.8q0,3.254-3.456,3.863l-13.52,2.592v.254l13.52,3.1q3.456.763,3.456,3.863a5.814,5.814,0,0,1-.711,2.8,4.546,4.546,0,0,1-3.863,2.491,4.708,4.708,0,0,1-3.355-1.576l-9.454-10.064-.254.1,4.067,13.317a5.474,5.474,0,0,1,.3,1.728q0,3.914-4.676,3.914t-4.676-3.914a5.477,5.477,0,0,1,.305-1.728l3.964-13.317-.2-.1-9.352,10.064a4.488,4.488,0,0,1-3.355,1.677q-2.389,0-3.863-2.694a5.882,5.882,0,0,1-.813-2.694q0-3.1,3.558-3.863l13.52-3.1Z" transform="translate(-448 -825.133)" fill="#f08e8b"/>
</svg>
