<svg id="Component_3_1" data-name="Component 3 – 1" xmlns="http://www.w3.org/2000/svg" width="50" height="50" viewBox="0 0 50 50">
  <g id="Group_583" data-name="Group 583" transform="translate(-787.5 -14272.742)">
    <g id="Group_582" data-name="Group 582">
      <circle id="Ellipse_13" data-name="Ellipse 13" cx="25" cy="25" r="25" transform="translate(787.5 14272.742)" fill="#504b46"/>
    </g>
  </g>
  <g id="Group_584" data-name="Group 584" transform="translate(-787.5 -14272.742)">
    <path id="Path_1882" data-name="Path 1882" d="M818.907,14281.806H806.4a9.478,9.478,0,0,0-9.479,9.478v12.511a9.478,9.478,0,0,0,9.479,9.479h12.51a9.478,9.478,0,0,0,9.478-9.479v-12.511A9.477,9.477,0,0,0,818.907,14281.806Zm6.51,21.988a6.51,6.51,0,0,1-6.51,6.51H806.4a6.51,6.51,0,0,1-6.51-6.51v-12.511a6.51,6.51,0,0,1,6.51-6.51h12.51a6.51,6.51,0,0,1,6.51,6.51Z" fill="#fff"/>
    <path id="Path_1883" data-name="Path 1883" d="M820.93,14287.6a1.85,1.85,0,1,0,1.85,1.85A1.85,1.85,0,0,0,820.93,14287.6Z" fill="#fff"/>
    <path id="Path_1884" data-name="Path 1884" d="M812.705,14289.971a7.771,7.771,0,1,0,7.771,7.771A7.78,7.78,0,0,0,812.705,14289.971Zm0,12.749a4.978,4.978,0,1,1,4.978-4.978A4.984,4.984,0,0,1,812.705,14302.72Z" fill="#fff"/>
  </g>
</svg>
