<svg id="Component_2_1" data-name="Component 2 – 1" xmlns="http://www.w3.org/2000/svg" width="50" height="50" viewBox="0 0 50 50">
  <path id="Path_1874" data-name="Path 1874" d="M722.5,14322.742a25,25,0,1,1,25-25A25.028,25.028,0,0,1,722.5,14322.742Z" transform="translate(-697.5 -14272.742)" fill="#504b46"/>
  <g id="Group_577" data-name="Group 577" transform="translate(-697.5 -14272.742)">
    <path id="Path_1875" data-name="Path 1875" d="M736.868,14288.618a11.983,11.983,0,0,1-2.943.841c.474-.08,1.173-.937,1.453-1.286a5.419,5.419,0,0,0,.98-1.785c.025-.05.044-.113-.006-.152a.167.167,0,0,0-.156.013,15.037,15.037,0,0,1-3.5,1.338.234.234,0,0,1-.242-.063,2.719,2.719,0,0,0-.3-.312,6.194,6.194,0,0,0-1.694-1.038,5.891,5.891,0,0,0-2.6-.418,6.174,6.174,0,0,0-2.464.7,6.341,6.341,0,0,0-1.988,1.624,6.087,6.087,0,0,0-1.188,2.378,6.446,6.446,0,0,0-.062,2.51c.018.141.006.16-.121.141-4.8-.715-8.783-2.433-12.014-6.115-.14-.16-.217-.16-.332.013-1.414,2.119-.728,5.524,1.039,7.2.235.223.477.445.738.649a6.117,6.117,0,0,1-2.318-.649c-.14-.089-.211-.038-.223.121a3.611,3.611,0,0,0,.038.688,6.161,6.161,0,0,0,3.8,4.912,3.629,3.629,0,0,0,.77.235,6.866,6.866,0,0,1-2.274.07c-.165-.031-.229.052-.165.21a6.392,6.392,0,0,0,4.777,4c.217.038.433.038.65.09-.013.02-.026.02-.038.037-.537.818-2.4,1.428-3.263,1.73a11.7,11.7,0,0,1-4.955.634c-.266-.039-.322-.036-.394,0s-.01.109.076.178c.338.224.682.422,1.032.612a16.41,16.41,0,0,0,3.312,1.325c5.953,1.643,12.658.435,17.128-4,3.509-3.488,4.74-8.3,4.74-13.112,0-.188.222-.293.355-.392a11.537,11.537,0,0,0,2.32-2.424.707.707,0,0,0,.144-.465v-.025C736.978,14288.541,736.987,14288.564,736.868,14288.618Z" fill="#fff"/>
  </g>
</svg>
