<svg xmlns="http://www.w3.org/2000/svg" width="82.119" height="82.079" viewBox="0 0 82.119 82.079">
  <g id="Group_586" data-name="Group 586" transform="translate(-1480.064 -14345.638)">
    <path id="Path_1885" data-name="Path 1885" d="M1554.39,14411.263c-10.846,14.786-32.465,18.868-48.165,12.418-18.6-7.639-29.89-32.562-23.006-53.23,5.138-15.426,21.067-24.074,36.011-23.806a43.326,43.326,0,0,1,36.249,20.841C1563.216,14380.567,1563.3,14399.116,1554.39,14411.263Z" fill="#504b46" stroke="#504b46" stroke-miterlimit="10" stroke-width="2"/>
    <path id="Path_1886" data-name="Path 1886" d="M1520.095,14383.132a25.489,25.489,0,0,0-7.83.664,9.95,9.95,0,0,1-2.016.217c-.405-.013-1.031-.207-1.144-.486a2.277,2.277,0,0,1,.189-1.378,2.72,2.72,0,0,1,.579-.741,26.787,26.787,0,0,0,4.037-7.119c.838-2.033,1.761-4.032,2.6-6.067a15.967,15.967,0,0,0,.79-2.565,2.763,2.763,0,0,0-.159-1.172,2.763,2.763,0,0,1,2.672-3.291,1.5,1.5,0,0,1,1.241.681c1.035,1.469,2.135,2.892,3.232,4.316,1.442,1.87,2.924,3.713,4.351,5.595.853,1.125,1.594,2.337,2.464,3.447.572.728,1.3,1.329,1.932,2.016.759.824,1.475,1.688,2.235,2.511a4.548,4.548,0,0,0,.841.645,1.854,1.854,0,0,1,.827,2.1,2.843,2.843,0,0,1-2.362,2.161,9.645,9.645,0,0,1-3.74-.24,31.483,31.483,0,0,0-4.887-.774c-.931-.13-1.868-.213-2.8-.351-.816-.12-1.112.1-1.089.906.115,4,.21,7.994.36,11.989.07,1.843.2,3.686.405,5.518a5.214,5.214,0,0,0,.664,1.886,2.7,2.7,0,0,1-.472,3.644,4.068,4.068,0,0,1-2.7,1.12,1.392,1.392,0,0,1-1.588-1.576c.059-1.021.27-2.033.362-3.053.413-4.564.892-9.124,1.172-13.7C1520.4,14387.769,1520.164,14385.476,1520.095,14383.132Zm1.185-15.656-.227.063c.29,4.448.579,8.895.871,13.368l10.776,1.282Zm-3.156,1.61c-1.7,3.771-3.319,7.348-4.919,10.934a3.308,3.308,0,0,0-.109.868l6.905-.309C1519.551,14376.727,1519.33,14372.938,1518.124,14369.086Z" fill="#fff"/>
  </g>
</svg>
